<?xml version="1.0" encoding="utf-8"?>
<!-- Generator: Adobe Illustrator 16.0.0, SVG Export Plug-In . SVG Version: 6.00 Build 0)  -->
<!DOCTYPE svg PUBLIC "-//W3C//DTD SVG 1.1//EN" "http://www.w3.org/Graphics/SVG/1.1/DTD/svg11.dtd">
<svg version="1.1" id="Layer_1" xmlns="http://www.w3.org/2000/svg" xmlns:xlink="http://www.w3.org/1999/xlink" x="0px" y="0px"
	 width="60px" height="30px" viewBox="0 0 60 30" enable-background="new 0 0 60 30" xml:space="preserve">
<g id="Layer_1_1_">
	<circle fill="#DD745F" cx="15" cy="15" r="15"/>
</g>
<g id="Layer_2">
	<path fill="#FFFFFF" d="M14.333,7.599l9.635,5.624c0,0,0.474,1.896-0.062,3.306l-9.463,5.445
		C14.444,21.977,4.415,14.915,14.333,7.599z"/>
	<path fill="#FFFFFF" d="M9.481,11.96c0.22-0.499,0.513-1.251,0.897-1.752L6.339,7.726c0,0-1.149-0.031-1.162,0.958
		c-0.014,0.989,0.172,1.686-0.163,2.977c-0.348,1.337-1.14,2.006-1.072,3.235c0.004,0.076,0.012,0.146,0.023,0.215v0.001
		c0.003,1.236,0.843,1.945,1.292,3.32c0.431,1.317,0.266,1.981,0.336,2.975c0.071,0.988,1.216,0.892,1.216,0.892l3.598-3.194
		C8.484,16.248,9.032,13.258,9.481,11.96z"/>
	<path fill="#FFFFFF" d="M24.654,12.863l3.178,1.986l-3.266,2.028C24.566,16.877,25.409,14.826,24.654,12.863z"/>
	<path fill="#FFFFFF" d="M24.178,13.288"/>
</g>
<g id="Layer_1_2_">
	<circle fill="#A7B8C1" cx="45" cy="15" r="15"/>
</g>
<g id="Layer_2_1_">
	<path fill="#FFFFFF" d="M44.333,7.599l9.635,5.624c0,0,0.474,1.896-0.062,3.306l-9.463,5.445
		C44.443,21.977,34.415,14.915,44.333,7.599z"/>
	<path fill="#FFFFFF" d="M39.48,11.96c0.221-0.499,0.514-1.251,0.896-1.752l-4.039-2.482c0,0-1.148-0.031-1.162,0.958
		c-0.014,0.989,0.174,1.686-0.162,2.977c-0.349,1.337-1.141,2.006-1.072,3.235c0.004,0.076,0.013,0.146,0.022,0.215v0.001
		c0.003,1.236,0.845,1.945,1.292,3.32c0.432,1.317,0.268,1.981,0.336,2.975c0.071,0.988,1.217,0.892,1.217,0.892l3.599-3.194
		C38.484,16.248,39.032,13.258,39.48,11.96z"/>
	<path fill="#FFFFFF" d="M54.654,12.863l3.178,1.986l-3.266,2.028C54.566,16.877,55.409,14.826,54.654,12.863z"/>
	<path fill="#FFFFFF" d="M54.178,13.288"/>
</g>
</svg>
