<?xml version="1.0" encoding="utf-8"?>
<!-- Generator: Adobe Illustrator 16.0.0, SVG Export Plug-In . SVG Version: 6.00 Build 0)  -->
<!DOCTYPE svg PUBLIC "-//W3C//DTD SVG 1.1//EN" "http://www.w3.org/Graphics/SVG/1.1/DTD/svg11.dtd">
<svg version="1.1" id="Layer_1" xmlns="http://www.w3.org/2000/svg" xmlns:xlink="http://www.w3.org/1999/xlink" x="0px" y="0px"
	 width="60px" height="30px" viewBox="0 0 60 30" enable-background="new 0 0 60 30" xml:space="preserve">
<g id="Layer_1_1_">
	<circle fill="#DD745F" cx="15" cy="15" r="15"/>
</g>
<g id="Layer_2">
	<path fill="#FFFFFF" d="M16.436,22.301l-9.635-5.624c0,0-0.474-1.896,0.062-3.307l9.463-5.445
		C16.325,7.923,26.354,14.984,16.436,22.301z"/>
	<path fill="#FFFFFF" d="M21.288,17.939c-0.22,0.499-0.513,1.251-0.897,1.752l4.039,2.482c0,0,1.149,0.031,1.162-0.958
		c0.014-0.989-0.172-1.687,0.163-2.978c0.348-1.337,1.14-2.006,1.072-3.235c-0.004-0.076-0.012-0.146-0.023-0.215v-0.001
		c-0.003-1.236-0.843-1.945-1.292-3.32c-0.431-1.317-0.266-1.981-0.336-2.975c-0.071-0.988-1.216-0.892-1.216-0.892l-3.598,3.194
		C22.285,13.651,21.736,16.642,21.288,17.939z"/>
	<path fill="#FFFFFF" d="M6.115,17.037L2.937,15.05l3.266-2.028C6.203,13.022,5.359,15.073,6.115,17.037z"/>
	<path fill="#FFFFFF" d="M6.59,16.611"/>
</g>
<g id="Layer_1_2_">
	<circle fill="#A7B8C1" cx="45" cy="15" r="15"/>
</g>
<g id="Layer_2_1_">
	<path fill="#FFFFFF" d="M46.436,22.301l-9.635-5.624c0,0-0.474-1.896,0.062-3.307l9.463-5.445
		C46.325,7.923,56.354,14.984,46.436,22.301z"/>
	<path fill="#FFFFFF" d="M51.288,17.939c-0.221,0.499-0.514,1.251-0.896,1.752l4.039,2.482c0,0,1.148,0.031,1.162-0.958
		s-0.174-1.687,0.162-2.978c0.349-1.337,1.141-2.006,1.072-3.235c-0.004-0.076-0.013-0.146-0.022-0.215v-0.001
		c-0.003-1.236-0.845-1.945-1.292-3.32c-0.432-1.317-0.268-1.981-0.336-2.975c-0.071-0.988-1.217-0.892-1.217-0.892l-3.599,3.194
		C52.284,13.651,51.736,16.642,51.288,17.939z"/>
	<path fill="#FFFFFF" d="M36.114,17.037l-3.178-1.987l3.266-2.028C36.202,13.022,35.359,15.073,36.114,17.037z"/>
	<path fill="#FFFFFF" d="M36.591,16.611"/>
</g>
</svg>
