<?xml version="1.0" encoding="utf-8"?>
<!-- Generator: Adobe Illustrator 16.0.0, SVG Export Plug-In . SVG Version: 6.00 Build 0)  -->
<!DOCTYPE svg PUBLIC "-//W3C//DTD SVG 1.1//EN" "http://www.w3.org/Graphics/SVG/1.1/DTD/svg11.dtd">
<svg version="1.1" id="Layer_1" xmlns="http://www.w3.org/2000/svg" xmlns:xlink="http://www.w3.org/1999/xlink" x="0px" y="0px"
	 width="79.404px" height="38.777px" viewBox="0 0 79.404 38.777" enable-background="new 0 0 79.404 38.777" xml:space="preserve">
<path fill="#696059" d="M30.896,34.996c-3.219,2.38-7.2,3.781-11.507,3.781C8.686,38.777,0,30.098,0,19.39C0,8.681,8.686,0,19.389,0
	C30.097,0,38.782,8.681,38.782,19.39c0,3.584-0.978,6.941-2.674,9.819c0.723,1.715,2.367,5.616,3.595,8.522
	C37.121,36.932,32.488,35.492,30.896,34.996z"/>
<path fill="#9BBAC1" d="M70.598,34.996c-3.219,2.38-7.2,3.781-11.507,3.781c-10.703,0-19.389-8.68-19.389-19.387
	C39.703,8.681,48.388,0,59.091,0C69.799,0,78.484,8.681,78.484,19.39c0,3.584-0.977,6.941-2.673,9.819
	c0.723,1.715,2.367,5.616,3.594,8.522C76.823,36.932,72.19,35.492,70.598,34.996z"/>
</svg>
