<?xml version="1.0" encoding="utf-8"?>
<!-- Generator: Adobe Illustrator 16.0.0, SVG Export Plug-In . SVG Version: 6.00 Build 0)  -->
<!DOCTYPE svg PUBLIC "-//W3C//DTD SVG 1.1//EN" "http://www.w3.org/Graphics/SVG/1.1/DTD/svg11.dtd">
<svg version="1.1" id="Layer_1" xmlns="http://www.w3.org/2000/svg" xmlns:xlink="http://www.w3.org/1999/xlink" x="0px" y="0px"
	 width="78px" height="38px" viewBox="1.365 0.079 78 38" enable-background="new 1.365 0.079 78 38" xml:space="preserve">
<path fill="#696059" d="M9.588,2.859C9.583,3.467,9.587,4.075,9.587,4.741c-0.806,0-1.583-0.03-2.356,0.005
	C4.276,4.88,1.783,6.914,1.443,9.899c-0.032,0.284-0.042,0.57-0.042,0.854c-0.002,6.551-0.003,13.102-0.001,19.651
	c0.001,3.5,2.816,6.305,6.321,6.305c8.798,0,17.597,0,26.396,0c3.451,0,6.28-2.813,6.283-6.265c0.005-6.576,0.003-13.152,0-19.728
	c-0.002-3.109-2.16-5.567-5.251-5.901c-0.949-0.102-1.917-0.015-2.937-0.015c0-0.523-0.025-0.962,0.004-1.395
	c0.023-0.333-0.015-0.719-0.089-1.044c-0.007-0.03-0.015-0.061-0.024-0.09c-0.158-0.464-0.477-0.82-1.008-1.078
	c-0.351-0.134-0.749-0.17-1.134-0.111c-0.241,0.038-0.477,0.113-0.693,0.224c-0.099,0.051-0.193,0.106-0.283,0.172
	c-0.452,0.33-0.674,0.813-0.679,1.381c-0.005,0.608-0.002,1.216-0.002,1.846c-4.938,0-9.844,0-14.81,0
	c0-0.428-0.024-0.866,0.005-1.3c0.02-0.297,0.012-0.62-0.053-0.917c0-0.001,0-0.002,0-0.003c-0.008-0.037-0.017-0.073-0.027-0.109
	c-0.007-0.025-0.015-0.049-0.023-0.075c-0.001-0.004-0.003-0.01-0.005-0.015c-0.006-0.02-0.014-0.04-0.021-0.059
	c-0.007-0.019-0.014-0.038-0.021-0.057c-0.002-0.005-0.005-0.011-0.007-0.017c-0.083-0.192-0.2-0.368-0.342-0.521
	c-0.002-0.002-0.004-0.005-0.006-0.006c-0.009-0.011-0.019-0.02-0.027-0.029c-0.216-0.213-0.503-0.388-0.873-0.527
	c-0.375-0.108-0.751-0.087-1.108,0.031c-0.249,0.111-0.502,0.218-0.717,0.376C9.815,1.808,9.594,2.292,9.588,2.859z M13.493,9.568
	c0.002-0.425,0-0.852,0-1.3c4.938,0,9.845,0,14.81,0c0,0.417,0,0.839,0,1.262c0.003,1.143,0.83,1.988,1.948,1.99
	c1.119,0.002,1.956-0.843,1.959-1.978c0.001-0.414,0-0.829,0-1.339c0.912,0.046,1.812,0.011,2.682,0.159
	c0.901,0.152,1.53,0.944,1.569,1.947c0.06,1.528,0.015,6.062,0.015,7.629c-10.401,0-20.757,0-31.142,0
	c-0.01-0.105-0.028-3.206-0.028-3.304c-0.002-1.353-0.01-2.704,0.001-4.056C5.319,9.166,6.256,8.25,7.673,8.245
	c0.622-0.002,1.244,0,1.914,0c0,0.464-0.002,0.901,0,1.338c0.006,1.102,0.854,1.939,1.959,1.938
	C12.648,11.518,13.489,10.676,13.493,9.568z"/>
<path fill="#9BBAC1" d="M48.592,2.859c-0.005,0.608-0.001,1.216-0.001,1.882c-0.807,0-1.583-0.03-2.356,0.005
	c-2.955,0.134-5.447,2.168-5.788,5.153c-0.031,0.284-0.042,0.57-0.042,0.854c-0.003,6.551-0.004,13.102-0.002,19.651
	c0.002,3.5,2.817,6.305,6.321,6.305c8.799,0,17.597,0,26.396,0c3.45,0,6.279-2.813,6.282-6.265c0.005-6.576,0.004-13.152,0-19.728
	c-0.002-3.109-2.16-5.567-5.251-5.901c-0.949-0.102-1.917-0.015-2.936-0.015c0-0.523-0.025-0.962,0.004-1.395
	c0.023-0.333-0.016-0.719-0.09-1.044c-0.007-0.03-0.015-0.061-0.024-0.09c-0.157-0.464-0.477-0.82-1.007-1.078
	c-0.351-0.134-0.749-0.17-1.134-0.111c-0.241,0.038-0.477,0.113-0.693,0.224c-0.099,0.051-0.194,0.106-0.283,0.172
	c-0.452,0.33-0.674,0.813-0.679,1.381c-0.006,0.608-0.002,1.216-0.002,1.846c-4.938,0-9.844,0-14.809,0
	c0-0.428-0.025-0.866,0.004-1.3c0.02-0.297,0.012-0.62-0.053-0.917c0-0.001,0-0.002-0.001-0.003
	c-0.008-0.037-0.017-0.073-0.026-0.109c-0.007-0.025-0.015-0.049-0.023-0.075c-0.001-0.004-0.003-0.01-0.005-0.015
	c-0.006-0.02-0.014-0.04-0.021-0.059c-0.006-0.019-0.013-0.038-0.021-0.057c-0.002-0.005-0.005-0.011-0.008-0.017
	c-0.082-0.192-0.199-0.368-0.342-0.521C52,1.631,51.998,1.628,51.996,1.627c-0.01-0.011-0.02-0.02-0.026-0.029
	c-0.217-0.213-0.504-0.388-0.873-0.527c-0.375-0.108-0.752-0.087-1.108,0.031c-0.249,0.111-0.502,0.218-0.718,0.376
	C48.818,1.808,48.597,2.292,48.592,2.859z M52.497,9.568c0.002-0.425,0.001-0.852,0.001-1.3c4.938,0,9.844,0,14.809,0
	c0,0.417,0,0.839,0,1.262c0.004,1.143,0.829,1.988,1.948,1.99s1.956-0.843,1.959-1.978c0.001-0.414,0.001-0.829,0.001-1.339
	c0.911,0.046,1.812,0.011,2.682,0.159c0.9,0.152,1.53,0.944,1.569,1.947c0.06,1.528,0.015,6.062,0.015,7.629
	c-10.4,0-20.757,0-31.143,0c-0.01-0.105-0.027-3.206-0.027-3.304c-0.002-1.353-0.01-2.704,0.001-4.056
	c0.012-1.413,0.947-2.329,2.364-2.334c0.622-0.002,1.244,0,1.915,0c0,0.464-0.002,0.901,0.001,1.338
	c0.006,1.102,0.854,1.939,1.959,1.938C51.651,11.518,52.492,10.676,52.497,9.568z"/>
</svg>
