<?xml version="1.0" encoding="utf-8"?>
<!-- Generator: Adobe Illustrator 16.0.0, SVG Export Plug-In . SVG Version: 6.00 Build 0)  -->
<!DOCTYPE svg PUBLIC "-//W3C//DTD SVG 1.1//EN" "http://www.w3.org/Graphics/SVG/1.1/DTD/svg11.dtd">
<svg version="1.1" id="Layer_1" xmlns="http://www.w3.org/2000/svg" xmlns:xlink="http://www.w3.org/1999/xlink" x="0px" y="0px"
	 width="56.549px" height="28.273px" viewBox="0 0 56.549 28.273" enable-background="new 0 0 56.549 28.273" xml:space="preserve">
<path fill="#696059" d="M14.138,0C6.329,0,0,6.33,0,14.136c0,7.808,6.329,14.138,14.138,14.138c7.809,0,14.137-6.33,14.137-14.138
	C28.274,6.33,21.946,0,14.138,0 M18.239,8.38h-1.983c-0.394,0-0.79,0.411-0.79,0.716v2.04h2.77c-0.11,1.564-0.339,2.995-0.339,2.995
	h-2.444v8.866H11.81v-8.866h-1.772v-2.984h1.772V8.707c0-0.447-0.09-3.434,3.731-3.434h2.698V8.38z"/>
<path fill="#9BBAC1" d="M42.412,0c-7.81,0-14.138,6.33-14.138,14.136c0,7.808,6.329,14.138,14.138,14.138s14.137-6.33,14.137-14.138
	C56.549,6.33,50.222,0,42.412,0 M46.515,8.38H44.53c-0.395,0-0.79,0.411-0.79,0.716v2.04h2.77c-0.11,1.564-0.339,2.995-0.339,2.995
	h-2.443v8.866h-3.644v-8.866h-1.772v-2.984h1.772V8.707c0-0.447-0.09-3.434,3.731-3.434h2.697V8.38H46.515z"/>
</svg>
