<?xml version="1.0" encoding="utf-8"?>
<!-- Generator: Adobe Illustrator 16.0.0, SVG Export Plug-In . SVG Version: 6.00 Build 0)  -->
<!DOCTYPE svg PUBLIC "-//W3C//DTD SVG 1.1//EN" "http://www.w3.org/Graphics/SVG/1.1/DTD/svg11.dtd">
<svg version="1.1" id="Layer_1" xmlns="http://www.w3.org/2000/svg" xmlns:xlink="http://www.w3.org/1999/xlink" x="0px" y="0px"
	 width="300px" height="25px" viewBox="0 0 300 25" enable-background="new 0 0 300 25" xml:space="preserve">
<g>
	<rect y="8.919" opacity="0.5" fill="#4B3F3A" width="67.875" height="1.999"/>
	<rect x="233" y="8.919" opacity="0.5" fill="#4B3F3A" width="67" height="1.999"/>
	<rect x="233" y="10.92" fill="#FCFBF7" width="67" height="2"/>
	<rect y="10.92" fill="#FCFBF7" width="67.875" height="2"/>
	<rect x="233" y="15.927" opacity="0.5" fill="#4B3F3A" width="67" height="1.998"/>
	<rect y="15.927" opacity="0.5" fill="#4B3F3A" width="67.875" height="1.998"/>
	<rect y="17.927" fill="#FCFBF7" width="67.875" height="2"/>
	<rect x="233" y="17.927" fill="#FCFBF7" width="67" height="2"/>
</g>
<g>
	<path fill="#FCFBF7" d="M137.545,14.249c-1.497,0-5.604,4.976-5.604,6.4c0,0.218,0.049,0.483,0.362,0.483
		c0.387,0,0.798-0.218,1.595-0.894c1.279-1.087,4.058-4.324,4.105-5.604C138.004,14.369,137.763,14.249,137.545,14.249z"/>
	<path fill="#FCFBF7" d="M144.479,18.572c1.377,0,4.565-3.406,4.565-4.154c0-0.193-0.121-0.266-0.29-0.266s-0.386,0.097-0.507,0.169
		c-1.619,1.11-3.237,2.584-4.348,3.937C144.094,18.548,144.359,18.572,144.479,18.572z"/>
	<path fill="#FCFBF7" d="M118.557,15.939c-0.048,0-0.145,0.072-0.289,0.218c-1.063,1.062-2.898,2.56-3.744,3.14
		c0.266,1.015,0.82,1.933,1.473,1.933c0.677,0,1.354-1.184,1.836-2.464c0.29-0.773,0.773-2.343,0.773-2.705
		C118.605,15.987,118.605,15.939,118.557,15.939z"/>
	<path fill="#FCFBF7" d="M162.816,15.939c-0.048,0-0.145,0.072-0.29,0.218c-1.062,1.062-2.898,2.56-3.743,3.14
		c0.266,1.015,0.821,1.933,1.473,1.933c0.677,0,1.353-1.184,1.836-2.464c0.29-0.773,0.773-2.343,0.773-2.705
		C162.865,15.987,162.865,15.939,162.816,15.939z"/>
	<path fill="#FCFBF7" d="M85,16.543c0.58,0,10.121-7.294,10.121-8.502c0-0.29-0.098-0.387-0.339-0.387
		c-0.362,0-6.28,4.541-9.952,8.744C84.855,16.471,84.903,16.543,85,16.543z"/>
	<path fill="#FCFBF7" d="M93.842,18.572c1.377,0,4.566-3.406,4.566-4.154c0-0.193-0.121-0.266-0.291-0.266
		c-0.168,0-0.386,0.097-0.507,0.169c-1.618,1.11-3.237,2.584-4.348,3.937C93.456,18.548,93.722,18.572,93.842,18.572z"/>
	<path fill="#FCFBF7" d="M202.46,15.336c0-0.17-0.145-0.314-0.387-0.314c-0.266,0-1.183,0.531-1.859,0.99
		c-1.425,0.99-2.464,1.908-3.575,3.092c-0.797,0.846-1.739,1.908-1.739,2.488c0,0.193,0.218,0.387,0.339,0.387
		c0.072,0,0.145-0.024,0.241-0.073c1.787-0.869,6.812-6.159,6.933-6.4C202.437,15.456,202.46,15.384,202.46,15.336z"/>
	<path fill="#FCFBF7" d="M220.675,7.654c-0.362,0-6.28,4.541-9.951,8.744c0.023,0.072,0.072,0.145,0.169,0.145
		c0.579,0,10.12-7.294,10.12-8.502C221.013,7.751,220.916,7.654,220.675,7.654z"/>
	<path fill="#FCFBF7" d="M168.809,20.553c0,0.338,0.362,0.677,0.652,0.677c0.82,0,2.777-1.329,3.261-1.691
		c1.014-0.772,1.835-1.763,1.835-2.102c0-0.266-0.217-0.482-0.217-0.966c0-0.313,0.313-0.918,0.772-1.305
		C172.263,16.181,168.832,19.031,168.809,20.553z"/>
	<path fill="#FCFBF7" d="M108.482,13.186c2.295-0.145,4.709-0.41,4.709-0.869c0-0.314-0.168-0.628-0.531-1.039
		c-0.386-0.435-0.699-0.604-1.473-0.628c0.628-0.556,1.062-0.942,1.062-1.087c0-0.072-0.023-0.145-0.072-0.217
		c-0.362-0.531-1.256-1.715-1.498-1.715c-0.169,0-0.555,0.386-4.227,3.84c-0.821,0.121-1.715,0.193-2.657,0.193
		c-0.87,0-1.159-0.242-1.401-0.242c-0.12,0-0.145,0.097-0.145,0.193c0,1.183,0.628,1.667,2.223,1.691
		c-3.032,2.847-4.711,4.564-5.451,5.811c-1.156,0.734-2.814,1.655-4.986,2.45c-0.289,0.097-0.82,0.241-1.256,0.241
		c-0.748,0-0.941-0.507-0.941-0.894c0-0.435,0.266-1.038,0.725-1.739c0.531,0.556,1.256,0.846,1.764,0.846
		c1.811,0,5.797-3.285,5.797-5.604c0-0.314-0.072-0.726-0.942-1.521c-0.604-0.677-1.28-1.184-1.788-1.184
		c-0.918,0-2.391,0.773-4.323,2.512c-1.327,1.191-2.606,2.519-3.253,4c-2.01,1.655-5.217,3.923-7.039,3.923
		c-0.41,0-0.846-0.121-0.846-0.701c0-1.014,0.725-2.343,1.86-3.792c0.29,0.435,0.507,0.556,0.894,0.556
		c1.062,0,9.203-5.556,11.885-8.623c0.41-0.483,0.797-0.966,0.797-1.594c0-1.111-1.595-2.488-3.044-2.488
		c-1.136,0-2.923,1.232-4.13,2.053c-4.348,2.995-10.652,9.203-10.652,12.729c0,1.787,1.328,3.333,3.043,3.333
		c2.184,0,5.026-1.808,6.809-3.305c0.199,1.049,2.326,3.305,3.339,3.305c2.09,0,4.196-1.317,5.875-2.739
		c0.239,0.949,1.29,2.498,2.267,2.498c0.918,0,2.15-0.556,3.02-1.184c3.502-2.464,4.372-3.599,4.372-3.961
		c0-0.314-0.241-0.677-0.411-0.677c-0.266,0-0.435,0.121-0.652,0.338c-3.019,2.778-4.589,3.188-5.096,3.188
		c-0.314,0-0.411-0.12-0.411-0.313C101.694,19.756,105.438,16.061,108.482,13.186z M97.61,14.321
		c0.121-0.072,0.339-0.169,0.507-0.169c0.17,0,0.291,0.072,0.291,0.266c0,0.748-3.189,4.154-4.566,4.154
		c-0.12,0-0.386-0.024-0.579-0.314C94.373,16.905,95.992,15.432,97.61,14.321z M94.782,7.654c0.241,0,0.339,0.097,0.339,0.387
		c0,1.208-9.541,8.502-10.121,8.502c-0.097,0-0.145-0.072-0.17-0.145C88.502,12.195,94.42,7.654,94.782,7.654z"/>
	<path fill="#FCFBF7" d="M115.127,7.727c0.266,0,0.531-0.266,0.82-0.676l1.739-2.512c0.314-0.459,0.798-1.208,0.798-1.643
		c0-0.435-0.459-0.894-0.846-0.894c-0.508,0-1.305,1.208-1.594,1.667c-1.691,2.705-1.812,2.729-1.812,2.995
		C114.232,6.978,114.668,7.727,115.127,7.727z"/>
	<path fill="#FCFBF7" d="M120.465,11.736c-0.459,0-2.777,3.623-6.184,6.039c-0.096-0.218-0.241-0.362-0.435-0.362
		c-0.725,0-1.474,1.087-1.474,1.715c0,1.231,2.078,4.082,3.769,4.082c2.053,0,3.695-1.618,4.13-2.488
		c0.508-1.015,0.725-2.512,0.895-3.768c0.145-1.015,0.966-2.947,1.57-3.551c0.047-0.049,0.072-0.121,0.072-0.17
		c0-0.072-0.049-0.168-0.121-0.217C122.156,12.631,121.189,11.736,120.465,11.736z M117.832,18.766
		c-0.482,1.28-1.159,2.464-1.836,2.464c-0.652,0-1.207-0.918-1.473-1.933c0.846-0.58,2.681-2.077,3.744-3.14
		c0.145-0.146,0.241-0.218,0.289-0.218c0.049,0,0.049,0.048,0.049,0.121C118.605,16.423,118.122,17.992,117.832,18.766z"/>
	<path fill="#FCFBF7" d="M140.323,15.649c0-0.604-0.459-1.111-1.087-1.691c-0.508-0.482-1.208-0.869-2.078-0.869
		c3.721-3.72,6.836-5.749,7.778-7.004c0.097-0.121,0.146-0.29,0.146-0.362c0-0.652-1.232-1.908-1.474-1.908
		c-0.218,0-0.387,0.145-0.628,0.362c-1.328,1.135-2.851,2.488-6.643,6.232c-2.923,2.874-4.613,4.517-5.918,6.739
		c-0.459,0.797-0.99,1.884-0.99,2.923c0,0.41,0,0.894,0.846,1.812c1.014,1.11,1.715,1.738,2.705,1.738
		c2.561,0,6.207-4.686,7.102-6.859C140.202,16.471,140.323,16.012,140.323,15.649z M133.898,20.239
		c-0.797,0.676-1.208,0.894-1.595,0.894c-0.313,0-0.362-0.266-0.362-0.483c0-1.425,4.106-6.4,5.604-6.4
		c0.218,0,0.459,0.12,0.459,0.386C137.956,15.915,135.178,19.152,133.898,20.239z"/>
	<path fill="#FCFBF7" d="M151.629,17.799c-0.217,0-2.535,2.15-6.956,3.769c-0.29,0.097-0.821,0.241-1.256,0.241
		c-0.749,0-0.942-0.507-0.942-0.894c0-0.435,0.266-1.038,0.725-1.739c0.531,0.556,1.256,0.846,1.764,0.846
		c1.812,0,5.797-3.285,5.797-5.604c0-0.314-0.072-0.726-0.941-1.521c-0.604-0.677-1.281-1.184-1.788-1.184
		c-0.918,0-2.392,0.773-4.323,2.512c-1.885,1.69-3.696,3.647-3.696,5.941c0,0.967,2.295,3.454,3.358,3.454
		c2.367,0,4.758-1.69,6.521-3.309c0.989-0.894,1.956-2.005,1.956-2.271C151.847,17.944,151.822,17.799,151.629,17.799z
		 M148.248,14.321c0.121-0.072,0.338-0.169,0.507-0.169s0.29,0.072,0.29,0.266c0,0.748-3.188,4.154-4.565,4.154
		c-0.12,0-0.386-0.024-0.579-0.314C145.011,16.905,146.629,15.432,148.248,14.321z"/>
	<path fill="#FCFBF7" d="M167.067,13.233c0-0.072-0.048-0.168-0.12-0.217c-0.531-0.386-1.498-1.28-2.223-1.28
		c-0.459,0-2.777,3.623-6.184,6.039c-0.097-0.218-0.241-0.362-0.435-0.362c-0.725,0-1.474,1.087-1.474,1.715
		c0,1.231,2.077,4.082,3.769,4.082c2.053,0,3.695-1.618,4.13-2.488c0.508-1.015,0.725-2.512,0.895-3.768
		c0.145-1.015,0.966-2.947,1.569-3.551C167.044,13.354,167.067,13.282,167.067,13.233z M162.092,18.766
		c-0.483,1.28-1.159,2.464-1.836,2.464c-0.651,0-1.207-0.918-1.473-1.933c0.845-0.58,2.681-2.077,3.743-3.14
		c0.146-0.146,0.242-0.218,0.29-0.218c0.049,0,0.049,0.048,0.049,0.121C162.865,16.423,162.382,17.992,162.092,18.766z"/>
	<path fill="#FCFBF7" d="M174.992,12.171c-0.436,0-1.039,0.072-1.788,0.411c-2.705,1.256-6.521,3.841-6.521,6.4
		c0,1.546,1.812,3.382,2.488,3.938c0.29,0.242,0.845,0.314,1.231,0.314c2.536,0,5.821-3.044,6.667-5.146
		c0.169-0.435,0.217-0.941,0.217-1.4c0-0.798-0.217-1.619-0.894-1.836c0.193-0.024,0.362-0.049,0.531-0.049
		c0.242,0,0.436-0.023,0.436-0.169c0-0.169-0.266-0.869-0.773-1.474C175.982,12.461,175.692,12.171,174.992,12.171z M174.557,17.437
		c0,0.339-0.821,1.329-1.835,2.102c-0.483,0.362-2.44,1.691-3.261,1.691c-0.29,0-0.652-0.339-0.652-0.677
		c0.023-1.521,3.454-4.372,6.304-5.387c-0.459,0.387-0.772,0.991-0.772,1.305C174.34,16.954,174.557,17.171,174.557,17.437z"/>
	<path fill="#FCFBF7" d="M196.662,12.438c0.918,0,1.98-1.546,1.98-2.126c0-0.966-0.941-1.619-1.353-1.619
		c-0.459,0-2.005,0.628-2.005,2.078C195.285,11.64,196.203,12.438,196.662,12.438z"/>
	<path fill="#FCFBF7" d="M220.216,5.504c-1.135,0-2.923,1.232-4.13,2.053c-3.504,2.414-8.272,6.912-9.994,10.413
		c-0.021,0.015-0.04,0.029-0.057,0.046c-2.319,2.439-4.831,3.695-5.049,3.695c-0.145,0-0.241-0.097-0.241-0.217
		c0-0.749,3.164-4.059,5.362-5.58c0.024-0.024,0.097-0.072,0.097-0.145c0-0.218-0.99-0.967-2.222-1.474
		c-0.798-0.772-1.667-1.885-2.706-1.885c-1.477,0-6.802,4-8.189,6.564c-0.238,0.194-0.479,0.395-0.676,0.538
		c-1.957,1.425-3.31,2.149-3.865,2.149c-0.12,0-0.145-0.072-0.145-0.145c0-0.411,1.087-1.57,6.232-6.546
		c0.145-0.146,0.169-0.29,0.169-0.362c0-0.411-1.715-1.86-1.908-1.86c-0.097,0-0.193,0-0.387,0.146
		c-0.424,0.31-3.273,2.927-5.086,5.243c-2.198,1.558-5.499,3.113-7.162,3.113c-0.459,0-0.749-0.12-0.749-0.531
		c0-0.821,0.677-1.594,2.005-2.85c1.136-1.087,2.149-1.981,2.633-1.981c0.024,0.895,0.604,1.788,1.159,1.788
		c0.411,0,1.16-0.87,1.449-1.159c0.749-0.773,1.401-1.498,1.401-1.957c0-0.338-0.459-0.677-0.894-1.11
		c-0.821-0.847-1.305-0.991-1.739-0.991c-1.184,0-3.695,1.329-5.942,3.575c-0.99,0.99-1.618,1.836-1.618,3.309
		c0,1.595,1.136,3.721,1.933,3.938c0.266,0.072,0.556,0.097,0.821,0.097c1.288,0,3.461-1.24,5.229-2.617
		c-0.013,0.076-0.035,0.157-0.035,0.226c0,1.208,0.87,2.416,2.247,2.416c0.896,0,3.128-1.393,4.679-2.6
		c0.122,0.484,0.357,0.869,0.611,1.344c0.459,0.845,1.015,1.4,1.764,1.4c0.846,0,1.859-0.797,3.647-2.415
		c0,1.328,0.821,2.246,1.836,2.246c1.082,0,3.31-1.638,4.743-3.02c0.035,1.756,1.345,3.261,3.036,3.261
		c3.431,0,8.503-4.468,8.503-5.169c0-0.482-0.314-0.748-0.459-0.748c-0.146,0-0.338,0.12-0.531,0.289
		c-1.981,1.667-5.411,4.155-7.319,4.155c-0.41,0-0.846-0.121-0.846-0.701c0-1.014,0.725-2.343,1.86-3.792
		c0.29,0.435,0.507,0.556,0.894,0.556c1.062,0,9.203-5.556,11.884-8.623c0.411-0.483,0.798-0.966,0.798-1.594
		C223.26,6.881,221.665,5.504,220.216,5.504z M195.479,21.905c-0.097,0.049-0.169,0.073-0.241,0.073
		c-0.121,0-0.339-0.193-0.339-0.387c0-0.58,0.942-1.643,1.739-2.488c1.111-1.184,2.15-2.102,3.575-3.092
		c0.677-0.459,1.594-0.99,1.859-0.99c0.242,0,0.387,0.145,0.387,0.314c0,0.048-0.023,0.12-0.048,0.169
		C202.291,15.746,197.267,21.036,195.479,21.905z M210.893,16.543c-0.097,0-0.146-0.072-0.169-0.145
		c3.671-4.203,9.589-8.744,9.951-8.744c0.241,0,0.338,0.097,0.338,0.387C221.013,9.249,211.472,16.543,210.893,16.543z"/>
</g>
<g>
	<path fill="none" d="M137.539,12.691c-1.498,0-5.604,4.976-5.604,6.4c0,0.218,0.048,0.483,0.362,0.483
		c0.387,0,0.797-0.218,1.594-0.894c1.281-1.087,4.059-4.324,4.107-5.604C137.998,12.812,137.756,12.691,137.539,12.691z"/>
	<path fill="none" d="M144.473,17.015c1.377,0,4.565-3.406,4.565-4.154c0-0.193-0.121-0.266-0.29-0.266s-0.387,0.097-0.508,0.169
		c-1.617,1.11-3.236,2.584-4.348,3.937C144.086,16.99,144.352,17.015,144.473,17.015z"/>
	<path fill="none" d="M118.55,14.382c-0.048,0-0.145,0.072-0.29,0.218c-1.062,1.062-2.898,2.56-3.744,3.14
		c0.266,1.015,0.822,1.933,1.475,1.933c0.676,0,1.352-1.184,1.835-2.464c0.29-0.773,0.772-2.343,0.772-2.705
		C118.598,14.43,118.598,14.382,118.55,14.382z"/>
	<path fill="none" d="M162.81,14.382c-0.048,0-0.145,0.072-0.29,0.218c-1.062,1.062-2.898,2.56-3.743,3.14
		c0.266,1.015,0.821,1.933,1.473,1.933c0.677,0,1.353-1.184,1.836-2.464c0.29-0.773,0.773-2.343,0.773-2.705
		C162.858,14.43,162.858,14.382,162.81,14.382z"/>
	<path fill="none" d="M84.992,14.985c0.58,0,10.121-7.294,10.121-8.502c0-0.29-0.096-0.387-0.338-0.387
		c-0.362,0-6.28,4.541-9.951,8.744C84.848,14.913,84.896,14.985,84.992,14.985z"/>
	<path fill="none" d="M93.836,17.015c1.377,0,4.564-3.406,4.564-4.154c0-0.193-0.121-0.266-0.289-0.266
		c-0.17,0-0.387,0.097-0.508,0.169c-1.618,1.11-3.236,2.584-4.348,3.937C93.449,16.99,93.715,17.015,93.836,17.015z"/>
	<path fill="none" d="M202.453,13.778c0-0.17-0.145-0.314-0.387-0.314c-0.266,0-1.183,0.531-1.859,0.99
		c-1.425,0.99-2.464,1.908-3.575,3.092c-0.797,0.846-1.739,1.908-1.739,2.488c0,0.193,0.218,0.387,0.339,0.387
		c0.072,0,0.145-0.024,0.241-0.073c1.787-0.869,6.812-6.159,6.933-6.4C202.43,13.898,202.453,13.826,202.453,13.778z"/>
	<path fill="none" d="M220.668,6.097c-0.362,0-6.28,4.541-9.951,8.744c0.023,0.072,0.072,0.145,0.169,0.145
		c0.579,0,10.12-7.294,10.12-8.502C221.006,6.193,220.909,6.097,220.668,6.097z"/>
	<path fill="none" d="M168.802,18.995c0,0.338,0.362,0.677,0.652,0.677c0.82,0,2.777-1.329,3.261-1.691
		c1.014-0.772,1.835-1.763,1.835-2.102c0-0.266-0.217-0.482-0.217-0.966c0-0.313,0.313-0.918,0.772-1.305
		C172.256,14.623,168.825,17.474,168.802,18.995z"/>
	<path fill="#4B3F3A" d="M108.475,11.628c2.295-0.145,4.711-0.411,4.711-0.869c0-0.314-0.17-0.628-0.531-1.039
		c-0.387-0.435-0.701-0.604-1.474-0.628c0.628-0.556,1.062-0.942,1.062-1.087c0-0.072-0.024-0.145-0.072-0.217
		c-0.362-0.531-1.257-1.715-1.497-1.715c-0.17,0-0.557,0.386-4.228,3.84c-0.821,0.121-1.716,0.193-2.657,0.193
		c-0.869,0-1.159-0.242-1.4-0.242c-0.121,0-0.146,0.097-0.146,0.193c0,1.184,0.628,1.667,2.222,1.691
		c-3.031,2.847-4.709,4.564-5.449,5.811c-1.158,0.734-2.815,1.655-4.986,2.45c-0.291,0.097-0.822,0.241-1.256,0.241
		c-0.75,0-0.943-0.507-0.943-0.894c0-0.435,0.266-1.038,0.725-1.739c0.532,0.556,1.257,0.846,1.764,0.846
		c1.812,0,5.797-3.285,5.797-5.604c0-0.314-0.072-0.725-0.941-1.522c-0.604-0.676-1.28-1.184-1.787-1.184
		c-0.918,0-2.392,0.773-4.324,2.512c-1.328,1.191-2.605,2.519-3.253,4c-2.011,1.655-5.217,3.923-7.039,3.923
		c-0.411,0-0.845-0.121-0.845-0.701c0-1.014,0.725-2.343,1.859-3.792c0.29,0.435,0.508,0.556,0.894,0.556
		c1.063,0,9.203-5.556,11.884-8.623c0.411-0.483,0.797-0.966,0.797-1.594c0-1.111-1.594-2.488-3.043-2.488
		c-1.135,0-2.922,1.232-4.131,2.053c-4.348,2.995-10.652,9.203-10.652,12.729c0,1.787,1.329,3.333,3.044,3.333
		c2.183,0,5.026-1.808,6.81-3.305c0.198,1.049,2.325,3.305,3.338,3.305c2.09,0,4.196-1.317,5.875-2.739
		c0.239,0.949,1.289,2.498,2.267,2.498c0.918,0,2.149-0.556,3.02-1.184c3.503-2.464,4.372-3.599,4.372-3.961
		c0-0.314-0.242-0.677-0.41-0.677c-0.266,0-0.436,0.121-0.652,0.338c-3.02,2.778-4.59,3.188-5.098,3.188
		c-0.313,0-0.41-0.12-0.41-0.313C101.688,18.198,105.432,14.503,108.475,11.628z M97.604,12.764
		c0.121-0.072,0.338-0.169,0.508-0.169c0.168,0,0.289,0.072,0.289,0.266c0,0.748-3.188,4.154-4.564,4.154
		c-0.121,0-0.387-0.024-0.58-0.314C94.367,15.348,95.985,13.874,97.604,12.764z M94.775,6.097c0.242,0,0.338,0.097,0.338,0.387
		c0,1.208-9.541,8.502-10.121,8.502c-0.096,0-0.145-0.072-0.168-0.145C88.495,10.638,94.413,6.097,94.775,6.097z"/>
	<path fill="#4B3F3A" d="M115.119,6.169c0.266,0,0.531-0.266,0.822-0.676l1.738-2.512c0.314-0.459,0.797-1.208,0.797-1.643
		c0-0.435-0.459-0.894-0.845-0.894c-0.507,0-1.305,1.208-1.595,1.667c-1.69,2.705-1.812,2.729-1.812,2.995
		C114.226,5.42,114.66,6.169,115.119,6.169z"/>
	<path fill="#4B3F3A" d="M120.458,10.179c-0.458,0-2.777,3.623-6.184,6.039c-0.097-0.218-0.241-0.362-0.435-0.362
		c-0.725,0-1.474,1.087-1.474,1.715c0,1.231,2.077,4.082,3.769,4.082c2.053,0,3.695-1.618,4.131-2.488
		c0.507-1.015,0.725-2.512,0.893-3.768c0.146-1.015,0.967-2.947,1.57-3.551c0.049-0.048,0.072-0.121,0.072-0.169
		c0-0.072-0.048-0.169-0.12-0.217C122.148,11.073,121.184,10.179,120.458,10.179z M117.825,17.208
		c-0.483,1.28-1.159,2.464-1.835,2.464c-0.652,0-1.209-0.918-1.475-1.933c0.846-0.58,2.682-2.077,3.744-3.14
		c0.146-0.146,0.242-0.218,0.29-0.218s0.048,0.048,0.048,0.121C118.598,14.865,118.115,16.435,117.825,17.208z"/>
	<path fill="#4B3F3A" d="M140.316,14.092c0-0.604-0.459-1.111-1.087-1.691c-0.507-0.482-1.208-0.869-2.077-0.869
		c3.72-3.72,6.836-5.749,7.777-7.005c0.097-0.121,0.145-0.29,0.145-0.362c0-0.652-1.231-1.908-1.473-1.908
		c-0.218,0-0.387,0.145-0.629,0.362c-1.328,1.135-2.85,2.488-6.642,6.232c-2.923,2.874-4.614,4.517-5.918,6.739
		c-0.459,0.797-0.991,1.884-0.991,2.923c0,0.41,0,0.894,0.846,1.812c1.016,1.11,1.715,1.738,2.705,1.738
		c2.561,0,6.209-4.686,7.102-6.859C140.195,14.913,140.316,14.454,140.316,14.092z M133.891,18.682
		c-0.797,0.676-1.207,0.894-1.594,0.894c-0.314,0-0.362-0.266-0.362-0.483c0-1.425,4.106-6.4,5.604-6.4
		c0.217,0,0.459,0.12,0.459,0.386C137.949,14.357,135.172,17.595,133.891,18.682z"/>
	<path fill="#4B3F3A" d="M151.622,16.241c-0.217,0-2.536,2.15-6.956,3.769c-0.29,0.097-0.821,0.241-1.256,0.241
		c-0.749,0-0.942-0.507-0.942-0.894c0-0.435,0.266-1.038,0.725-1.739c0.532,0.556,1.257,0.846,1.764,0.846
		c1.812,0,5.797-3.285,5.797-5.604c0-0.314-0.072-0.725-0.942-1.522c-0.604-0.676-1.279-1.184-1.787-1.184
		c-0.918,0-2.391,0.773-4.324,2.512c-1.883,1.69-3.695,3.647-3.695,5.941c0,0.967,2.295,3.454,3.357,3.454
		c2.367,0,4.759-1.69,6.521-3.309c0.99-0.894,1.957-2.005,1.957-2.271C151.84,16.387,151.815,16.241,151.622,16.241z M148.24,12.764
		c0.121-0.072,0.339-0.169,0.508-0.169s0.29,0.072,0.29,0.266c0,0.748-3.188,4.154-4.565,4.154c-0.121,0-0.387-0.024-0.58-0.314
		C145.004,15.348,146.623,13.874,148.24,12.764z"/>
	<path fill="#4B3F3A" d="M167.061,11.676c0-0.072-0.048-0.169-0.12-0.217c-0.531-0.386-1.498-1.28-2.223-1.28
		c-0.459,0-2.777,3.623-6.184,6.039c-0.097-0.218-0.241-0.362-0.435-0.362c-0.725,0-1.474,1.087-1.474,1.715
		c0,1.231,2.077,4.082,3.769,4.082c2.053,0,3.695-1.618,4.13-2.488c0.508-1.015,0.725-2.512,0.895-3.768
		c0.145-1.015,0.966-2.947,1.569-3.551C167.037,11.797,167.061,11.725,167.061,11.676z M162.085,17.208
		c-0.483,1.28-1.159,2.464-1.836,2.464c-0.651,0-1.207-0.918-1.473-1.933c0.845-0.58,2.681-2.077,3.743-3.14
		c0.146-0.146,0.242-0.218,0.29-0.218c0.049,0,0.049,0.048,0.049,0.121C162.858,14.865,162.375,16.435,162.085,17.208z"/>
	<path fill="#4B3F3A" d="M174.985,10.614c-0.436,0-1.039,0.072-1.788,0.411c-2.705,1.256-6.521,3.841-6.521,6.4
		c0,1.546,1.812,3.382,2.488,3.938c0.29,0.242,0.845,0.314,1.231,0.314c2.536,0,5.821-3.044,6.667-5.146
		c0.169-0.435,0.217-0.941,0.217-1.4c0-0.798-0.217-1.619-0.894-1.836c0.193-0.024,0.362-0.049,0.531-0.049
		c0.242,0,0.436-0.023,0.436-0.169c0-0.169-0.266-0.869-0.773-1.473C175.976,10.903,175.686,10.614,174.985,10.614z M174.55,15.879
		c0,0.339-0.821,1.329-1.835,2.102c-0.483,0.362-2.44,1.691-3.261,1.691c-0.29,0-0.652-0.339-0.652-0.677
		c0.023-1.521,3.454-4.372,6.304-5.387c-0.459,0.387-0.772,0.991-0.772,1.305C174.333,15.396,174.55,15.613,174.55,15.879z"/>
	<path fill="#4B3F3A" d="M196.655,10.879c0.918,0,1.98-1.546,1.98-2.125c0-0.966-0.941-1.619-1.353-1.619
		c-0.459,0-2.005,0.628-2.005,2.078C195.278,10.082,196.196,10.879,196.655,10.879z"/>
	<path fill="#4B3F3A" d="M220.209,3.947c-1.135,0-2.923,1.232-4.13,2.053c-3.504,2.414-8.272,6.912-9.994,10.413
		c-0.021,0.015-0.04,0.029-0.057,0.046c-2.319,2.439-4.831,3.695-5.049,3.695c-0.145,0-0.241-0.097-0.241-0.217
		c0-0.749,3.164-4.059,5.362-5.58c0.024-0.024,0.097-0.072,0.097-0.145c0-0.218-0.99-0.967-2.222-1.474
		c-0.798-0.773-1.667-1.884-2.706-1.884c-1.477,0-6.802,4-8.189,6.564c-0.238,0.194-0.479,0.395-0.676,0.538
		c-1.957,1.425-3.31,2.149-3.865,2.149c-0.12,0-0.145-0.072-0.145-0.145c0-0.411,1.087-1.57,6.232-6.546
		c0.145-0.146,0.169-0.29,0.169-0.362c0-0.411-1.715-1.86-1.908-1.86c-0.097,0-0.193,0-0.387,0.145
		c-0.424,0.31-3.273,2.927-5.086,5.244c-2.198,1.558-5.499,3.113-7.162,3.113c-0.459,0-0.749-0.12-0.749-0.531
		c0-0.821,0.677-1.594,2.005-2.85c1.136-1.087,2.149-1.981,2.633-1.981c0.024,0.895,0.604,1.788,1.159,1.788
		c0.411,0,1.16-0.87,1.449-1.159c0.749-0.773,1.401-1.498,1.401-1.957c0-0.338-0.459-0.677-0.894-1.111
		c-0.821-0.846-1.305-0.991-1.739-0.991c-1.184,0-3.695,1.329-5.942,3.575c-0.99,0.99-1.618,1.836-1.618,3.309
		c0,1.595,1.136,3.721,1.933,3.938c0.266,0.072,0.556,0.097,0.821,0.097c1.288,0,3.461-1.24,5.229-2.617
		c-0.013,0.076-0.035,0.157-0.035,0.226c0,1.208,0.87,2.416,2.247,2.416c0.896,0,3.128-1.393,4.679-2.6
		c0.122,0.484,0.357,0.869,0.611,1.344c0.459,0.845,1.015,1.4,1.764,1.4c0.846,0,1.859-0.797,3.647-2.415
		c0,1.328,0.821,2.246,1.836,2.246c1.082,0,3.31-1.638,4.743-3.02c0.035,1.756,1.345,3.261,3.036,3.261
		c3.431,0,8.503-4.468,8.503-5.169c0-0.482-0.314-0.748-0.459-0.748c-0.146,0-0.338,0.12-0.531,0.289
		c-1.981,1.667-5.411,4.155-7.319,4.155c-0.41,0-0.846-0.121-0.846-0.701c0-1.014,0.725-2.343,1.86-3.792
		c0.29,0.435,0.507,0.556,0.894,0.556c1.062,0,9.203-5.556,11.884-8.623c0.411-0.483,0.798-0.966,0.798-1.594
		C223.253,5.324,221.658,3.947,220.209,3.947z M195.473,20.348c-0.097,0.049-0.169,0.073-0.241,0.073
		c-0.121,0-0.339-0.193-0.339-0.387c0-0.58,0.942-1.643,1.739-2.488c1.111-1.184,2.15-2.102,3.575-3.092
		c0.677-0.459,1.594-0.99,1.859-0.99c0.242,0,0.387,0.145,0.387,0.314c0,0.048-0.023,0.12-0.048,0.169
		C202.284,14.188,197.26,19.479,195.473,20.348z M210.886,14.985c-0.097,0-0.146-0.072-0.169-0.145
		c3.671-4.203,9.589-8.744,9.951-8.744c0.241,0,0.338,0.097,0.338,0.387C221.006,7.691,211.465,14.985,210.886,14.985z"/>
</g>
<g>
	<rect x="332.75" y="8.919" fill="#CCC9C0" width="299.875" height="1.999"/>
	<rect x="332.75" y="10.92" fill="#FCFBF7" width="299.875" height="2"/>
	<rect x="332.75" y="15.927" fill="#CCC9C0" width="299.875" height="1.998"/>
	<rect x="332.75" y="17.927" fill="#FCFBF7" width="299.875" height="2"/>
</g>
</svg>
