<?xml version="1.0" encoding="utf-8"?>
<!-- Generator: Adobe Illustrator 16.0.0, SVG Export Plug-In . SVG Version: 6.00 Build 0)  -->
<!DOCTYPE svg PUBLIC "-//W3C//DTD SVG 1.1//EN" "http://www.w3.org/Graphics/SVG/1.1/DTD/svg11.dtd">
<svg version="1.1" id="Layer_1" xmlns="http://www.w3.org/2000/svg" xmlns:xlink="http://www.w3.org/1999/xlink" x="0px" y="0px"
	 width="335.806px" height="87.161px" viewBox="0 0 335.806 87.161" enable-background="new 0 0 335.806 87.161"
	 xml:space="preserve">
<g>
	
		<line fill="none" stroke="#524A43" stroke-width="0" stroke-linecap="round" stroke-linejoin="round" x1="137.242" y1="29.984" x2="137.234" y2="29.989"/>
	<g>
		<path fill="none" d="M326.553,51.836l-0.018-0.102l-0.008-0.104c-0.061-0.854-0.203-1.372-1.66-1.372
			c-1.707,0-3.927,0.867-4.636,1.2l-3.317,1.57l0.479-3.639c0.139-1.05,0.41-2.239,0.63-3.157c0.104-0.431,0.195-0.824,0.267-1.165
			c0.54-2.578,1.187-5.192,1.812-7.722c0.163-0.656,0.328-1.32,0.487-1.988l0.565-2.365l2.212,1.012
			c0.303,0.139,0.621,0.21,0.97,0.214c1.595,0,3.192-2.09,3.61-2.764c1.098-2.443,1.139-4.573,0.118-6.165
			c-0.63-0.98-1.568-1.675-2.871-2.124l-1.546-0.533l0.216-1.622c0.349-2.617-0.075-4.476-1.334-5.853
			c-0.935-1.022-2.275-1.584-3.775-1.584c-3.095,0-6.133,2.263-6.711,2.717c-0.575,0.452-0.965,0.967-1.304,1.416l-0.049,0.066
			c-0.104,0.143-0.209,0.278-0.311,0.39l-0.023,0.026l-0.024,0.025c-0.546,0.562-0.771,1.355-0.601,2.12l0.682,3.065l-3.066-0.679
			c-0.208-0.046-0.329-0.06-0.521-0.06c-0.464,0-0.911,0.135-1.292,0.389c-0.417,0.279-2.515,1.78-2.829,3.962
			c-0.099,0.688-0.132,1.332-0.098,1.912l0.195,3.289l-3.008-1.345c-1.307-0.584-2.78-0.88-4.379-0.88
			c-2.976,0-6.299,1.005-9.118,2.758c-1.132,0.705-2.22,1.572-3.145,2.51l-2.425,2.458l-0.926-3.326
			c-0.311-1.115-0.913-2.082-1.793-2.875c-1.414-1.278-3.44-1.953-5.859-1.953c-2.322,0-4.83,0.622-6.712,1.664
			c-1.335,0.739-3.309,2-5.127,3.813l-2.119,2.114l-1.142-2.767c-0.064-0.156-0.135-0.307-0.212-0.452
			c-0.832-1.564-2.384-2.498-4.149-2.498c-1.268,0-2.572,0.49-3.673,1.381c-0.325,0.263-0.64,0.565-0.933,0.897l-1.97,2.228
			l-1.321-2.664c-1.211-2.442-3.897-3.959-7.012-3.959c-0.251,0-0.502,0.011-0.746,0.032c-1.585,0.136-4.059,0.932-5.815,2.728
			l-1.553,1.588l-1.417-1.711c-1.423-1.717-3.679-2.702-6.191-2.702c-0.237,0-0.485,0.011-0.745,0.032
			c-0.665,0.058-1.397,0.217-2.116,0.461l-3.174,1.078l0.559-3.304c0.067-0.4,0.109-0.744,0.128-1.052
			c0.351-5.598-3.965-12.99-11.792-15.67c-2.345-0.802-4.919-1.225-7.443-1.225c-4.202,0-8.097,1.11-11.262,3.21
			c-1.586,1.053-3.132,2.453-4.354,3.941c-2.414,2.945-3.971,6.603-4.381,10.297c-0.548,4.937,1.6,9.245,3.531,12.446l3.517,5.83
			l-6.111-3.001c-2.678-1.315-5.675-2.01-8.666-2.01c-2.933,0-5.787,0.677-8.255,1.958c-1.475,0.765-1.991,1.265-2.406,1.666
			c-1.08,1.046-1.887,1.441-4.265,1.578c-0.1,0.006-0.193,0.007-0.284,0.007c-2.121,0-3.364-1.414-3.622-2.728l-0.121-0.617
			l0.254-0.575c0.285-0.645,2.713-6.41,0.311-10.123c-0.292-0.45-0.668-0.865-1.118-1.233l-2.664-2.179l3.212-1.236
			c2.602-1.001,4.35-3.537,4.35-6.309c0-3.731-3.034-6.767-6.764-6.767c-3.731,0-6.766,3.036-6.766,6.767
			c0,2.053,0.926,3.974,2.54,5.271l3.176,2.552l-3.962,0.952c-1.806,0.434-3.544,1.25-4.893,2.298l-0.623-0.729l0.542,0.787
			c-0.082,0.057-0.16,0.114-0.234,0.172l-1.366,1.055l-1.244-1.198c-0.85-0.818-1.948-1.369-3.264-1.639
			c-0.735-0.151-1.537-0.227-2.385-0.227c-2.123,0-4.611,0.492-6.826,1.35l-1.026,0.397l-0.885-0.654
			c-0.889-0.657-1.98-1.139-3.16-1.395c-0.929-0.203-2.021-0.31-3.158-0.31c-1.748,0-3.435,0.251-4.753,0.71
			c-0.494,0.17-0.983,0.355-1.456,0.55l-1.112,0.458l-0.925-0.768c-2.044-1.695-5.082-1.738-6.513-1.759h-0.114
			c-3.39,0-6.154,2.921-6.962,4.335l-1.385,2.428l-1.851-2.095c-1.786-2.022-4.344-3.091-7.397-3.091
			c-2.722,0-5.823,0.878-8.509,2.409l-5.38,3.067l2.57-5.635c0.568-1.245,0.91-2.587,0.99-3.882
			c0.351-5.599-3.965-12.991-11.794-15.669c-2.34-0.802-4.913-1.226-7.44-1.226c-4.205,0-8.099,1.11-11.263,3.212
			c-1.584,1.05-3.131,2.45-4.354,3.938c-2.415,2.946-3.97,6.604-4.38,10.298c-0.548,4.936,1.598,9.244,3.529,12.446l3.517,5.831
			l-6.111-3.003c-2.677-1.315-5.673-2.01-8.665-2.01c-2.933,0-5.788,0.677-8.255,1.957c-3.682,1.909-6.19,4.206-7.667,7.021
			c-3.112,5.936-2.908,14.062,0.497,19.762c3.322,5.559,9.35,8.835,17.919,9.737c2.485,0.264,4.964,0.396,7.366,0.396
			c6.296,0,12.055-0.886,17.118-2.633c5.678-1.958,9.917-5.809,12.957-11.771c0.356-0.7,0.664-1.445,0.914-2.215l0.922-2.838
			l2.274,1.932c2.171,1.844,4.868,2.778,8,2.778l0.214-0.002c3.077-0.039,6.58-0.784,9.373-1.995c0.304-0.131,0.6-0.271,0.887-0.413
			l1.177-0.578l1,0.849c0.202,0.172,0.428,0.338,0.662,0.49c1.702,1.091,3.637,1.691,5.447,1.691c0.64,0,1.27-0.076,1.873-0.227
			c2.14-0.533,2.893-1.352,3.272-1.921l1.649-2.473l1.669,2.458c0.604,0.89,1.47,1.561,2.571,1.993
			c1.228,0.48,2.672,0.581,3.668,0.581c1.146,0,5.038-0.173,6.996-2.387c0.045-0.053,0.098-0.115,0.152-0.185l1.466-1.907
			l1.607,1.789c1.273,1.417,3.118,2.158,5.463,2.201l0.212,0.002c2.191,0,4.334-0.696,6.367-2.07l1.276-0.862l1.16,1.014
			c1.568,1.37,3.7,2.188,5.702,2.188c0.945,0,1.811-0.185,2.574-0.55c1.926-0.918,3.521-2.083,4.739-3.464l2.984-3.379l0.503,4.48
			c0.326,2.907,1.203,5.623,2.535,7.854c3.321,5.559,9.35,8.834,17.919,9.736c2.47,0.263,4.948,0.396,7.364,0.396
			c6.298,0,12.058-0.885,17.117-2.631c5.68-1.959,9.919-5.811,12.959-11.775c0.39-0.763,0.718-1.574,0.977-2.411l0.89-2.873
			l2.306,1.931c1.899,1.59,4.545,2.573,7.107,2.631c0.061,0.003,0.122,0.003,0.184,0.003c0.019,0,0.038,0,0.057,0
			c2.284,0,4.479-0.654,6.708-1.999l1.125-0.68l1.069,0.764c1.759,1.254,4.073,1.917,6.692,1.917c5.012,0,10.557-2.361,13.185-5.616
			c0.756-0.936,1.43-1.951,2.062-3.104l1.969-3.593l1.622,3.762c0.572,1.327,1.357,2.568,2.332,3.686
			c2.757,3.154,6.75,4.964,10.956,4.964c2.97,0,5.938-0.918,8.586-2.656l1.431-0.938l1.366-0.893l1.148,1.16
			c2.029,2.048,4.941,3.087,8.643,3.087l0.285-0.002c3.078-0.039,6.58-0.784,9.371-1.994c1.014-0.439,2.017-0.985,3.066-1.67
			l1.506-0.981l1.136,1.394c1.69,2.071,4.396,3.213,7.62,3.213c4.38,0,8.874-1.982,11.448-5.05
			C326.262,56.734,326.98,54.261,326.553,51.836z"/>
		<path fill="#E2EAEC" d="M334.271,35.47c2.898-6.331,1.048-10.839-0.313-12.961c-0.799-1.246-1.81-2.314-3.012-3.185
			c-0.205-3.101-1.295-5.751-3.248-7.891c-2.279-2.491-5.455-3.862-8.944-3.862c-5.122,0-9.427,2.948-11.04,4.215
			c-1.29,1.016-2.119,2.114-2.564,2.704l-0.057,0.074c-0.736,0.812-1.325,1.75-1.736,2.758c-0.598,0.239-1.17,0.541-1.712,0.902
			c-1.119,0.748-3.606,2.673-5.001,5.797c-0.408-0.026-0.818-0.039-1.229-0.039c-4.106,0-8.615,1.303-12.439,3.584
			c-0.09-0.086-0.182-0.171-0.274-0.255c-2.724-2.458-6.373-3.758-10.552-3.758c-3.505,0-7.188,0.926-10.104,2.542
			c-0.85,0.47-1.684,0.983-2.491,1.535c-1.968-1.428-4.352-2.2-6.866-2.2c-1.798,0-3.595,0.407-5.272,1.188
			c-2.635-2.142-6.002-3.306-9.636-3.306c-0.429,0-0.878,0.019-1.334,0.057c-2.207,0.189-4.463,0.886-6.481,1.988
			c-1.96-1.163-4.186-1.86-6.55-2.053c-0.637-3.461-2.212-6.829-4.61-9.831c-3.025-3.785-7.261-6.812-11.622-8.303
			c-3.056-1.047-6.413-1.602-9.709-1.602c-5.588,0-10.821,1.515-15.135,4.38c-2.147,1.422-4.242,3.316-5.896,5.333
			c-3.265,3.986-5.369,8.946-5.926,13.967c-0.255,2.307-0.125,4.67,0.386,7.056c-0.386-0.017-0.771-0.026-1.154-0.026
			c-3.606,0-7.148,0.753-10.325,2.186c-0.005-2.001-0.348-3.875-1.02-5.566c2.393-2.551,3.74-5.903,3.74-9.406
			c0-7.593-6.176-13.77-13.768-13.77c-7.593,0-13.77,6.177-13.77,13.77c0,0.999,0.11,1.995,0.325,2.968
			c-0.407-0.12-0.822-0.223-1.246-0.31c-1.196-0.246-2.472-0.371-3.789-0.371c-2.23,0-4.626,0.354-6.979,1.026
			c-1.08-0.515-2.23-0.906-3.428-1.167c-1.415-0.308-3.022-0.471-4.648-0.471c-2.242,0-4.48,0.312-6.384,0.884
			c-3.314-1.621-6.764-1.668-8.305-1.69h-0.185c-4.104,0-7.322,1.929-9.323,3.577c-2.458-1.313-5.287-2.002-8.271-2.002
			c-1.117,0-2.257,0.093-3.41,0.277c-0.423-3.948-2.091-7.886-4.823-11.306c-3.023-3.783-7.258-6.81-11.62-8.304
			c-3.061-1.048-6.418-1.602-9.71-1.602c-5.586,0-10.82,1.515-15.136,4.38c-2.15,1.426-4.245,3.32-5.896,5.332
			c-3.264,3.983-5.368,8.943-5.925,13.968c-0.256,2.305-0.126,4.668,0.386,7.057c-0.385-0.018-0.771-0.026-1.154-0.026
			c-4.051,0-8.021,0.949-11.481,2.745c-5,2.595-8.481,5.861-10.644,9.985c-4.184,7.98-3.902,18.921,0.686,26.608
			c4.515,7.554,12.32,11.965,23.198,13.11c2.711,0.288,5.438,0.435,8.101,0.435c7.072,0,13.599-1.014,19.401-3.014
			c6.729-2.32,11.875-6.577,15.686-12.984c2.21,0.83,4.595,1.25,7.115,1.25l0.253-0.001c3.472-0.043,7.277-0.757,10.604-1.975
			c2.484,1.307,5.249,2.019,7.885,2.019c1.216,0,2.416-0.146,3.564-0.432c1.123-0.279,2.155-0.649,3.083-1.105
			c0.582,0.34,1.195,0.636,1.833,0.887c2.248,0.879,4.624,1.063,6.222,1.063c1.975,0,5.578-0.287,8.848-2.075
			c1.983,1.008,4.241,1.54,6.728,1.586h0.018h0.035l0.228,0.002c2.494,0,4.93-0.526,7.268-1.567c2.262,1.191,4.807,1.84,7.276,1.84
			c1.995,0,3.876-0.414,5.589-1.232c0.089-0.042,0.178-0.085,0.267-0.129c0.431,1.012,0.921,1.978,1.466,2.89
			c4.513,7.553,12.317,11.963,23.196,13.11c2.729,0.287,5.454,0.433,8.101,0.433c7.078,0,13.606-1.015,19.402-3.016
			c6.816-2.35,12.014-6.689,15.838-13.239c1.913,0.694,3.931,1.08,5.923,1.126c0.158,0.003,0.296,0.004,0.433,0.004
			c2.59,0,5.154-0.544,7.638-1.618c2.378,1.062,5.107,1.62,7.957,1.62c6.252,0,12.598-2.415,16.807-6.281
			c4.028,4.068,9.539,6.378,15.318,6.378c3.729,0,7.445-0.978,10.826-2.838c2.894,1.725,6.372,2.598,10.361,2.598l0.327-0.002
			c3.977-0.048,8.496-1.008,12.102-2.569c0.235-0.102,0.471-0.209,0.705-0.319c2.75,1.869,6.123,2.851,9.837,2.851
			c6.364,0,12.963-2.965,16.812-7.554c3.029-3.606,4.307-8.023,3.601-12.442c-0.419-4.295-3.365-7.174-7.63-7.559
			c0.178-0.756,0.363-1.523,0.557-2.314C331.566,40.788,334.244,35.528,334.271,35.47z M324.528,59.802
			c-2.574,3.067-7.068,5.05-11.448,5.05c-3.224,0-5.93-1.142-7.62-3.213l-1.136-1.394l-1.506,0.981
			c-1.05,0.685-2.053,1.23-3.066,1.67c-2.791,1.21-6.293,1.955-9.371,1.994l-0.285,0.002c-3.701,0-6.613-1.039-8.643-3.087
			l-1.148-1.16l-1.366,0.893l-1.431,0.938c-2.647,1.738-5.616,2.656-8.586,2.656c-4.206,0-8.199-1.81-10.956-4.964
			c-0.975-1.117-1.76-2.358-2.332-3.686l-1.622-3.762l-1.969,3.593c-0.632,1.152-1.306,2.168-2.062,3.104
			c-2.628,3.255-8.173,5.616-13.185,5.616c-2.619,0-4.934-0.663-6.692-1.917l-1.069-0.764l-1.125,0.68
			c-2.229,1.345-4.424,1.999-6.708,1.999c-0.019,0-0.038,0-0.057,0c-0.062,0-0.123,0-0.184-0.003
			c-2.562-0.058-5.208-1.041-7.107-2.631l-2.306-1.931l-0.89,2.873c-0.259,0.837-0.587,1.648-0.977,2.411
			c-3.04,5.965-7.279,9.816-12.959,11.775c-5.06,1.746-10.819,2.631-17.117,2.631c-2.416,0-4.895-0.133-7.364-0.396
			c-8.569-0.902-14.598-4.178-17.919-9.736c-1.332-2.23-2.208-4.946-2.535-7.854l-0.503-4.48l-2.984,3.379
			c-1.219,1.381-2.813,2.546-4.739,3.464c-0.764,0.365-1.629,0.55-2.574,0.55c-2.001,0-4.133-0.818-5.702-2.188l-1.16-1.014
			l-1.276,0.862c-2.033,1.374-4.176,2.07-6.367,2.07l-0.212-0.002c-2.346-0.043-4.19-0.784-5.463-2.201l-1.607-1.789l-1.466,1.907
			c-0.054,0.069-0.106,0.132-0.152,0.185c-1.958,2.214-5.85,2.387-6.996,2.387c-0.996,0-2.44-0.101-3.668-0.581
			c-1.101-0.433-1.967-1.104-2.571-1.993l-1.669-2.458l-1.649,2.473c-0.379,0.569-1.132,1.388-3.272,1.921
			c-0.604,0.15-1.233,0.227-1.873,0.227c-1.811,0-3.745-0.601-5.447-1.691c-0.234-0.152-0.46-0.318-0.662-0.49l-1-0.849
			l-1.177,0.578c-0.287,0.142-0.583,0.282-0.887,0.413c-2.792,1.211-6.295,1.956-9.373,1.995l-0.214,0.002
			c-3.131,0-5.829-0.935-8-2.778l-2.274-1.932l-0.922,2.838c-0.25,0.77-0.558,1.515-0.914,2.215
			c-3.04,5.962-7.278,9.812-12.957,11.771c-5.062,1.747-10.821,2.633-17.118,2.633c-2.402,0-4.881-0.133-7.366-0.396
			c-8.569-0.902-14.597-4.179-17.919-9.737c-3.404-5.7-3.609-13.826-0.497-19.762c1.477-2.815,3.985-5.112,7.667-7.021
			c2.467-1.28,5.322-1.957,8.255-1.957c2.992,0,5.988,0.695,8.665,2.01l6.111,3.003l-3.517-5.831
			c-1.931-3.202-4.077-7.51-3.529-12.446c0.41-3.695,1.966-7.352,4.38-10.298c1.223-1.489,2.769-2.888,4.354-3.938
			c3.164-2.102,7.058-3.212,11.263-3.212c2.527,0,5.101,0.424,7.44,1.226c7.829,2.678,12.145,10.07,11.794,15.669
			c-0.08,1.295-0.422,2.638-0.99,3.882l-2.57,5.635l5.38-3.067c2.687-1.531,5.788-2.409,8.509-2.409
			c3.053,0,5.611,1.069,7.397,3.091l1.851,2.095l1.385-2.428c0.808-1.415,3.572-4.335,6.962-4.335h0.114
			c1.431,0.021,4.468,0.064,6.513,1.759l0.925,0.768l1.112-0.458c0.473-0.195,0.962-0.379,1.456-0.55
			c1.319-0.458,3.005-0.71,4.753-0.71c1.137,0,2.229,0.107,3.158,0.31c1.18,0.255,2.271,0.737,3.16,1.395l0.885,0.654l1.026-0.397
			c2.215-0.858,4.703-1.35,6.826-1.35c0.848,0,1.65,0.076,2.385,0.227c1.316,0.27,2.414,0.821,3.264,1.639l1.244,1.198l1.366-1.055
			c0.075-0.058,0.152-0.115,0.234-0.172l-0.542-0.787l0.623,0.729c1.349-1.048,3.087-1.864,4.893-2.298l3.962-0.952l-3.176-2.552
			c-1.614-1.297-2.54-3.218-2.54-5.271c0-3.731,3.035-6.767,6.766-6.767c3.73,0,6.764,3.036,6.764,6.767
			c0,2.772-1.748,5.308-4.35,6.309l-3.212,1.236l2.664,2.179c0.45,0.368,0.827,0.783,1.118,1.233
			c2.402,3.713-0.026,9.478-0.311,10.123l-0.254,0.575l0.121,0.617c0.257,1.314,1.501,2.728,3.622,2.728
			c0.091,0,0.185-0.001,0.284-0.007c2.378-0.137,3.185-0.532,4.265-1.578c0.415-0.401,0.931-0.901,2.406-1.666
			c2.468-1.281,5.323-1.958,8.255-1.958c2.991,0,5.988,0.695,8.666,2.01l6.111,3.001l-3.517-5.83
			c-1.932-3.201-4.079-7.509-3.531-12.446c0.41-3.695,1.967-7.352,4.381-10.297c1.222-1.488,2.768-2.888,4.354-3.941
			c3.165-2.1,7.06-3.21,11.262-3.21c2.524,0,5.099,0.423,7.443,1.225c7.827,2.68,12.143,10.072,11.792,15.67
			c-0.019,0.309-0.061,0.652-0.128,1.052l-0.559,3.304l3.174-1.078c0.719-0.244,1.451-0.404,2.116-0.461
			c0.26-0.021,0.508-0.032,0.745-0.032c2.513,0,4.769,0.985,6.191,2.702l1.417,1.711l1.553-1.588
			c1.757-1.796,4.23-2.592,5.815-2.728c0.244-0.021,0.495-0.032,0.746-0.032c3.114,0,5.801,1.517,7.012,3.959l1.321,2.664
			l1.97-2.228c0.293-0.333,0.607-0.634,0.933-0.897c1.101-0.891,2.405-1.381,3.673-1.381c1.766,0,3.317,0.934,4.149,2.498
			c0.077,0.145,0.147,0.295,0.212,0.452l1.142,2.767l2.119-2.114c1.818-1.813,3.792-3.075,5.127-3.813
			c1.882-1.042,4.39-1.664,6.712-1.664c2.419,0,4.445,0.675,5.859,1.953c0.88,0.793,1.482,1.76,1.793,2.875l0.926,3.326l2.425-2.458
			c0.925-0.938,2.013-1.805,3.145-2.51c2.819-1.753,6.143-2.758,9.118-2.758c1.599,0,3.072,0.296,4.379,0.88l3.008,1.345
			l-0.195-3.289c-0.034-0.58-0.001-1.224,0.098-1.912c0.314-2.182,2.412-3.683,2.829-3.962c0.381-0.254,0.828-0.389,1.292-0.389
			c0.192,0,0.313,0.014,0.521,0.06l3.066,0.679l-0.682-3.065c-0.17-0.765,0.055-1.557,0.601-2.12l0.024-0.025l0.023-0.026
			c0.102-0.111,0.206-0.247,0.311-0.39l0.049-0.066c0.339-0.448,0.729-0.963,1.304-1.416c0.578-0.454,3.616-2.717,6.711-2.717
			c1.5,0,2.841,0.562,3.775,1.584c1.259,1.376,1.683,3.236,1.334,5.853l-0.216,1.622l1.546,0.533
			c1.303,0.449,2.241,1.144,2.871,2.124c1.021,1.592,0.979,3.722-0.118,6.165c-0.418,0.673-2.016,2.764-3.61,2.764
			c-0.349-0.003-0.667-0.075-0.97-0.214l-2.212-1.012l-0.565,2.365c-0.159,0.668-0.324,1.333-0.487,1.988
			c-0.625,2.529-1.271,5.144-1.812,7.722c-0.071,0.341-0.163,0.734-0.267,1.164c-0.22,0.918-0.491,2.107-0.63,3.157l-0.479,3.639
			l3.317-1.57c0.709-0.333,2.929-1.2,4.636-1.2c1.457,0,1.6,0.519,1.66,1.372l0.008,0.104l0.018,0.102
			C326.98,55.262,326.262,57.735,324.528,59.802z"/>
	</g>
	<path fill="#FFFFFF" d="M325.845,21.276c0.341-2.556,0.137-5.305-1.841-7.466c-1.318-1.442-3.184-2.235-5.251-2.235
		c-3.664,0-7.009,2.408-7.946,3.144c-0.781,0.614-1.296,1.295-1.672,1.792c-0.083,0.111-0.161,0.224-0.239,0.311
		c-1.019,1.05-1.431,2.535-1.117,3.946c-0.326-0.072-0.596-0.107-0.954-0.107c-0.858,0-1.692,0.252-2.403,0.726
		c-0.76,0.508-3.272,2.39-3.697,5.34c-0.117,0.816-0.157,1.588-0.114,2.315c-1.551-0.693-3.305-1.055-5.195-1.055
		c-3.338,0-7.044,1.114-10.174,3.06c-1.274,0.792-2.492,1.769-3.513,2.804c-0.404-1.452-1.196-2.756-2.379-3.823
		c-1.789-1.616-4.278-2.469-7.2-2.469c-2.644,0-5.514,0.714-7.68,1.914c-1.484,0.821-3.607,2.189-5.571,4.147
		c-0.089-0.215-0.187-0.423-0.295-0.628c-1.186-2.228-3.396-3.558-5.915-3.558c-1.725,0-3.475,0.648-4.931,1.826
		c-0.427,0.345-0.817,0.725-1.174,1.128c-1.539-3.104-4.907-5.071-8.804-5.071c-0.308,0-0.612,0.013-0.917,0.039
		c-2.278,0.195-5.085,1.288-7.074,3.322c-1.771-2.138-4.579-3.427-7.731-3.427c-0.31,0-0.615,0.015-0.918,0.039
		c-0.815,0.071-1.698,0.259-2.587,0.561c0.071-0.422,0.127-0.844,0.152-1.26c0.506-8.082-6.285-15.34-13.142-17.688
		c-2.547-0.871-5.343-1.333-8.09-1.333c-4.599,0-8.876,1.227-12.368,3.544c-1.746,1.16-3.448,2.7-4.794,4.339
		c-2.658,3.243-4.369,7.272-4.822,11.345c-0.574,5.182,1.425,9.751,3.807,13.699c-2.907-1.428-6.188-2.215-9.548-2.215
		c-3.252,0-6.425,0.754-9.176,2.182c-4.059,2.104-2.27,2.816-5.864,3.023c-0.06,0.003-0.115,0.003-0.17,0.003
		c-1.441,0-1.659-1.113-1.659-1.113c0.538-1.218,3.069-7.521,0.16-12.018c-0.426-0.657-0.947-1.217-1.531-1.694
		c3.288-1.265,5.631-4.448,5.631-8.176c0-4.833-3.933-8.767-8.764-8.767c-4.833,0-8.766,3.934-8.766,8.767
		c0,2.76,1.286,5.222,3.287,6.83c-2.056,0.494-4.041,1.41-5.653,2.663c-0.002,0.001-0.005,0.003-0.007,0.005
		c0.002-0.002,0.005-0.004,0.007-0.005c0.008-0.007,0.013-0.011,0.012-0.011c-0.113,0.078-0.22,0.157-0.323,0.236
		c-0.948-0.913-2.311-1.761-4.25-2.158c-0.867-0.178-1.805-0.268-2.787-0.268c-2.374,0-5.098,0.536-7.548,1.484
		c-1.102-0.814-2.439-1.419-3.923-1.74c-1.073-0.234-2.313-0.355-3.584-0.355c-1.963,0-3.884,0.291-5.405,0.819
		c-0.541,0.187-1.063,0.384-1.565,0.591c-2.586-2.144-6.195-2.197-7.789-2.22c-0.021,0-0.092,0-0.114,0
		c-4.117,0-7.518,3.275-8.699,5.344c-2.153-2.438-5.27-3.767-8.896-3.767c-3.102,0-6.52,0.973-9.5,2.672
		c0.673-1.475,1.072-3.06,1.167-4.587c0.506-8.083-6.285-15.341-13.142-17.687c-2.546-0.873-5.343-1.334-8.089-1.334
		c-4.6,0-8.876,1.226-12.368,3.545c-1.747,1.159-3.449,2.699-4.795,4.338c-2.658,3.243-4.369,7.272-4.821,11.345
		c-0.575,5.181,1.423,9.751,3.805,13.7c-2.906-1.428-6.187-2.215-9.546-2.215c-3.253,0-6.425,0.754-9.176,2.182
		c-4.059,2.104-6.844,4.679-8.518,7.868c-3.418,6.519-3.191,15.45,0.551,21.717c3.662,6.127,10.197,9.728,19.425,10.7
		c2.549,0.27,5.098,0.407,7.577,0.407c6.519,0,12.498-0.923,17.77-2.742c6.192-2.135,10.8-6.308,14.087-12.754
		c0.414-0.812,0.756-1.649,1.034-2.504c2.51,2.132,5.691,3.254,9.312,3.254l0.222-0.002c3.33-0.042,7.121-0.85,10.142-2.159
		c0.334-0.145,0.659-0.299,0.975-0.454c0.265,0.225,0.556,0.441,0.877,0.649c2.019,1.294,4.336,2.008,6.526,2.008
		c0.806,0,1.597-0.097,2.356-0.286c2.27-0.565,3.622-1.507,4.453-2.752c1.014,1.493,2.396,2.299,3.497,2.731
		c1.518,0.594,3.229,0.719,4.396,0.719c1.74,0,6.052-0.301,8.504-3.073c0.069-0.079,0.148-0.174,0.229-0.279
		c1.198,1.334,3.331,2.798,6.934,2.864l0.229,0.002c2.598,0,5.149-0.834,7.487-2.413c1.868,1.632,4.469,2.683,7.018,2.683
		c1.245,0,2.401-0.25,3.435-0.744c2.195-1.047,4.005-2.392,5.377-3.945c0.348,3.099,1.278,6.1,2.806,8.657
		c3.661,6.126,10.197,9.728,19.425,10.699c2.549,0.271,5.099,0.406,7.575,0.406c6.519,0,12.499-0.922,17.77-2.74
		c6.192-2.136,10.802-6.31,14.088-12.757c0.45-0.882,0.817-1.795,1.106-2.729c2.356,1.973,5.453,3.032,8.316,3.097
		c0.104,0.004,0.211,0.004,0.315,0.004c3.057,0,5.646-1.022,7.741-2.287c2.083,1.485,4.774,2.289,7.854,2.289
		c5.655,0,11.718-2.616,14.74-6.359c0.869-1.076,1.611-2.216,2.26-3.399c0.651,1.511,1.543,2.926,2.663,4.21
		c3.137,3.589,7.678,5.647,12.462,5.647c3.362,0,6.71-1.032,9.682-2.983c0,0,1.26-0.825,1.429-0.936
		c2.421,2.444,5.791,3.68,10.077,3.68l0.297-0.002c3.33-0.042,7.121-0.85,10.141-2.159c1.215-0.526,2.331-1.156,3.363-1.829
		c2.042,2.504,5.274,3.949,9.17,3.949c4.945,0,10.042-2.263,12.98-5.765c2.121-2.528,2.994-5.58,2.462-8.598
		c-0.179-2.503-1.815-3.229-3.655-3.229c-2.55,0-5.491,1.393-5.491,1.393c0.138-1.047,0.443-2.334,0.592-2.951
		c0.108-0.452,0.204-0.865,0.278-1.22c0.532-2.538,1.175-5.138,1.796-7.651c0.164-0.661,0.33-1.331,0.491-2.004
		c0.54,0.247,1.135,0.388,1.756,0.395c0.016,0,0.032,0,0.046,0c3.126,0,5.368-3.794,5.386-3.837
		c1.816-3.958,1.016-6.628,0.025-8.172C328.75,22.659,327.3,21.778,325.845,21.276z"/>
</g>
<g>
	
		<line fill="none" stroke="#524A43" stroke-width="0" stroke-linecap="round" stroke-linejoin="round" x1="137.242" y1="27.982" x2="137.234" y2="27.987"/>
	<g>
		<path fill="none" d="M326.553,49.834l-0.018-0.102l-0.008-0.104c-0.061-0.854-0.203-1.372-1.66-1.372
			c-1.707,0-3.927,0.867-4.636,1.2l-3.317,1.57l0.479-3.639c0.139-1.049,0.41-2.239,0.63-3.157c0.104-0.431,0.195-0.824,0.267-1.165
			c0.54-2.578,1.187-5.192,1.812-7.722c0.163-0.656,0.328-1.32,0.487-1.988l0.565-2.365l2.212,1.012
			c0.303,0.139,0.621,0.21,0.97,0.214c1.595,0,3.192-2.09,3.61-2.764c1.098-2.443,1.139-4.573,0.118-6.165
			c-0.63-0.98-1.568-1.675-2.871-2.124l-1.546-0.533l0.216-1.622c0.349-2.617-0.075-4.476-1.334-5.853
			c-0.935-1.022-2.275-1.584-3.775-1.584c-3.095,0-6.133,2.263-6.711,2.717c-0.575,0.452-0.965,0.967-1.304,1.416l-0.049,0.066
			c-0.104,0.143-0.209,0.278-0.311,0.39l-0.023,0.026l-0.024,0.025c-0.546,0.562-0.771,1.355-0.601,2.12l0.682,3.065l-3.066-0.679
			c-0.208-0.046-0.329-0.06-0.521-0.06c-0.464,0-0.911,0.135-1.292,0.389c-0.417,0.279-2.515,1.78-2.829,3.962
			c-0.099,0.688-0.132,1.332-0.098,1.912l0.195,3.289l-3.008-1.345c-1.307-0.584-2.78-0.88-4.379-0.88
			c-2.976,0-6.299,1.005-9.118,2.758c-1.132,0.705-2.22,1.572-3.145,2.51l-2.425,2.458l-0.926-3.326
			c-0.311-1.115-0.913-2.082-1.793-2.875c-1.414-1.278-3.44-1.953-5.859-1.953c-2.322,0-4.83,0.622-6.712,1.664
			c-1.335,0.739-3.309,2-5.127,3.813l-2.119,2.114l-1.142-2.767c-0.064-0.156-0.135-0.307-0.212-0.452
			c-0.832-1.564-2.384-2.498-4.149-2.498c-1.268,0-2.572,0.49-3.673,1.381c-0.325,0.263-0.64,0.565-0.933,0.897l-1.97,2.228
			l-1.321-2.664c-1.211-2.442-3.897-3.959-7.012-3.959c-0.251,0-0.502,0.011-0.746,0.032c-1.585,0.136-4.059,0.932-5.815,2.728
			l-1.553,1.588l-1.417-1.711c-1.423-1.717-3.679-2.702-6.191-2.702c-0.237,0-0.485,0.011-0.745,0.032
			c-0.665,0.058-1.397,0.217-2.116,0.461l-3.174,1.078l0.559-3.304c0.067-0.4,0.109-0.744,0.128-1.052
			c0.351-5.598-3.965-12.99-11.792-15.67c-2.345-0.802-4.919-1.225-7.443-1.225c-4.202,0-8.097,1.11-11.262,3.21
			c-1.586,1.053-3.132,2.453-4.354,3.941c-2.414,2.945-3.971,6.603-4.381,10.297c-0.548,4.937,1.6,9.245,3.531,12.446l3.517,5.83
			l-6.111-3.001c-2.678-1.315-5.675-2.01-8.666-2.01c-2.933,0-5.787,0.677-8.255,1.958c-1.475,0.765-1.991,1.265-2.406,1.666
			c-1.08,1.046-1.887,1.441-4.265,1.578c-0.1,0.006-0.193,0.007-0.284,0.007c-2.121,0-3.364-1.414-3.622-2.728l-0.121-0.617
			l0.254-0.575c0.285-0.645,2.713-6.41,0.311-10.123c-0.292-0.45-0.668-0.865-1.118-1.233l-2.664-2.179l3.212-1.236
			c2.602-1.001,4.35-3.537,4.35-6.309c0-3.731-3.034-6.767-6.764-6.767c-3.731,0-6.766,3.036-6.766,6.767
			c0,2.053,0.926,3.974,2.54,5.271l3.176,2.552l-3.962,0.952c-1.806,0.434-3.544,1.25-4.893,2.298l-0.623-0.729l0.542,0.787
			c-0.082,0.057-0.16,0.114-0.234,0.172l-1.366,1.055l-1.244-1.198c-0.85-0.818-1.948-1.369-3.264-1.639
			c-0.735-0.151-1.537-0.227-2.385-0.227c-2.123,0-4.611,0.492-6.826,1.35l-1.026,0.397l-0.885-0.654
			c-0.889-0.657-1.98-1.139-3.16-1.395c-0.929-0.203-2.021-0.31-3.158-0.31c-1.748,0-3.435,0.251-4.753,0.71
			c-0.494,0.17-0.983,0.355-1.456,0.55l-1.112,0.458l-0.925-0.768c-2.044-1.695-5.082-1.738-6.513-1.759h-0.114
			c-3.39,0-6.154,2.921-6.962,4.335l-1.385,2.428l-1.851-2.095c-1.786-2.022-4.344-3.091-7.397-3.091
			c-2.722,0-5.823,0.878-8.509,2.409l-5.38,3.067l2.57-5.635c0.568-1.245,0.91-2.587,0.99-3.882
			c0.351-5.599-3.965-12.991-11.794-15.669c-2.34-0.802-4.913-1.226-7.44-1.226c-4.205,0-8.099,1.11-11.263,3.212
			c-1.584,1.05-3.131,2.45-4.354,3.938c-2.415,2.946-3.97,6.604-4.38,10.298c-0.548,4.936,1.598,9.244,3.529,12.446l3.517,5.831
			l-6.111-3.003c-2.677-1.315-5.673-2.01-8.665-2.01c-2.933,0-5.788,0.677-8.255,1.957c-3.682,1.909-6.19,4.206-7.667,7.021
			C6.047,52.63,6.251,60.756,9.656,66.456c3.322,5.559,9.35,8.835,17.919,9.737c2.485,0.264,4.964,0.396,7.366,0.396
			c6.296,0,12.055-0.886,17.118-2.633c5.678-1.958,9.917-5.809,12.957-11.771c0.356-0.7,0.664-1.445,0.914-2.215l0.922-2.838
			l2.274,1.932c2.171,1.844,4.868,2.778,8,2.778l0.214-0.002c3.077-0.039,6.58-0.784,9.373-1.995c0.304-0.131,0.6-0.271,0.887-0.413
			l1.177-0.578l1,0.849c0.202,0.172,0.428,0.338,0.662,0.49c1.702,1.091,3.637,1.691,5.447,1.691c0.64,0,1.27-0.076,1.873-0.227
			c2.14-0.533,2.893-1.352,3.272-1.921l1.649-2.473l1.669,2.458c0.604,0.89,1.47,1.561,2.571,1.993
			c1.228,0.48,2.672,0.581,3.668,0.581c1.146,0,5.038-0.173,6.996-2.387c0.045-0.053,0.098-0.115,0.152-0.185l1.466-1.907
			l1.607,1.789c1.273,1.417,3.118,2.158,5.463,2.201l0.212,0.002c2.191,0,4.334-0.696,6.367-2.07l1.276-0.862l1.16,1.014
			c1.568,1.37,3.7,2.188,5.702,2.188c0.945,0,1.811-0.185,2.574-0.55c1.926-0.918,3.521-2.083,4.739-3.464l2.984-3.379l0.503,4.48
			c0.326,2.907,1.203,5.623,2.535,7.854c3.321,5.559,9.35,8.834,17.919,9.736c2.47,0.263,4.948,0.396,7.364,0.396
			c6.298,0,12.058-0.885,17.117-2.631c5.68-1.959,9.919-5.811,12.959-11.775c0.39-0.763,0.718-1.574,0.977-2.411l0.89-2.873
			l2.306,1.931c1.899,1.59,4.545,2.573,7.107,2.631c0.061,0.003,0.122,0.003,0.184,0.003c0.019,0,0.038,0,0.057,0
			c2.284,0,4.479-0.654,6.708-1.999l1.125-0.68l1.069,0.764c1.759,1.254,4.073,1.917,6.692,1.917c5.012,0,10.557-2.361,13.185-5.616
			c0.756-0.936,1.43-1.951,2.062-3.104l1.969-3.593l1.622,3.762c0.572,1.327,1.357,2.568,2.332,3.686
			c2.757,3.154,6.75,4.964,10.956,4.964c2.97,0,5.938-0.918,8.586-2.656l1.431-0.938l1.366-0.893l1.148,1.16
			c2.029,2.048,4.941,3.087,8.643,3.087l0.285-0.002c3.078-0.039,6.58-0.784,9.371-1.994c1.014-0.439,2.017-0.985,3.066-1.67
			l1.506-0.981l1.136,1.394c1.69,2.071,4.396,3.213,7.62,3.213c4.38,0,8.874-1.982,11.448-5.05
			C326.262,54.732,326.98,52.259,326.553,49.834z"/>
		<path fill="#497581" d="M334.271,32.467c2.898-6.331,1.048-10.839-0.313-12.961c-0.799-1.246-1.81-2.314-3.012-3.185
			c-0.205-3.101-1.295-5.751-3.248-7.891c-2.279-2.491-5.455-3.862-8.944-3.862c-5.122,0-9.427,2.948-11.04,4.215
			c-1.29,1.016-2.119,2.114-2.564,2.704l-0.057,0.074c-0.736,0.812-1.325,1.75-1.736,2.758c-0.598,0.239-1.17,0.541-1.712,0.902
			c-1.119,0.748-3.606,2.673-5.001,5.797c-0.408-0.026-0.818-0.039-1.229-0.039c-4.106,0-8.615,1.303-12.439,3.584
			c-0.09-0.086-0.182-0.171-0.274-0.255c-2.724-2.458-6.373-3.758-10.552-3.758c-3.505,0-7.188,0.926-10.104,2.542
			c-0.85,0.47-1.684,0.983-2.491,1.535c-1.968-1.428-4.352-2.2-6.866-2.2c-1.798,0-3.595,0.407-5.272,1.188
			c-2.635-2.142-6.002-3.306-9.636-3.306c-0.429,0-0.878,0.019-1.334,0.057c-2.207,0.189-4.463,0.886-6.481,1.988
			c-1.96-1.163-4.186-1.86-6.55-2.053c-0.637-3.461-2.212-6.829-4.61-9.831c-3.025-3.785-7.261-6.812-11.622-8.303
			c-3.056-1.047-6.413-1.602-9.709-1.602c-5.588,0-10.821,1.515-15.135,4.38c-2.147,1.422-4.242,3.316-5.896,5.333
			c-3.265,3.986-5.369,8.946-5.926,13.967c-0.255,2.307-0.125,4.67,0.386,7.056c-0.386-0.017-0.771-0.026-1.154-0.026
			c-3.606,0-7.148,0.753-10.325,2.186c-0.005-2.001-0.348-3.875-1.02-5.566c2.393-2.551,3.74-5.903,3.74-9.406
			c0-7.593-6.176-13.77-13.768-13.77c-7.593,0-13.77,6.177-13.77,13.77c0,0.999,0.11,1.995,0.325,2.968
			c-0.407-0.12-0.822-0.223-1.246-0.31c-1.196-0.246-2.472-0.371-3.789-0.371c-2.23,0-4.626,0.354-6.979,1.026
			c-1.08-0.515-2.23-0.906-3.428-1.167c-1.415-0.308-3.022-0.471-4.648-0.471c-2.242,0-4.48,0.312-6.384,0.884
			c-3.314-1.621-6.764-1.668-8.305-1.69h-0.185c-4.104,0-7.322,1.929-9.323,3.577c-2.458-1.313-5.287-2.002-8.271-2.002
			c-1.117,0-2.257,0.093-3.41,0.277c-0.423-3.948-2.091-7.886-4.823-11.306c-3.023-3.783-7.258-6.81-11.62-8.304
			C59.457,0.554,56.099,0,52.807,0c-5.586,0-10.82,1.515-15.136,4.38c-2.15,1.426-4.245,3.32-5.896,5.332
			c-3.264,3.983-5.368,8.943-5.925,13.968c-0.256,2.305-0.126,4.668,0.386,7.057c-0.385-0.018-0.771-0.026-1.154-0.026
			c-4.051,0-8.021,0.949-11.481,2.745c-5,2.595-8.481,5.861-10.644,9.985c-4.184,7.98-3.902,18.921,0.686,26.608
			c4.515,7.554,12.32,11.965,23.198,13.11c2.711,0.288,5.438,0.435,8.101,0.435c7.072,0,13.599-1.014,19.401-3.014
			c6.729-2.32,11.875-6.577,15.686-12.984c2.21,0.83,4.595,1.25,7.115,1.25l0.253-0.001c3.472-0.043,7.277-0.757,10.604-1.975
			c2.484,1.307,5.249,2.019,7.885,2.019c1.216,0,2.416-0.146,3.564-0.432c1.123-0.279,2.155-0.649,3.083-1.105
			c0.582,0.34,1.195,0.636,1.833,0.887c2.248,0.879,4.624,1.063,6.222,1.063c1.975,0,5.578-0.287,8.848-2.075
			c1.983,1.008,4.241,1.54,6.728,1.586h0.018h0.035l0.228,0.002c2.494,0,4.93-0.526,7.268-1.567c2.262,1.191,4.807,1.84,7.276,1.84
			c1.995,0,3.876-0.414,5.589-1.232c0.089-0.042,0.178-0.085,0.267-0.129c0.431,1.012,0.921,1.978,1.466,2.89
			c4.513,7.553,12.317,11.963,23.196,13.11c2.729,0.287,5.454,0.433,8.101,0.433c7.078,0,13.606-1.015,19.402-3.016
			c6.816-2.35,12.014-6.689,15.838-13.239c1.913,0.694,3.931,1.08,5.923,1.126c0.158,0.003,0.296,0.004,0.433,0.004
			c2.59,0,5.154-0.544,7.638-1.618c2.378,1.062,5.107,1.62,7.957,1.62c6.252,0,12.598-2.415,16.807-6.281
			c4.028,4.068,9.539,6.378,15.318,6.378c3.729,0,7.445-0.978,10.826-2.838c2.894,1.725,6.372,2.598,10.361,2.598l0.327-0.002
			c3.977-0.048,8.496-1.008,12.102-2.569c0.235-0.102,0.471-0.209,0.705-0.319c2.75,1.869,6.123,2.851,9.837,2.851
			c6.364,0,12.963-2.965,16.812-7.554c3.029-3.606,4.307-8.023,3.601-12.442c-0.419-4.295-3.365-7.174-7.63-7.559
			c0.178-0.756,0.363-1.523,0.557-2.314C331.566,37.785,334.244,32.525,334.271,32.467z M324.528,56.799
			c-2.574,3.067-7.068,5.05-11.448,5.05c-3.224,0-5.93-1.142-7.62-3.213l-1.136-1.394l-1.506,0.981
			c-1.05,0.685-2.053,1.23-3.066,1.67c-2.791,1.21-6.293,1.955-9.371,1.994l-0.285,0.002c-3.701,0-6.613-1.039-8.643-3.087
			l-1.148-1.16l-1.366,0.893l-1.431,0.938c-2.647,1.738-5.616,2.656-8.586,2.656c-4.206,0-8.199-1.81-10.956-4.964
			c-0.975-1.117-1.76-2.358-2.332-3.686l-1.622-3.762l-1.969,3.593c-0.632,1.152-1.306,2.168-2.062,3.104
			c-2.628,3.255-8.173,5.616-13.185,5.616c-2.619,0-4.934-0.663-6.692-1.917l-1.069-0.764l-1.125,0.68
			c-2.229,1.345-4.424,1.999-6.708,1.999c-0.019,0-0.038,0-0.057,0c-0.062,0-0.123,0-0.184-0.003
			c-2.562-0.058-5.208-1.041-7.107-2.631l-2.306-1.931l-0.89,2.873c-0.259,0.837-0.587,1.648-0.977,2.411
			c-3.04,5.965-7.279,9.816-12.959,11.775c-5.06,1.746-10.819,2.631-17.117,2.631c-2.416,0-4.895-0.133-7.364-0.396
			c-8.569-0.902-14.598-4.178-17.919-9.736c-1.332-2.23-2.208-4.946-2.535-7.854l-0.503-4.48l-2.984,3.379
			c-1.219,1.381-2.813,2.546-4.739,3.464c-0.764,0.365-1.629,0.55-2.574,0.55c-2.001,0-4.133-0.818-5.702-2.188l-1.16-1.014
			l-1.276,0.862c-2.033,1.374-4.176,2.07-6.367,2.07l-0.212-0.002c-2.346-0.043-4.19-0.784-5.463-2.201l-1.607-1.789l-1.466,1.907
			c-0.054,0.069-0.106,0.132-0.152,0.185c-1.958,2.214-5.85,2.387-6.996,2.387c-0.996,0-2.44-0.101-3.668-0.581
			c-1.101-0.433-1.967-1.104-2.571-1.993l-1.669-2.458l-1.649,2.473c-0.379,0.569-1.132,1.388-3.272,1.921
			c-0.604,0.15-1.233,0.227-1.873,0.227c-1.811,0-3.745-0.601-5.447-1.691c-0.234-0.152-0.46-0.318-0.662-0.49l-1-0.849
			l-1.177,0.578c-0.287,0.142-0.583,0.282-0.887,0.413c-2.792,1.211-6.295,1.956-9.373,1.995l-0.214,0.002
			c-3.131,0-5.829-0.935-8-2.778l-2.274-1.932l-0.922,2.838c-0.25,0.77-0.558,1.515-0.914,2.215
			c-3.04,5.962-7.278,9.812-12.957,11.771c-5.062,1.747-10.821,2.633-17.118,2.633c-2.402,0-4.881-0.133-7.366-0.396
			c-8.569-0.902-14.597-4.179-17.919-9.737c-3.404-5.7-3.609-13.826-0.497-19.762c1.477-2.815,3.985-5.112,7.667-7.021
			c2.467-1.28,5.322-1.957,8.255-1.957c2.992,0,5.988,0.695,8.665,2.01l6.111,3.003l-3.517-5.831
			c-1.931-3.202-4.077-7.51-3.529-12.446c0.41-3.695,1.966-7.352,4.38-10.298c1.223-1.489,2.769-2.888,4.354-3.938
			c3.164-2.102,7.058-3.212,11.263-3.212c2.527,0,5.101,0.424,7.44,1.226c7.829,2.678,12.145,10.07,11.794,15.669
			c-0.08,1.295-0.422,2.638-0.99,3.882l-2.57,5.635l5.38-3.067c2.687-1.531,5.788-2.409,8.509-2.409
			c3.053,0,5.611,1.069,7.397,3.091l1.851,2.095l1.385-2.428c0.808-1.415,3.572-4.335,6.962-4.335h0.114
			c1.431,0.021,4.468,0.064,6.513,1.759l0.925,0.768l1.112-0.458c0.473-0.195,0.962-0.379,1.456-0.55
			c1.319-0.458,3.005-0.71,4.753-0.71c1.137,0,2.229,0.107,3.158,0.31c1.18,0.255,2.271,0.737,3.16,1.395l0.885,0.654l1.026-0.397
			c2.215-0.858,4.703-1.35,6.826-1.35c0.848,0,1.65,0.076,2.385,0.227c1.316,0.27,2.414,0.821,3.264,1.639l1.244,1.198l1.366-1.055
			c0.075-0.058,0.152-0.115,0.234-0.172l-0.542-0.787l0.623,0.729c1.349-1.048,3.087-1.864,4.893-2.298l3.962-0.952l-3.176-2.552
			c-1.614-1.297-2.54-3.218-2.54-5.271c0-3.731,3.035-6.767,6.766-6.767c3.73,0,6.764,3.036,6.764,6.767
			c0,2.772-1.748,5.308-4.35,6.309l-3.212,1.236l2.664,2.179c0.45,0.368,0.827,0.783,1.118,1.233
			c2.402,3.713-0.026,9.478-0.311,10.123l-0.254,0.575l0.121,0.617c0.257,1.314,1.501,2.728,3.622,2.728
			c0.091,0,0.185-0.001,0.284-0.007c2.378-0.137,3.185-0.532,4.265-1.578c0.415-0.401,0.931-0.901,2.406-1.666
			c2.468-1.281,5.323-1.958,8.255-1.958c2.991,0,5.988,0.695,8.666,2.01l6.111,3.001l-3.517-5.83
			c-1.932-3.201-4.079-7.509-3.531-12.446c0.41-3.695,1.967-7.352,4.381-10.297c1.222-1.488,2.768-2.888,4.354-3.941
			c3.165-2.1,7.06-3.21,11.262-3.21c2.524,0,5.099,0.423,7.443,1.225c7.827,2.68,12.143,10.072,11.792,15.67
			c-0.019,0.309-0.061,0.652-0.128,1.052l-0.559,3.304l3.174-1.078c0.719-0.244,1.451-0.404,2.116-0.461
			c0.26-0.021,0.508-0.032,0.745-0.032c2.513,0,4.769,0.985,6.191,2.702l1.417,1.711l1.553-1.588
			c1.757-1.796,4.23-2.592,5.815-2.728c0.244-0.021,0.495-0.032,0.746-0.032c3.114,0,5.801,1.517,7.012,3.959l1.321,2.664
			l1.97-2.228c0.293-0.333,0.607-0.634,0.933-0.897c1.101-0.891,2.405-1.381,3.673-1.381c1.766,0,3.317,0.934,4.149,2.498
			c0.077,0.145,0.147,0.295,0.212,0.452l1.142,2.767l2.119-2.114c1.818-1.813,3.792-3.075,5.127-3.813
			c1.882-1.042,4.39-1.664,6.712-1.664c2.419,0,4.445,0.675,5.859,1.953c0.88,0.793,1.482,1.76,1.793,2.875l0.926,3.326l2.425-2.458
			c0.925-0.938,2.013-1.805,3.145-2.51c2.819-1.753,6.143-2.758,9.118-2.758c1.599,0,3.072,0.296,4.379,0.88l3.008,1.345
			l-0.195-3.289c-0.034-0.58-0.001-1.224,0.098-1.912c0.314-2.182,2.412-3.683,2.829-3.962c0.381-0.254,0.828-0.389,1.292-0.389
			c0.192,0,0.313,0.014,0.521,0.06l3.066,0.679l-0.682-3.065c-0.17-0.765,0.055-1.557,0.601-2.12l0.024-0.025l0.023-0.026
			c0.102-0.111,0.206-0.247,0.311-0.39l0.049-0.066c0.339-0.448,0.729-0.963,1.304-1.416c0.578-0.454,3.616-2.717,6.711-2.717
			c1.5,0,2.841,0.562,3.775,1.584c1.259,1.376,1.683,3.236,1.334,5.853l-0.216,1.622l1.546,0.533
			c1.303,0.449,2.241,1.144,2.871,2.124c1.021,1.592,0.979,3.722-0.118,6.165c-0.418,0.673-2.016,2.764-3.61,2.764
			c-0.349-0.003-0.667-0.075-0.97-0.214l-2.212-1.012l-0.565,2.365c-0.159,0.668-0.324,1.333-0.487,1.988
			c-0.625,2.529-1.271,5.144-1.812,7.722c-0.071,0.341-0.163,0.734-0.267,1.165c-0.22,0.918-0.491,2.107-0.63,3.157l-0.479,3.639
			l3.317-1.57c0.709-0.333,2.929-1.2,4.636-1.2c1.457,0,1.6,0.519,1.66,1.372l0.008,0.104l0.018,0.102
			C326.98,52.259,326.262,54.732,324.528,56.799z"/>
	</g>
	<path fill="#FFFFFF" d="M325.845,19.274c0.341-2.556,0.137-5.305-1.841-7.466c-1.318-1.442-3.184-2.235-5.251-2.235
		c-3.664,0-7.009,2.408-7.946,3.144c-0.781,0.614-1.296,1.295-1.672,1.792c-0.083,0.111-0.161,0.224-0.239,0.311
		c-1.019,1.05-1.431,2.535-1.117,3.946c-0.326-0.072-0.596-0.107-0.954-0.107c-0.858,0-1.692,0.252-2.403,0.726
		c-0.76,0.508-3.272,2.39-3.697,5.34c-0.117,0.816-0.157,1.588-0.114,2.315c-1.551-0.693-3.305-1.055-5.195-1.055
		c-3.338,0-7.044,1.114-10.174,3.06c-1.274,0.792-2.492,1.769-3.513,2.804c-0.404-1.452-1.196-2.756-2.379-3.823
		c-1.789-1.616-4.278-2.469-7.2-2.469c-2.644,0-5.514,0.714-7.68,1.914c-1.484,0.821-3.607,2.189-5.571,4.147
		c-0.089-0.215-0.187-0.423-0.295-0.628c-1.186-2.228-3.396-3.558-5.915-3.558c-1.725,0-3.475,0.648-4.931,1.826
		c-0.427,0.345-0.817,0.725-1.174,1.128c-1.539-3.104-4.907-5.071-8.804-5.071c-0.308,0-0.612,0.013-0.917,0.039
		c-2.278,0.195-5.085,1.288-7.074,3.322c-1.771-2.138-4.579-3.427-7.731-3.427c-0.31,0-0.615,0.015-0.918,0.039
		c-0.815,0.071-1.698,0.259-2.587,0.561c0.071-0.422,0.127-0.844,0.152-1.26c0.506-8.082-6.285-15.34-13.142-17.688
		c-2.547-0.871-5.343-1.333-8.09-1.333c-4.599,0-8.876,1.227-12.368,3.544c-1.746,1.16-3.448,2.7-4.794,4.339
		c-2.658,3.243-4.369,7.272-4.822,11.345c-0.574,5.182,1.425,9.751,3.807,13.699c-2.907-1.428-6.188-2.215-9.548-2.215
		c-3.252,0-6.425,0.754-9.176,2.182c-4.059,2.104-2.27,2.816-5.864,3.023c-0.06,0.003-0.115,0.003-0.17,0.003
		c-1.441,0-1.659-1.113-1.659-1.113c0.538-1.218,3.069-7.521,0.16-12.018c-0.426-0.657-0.947-1.217-1.531-1.694
		c3.288-1.265,5.631-4.448,5.631-8.176c0-4.833-3.933-8.767-8.764-8.767c-4.833,0-8.766,3.934-8.766,8.767
		c0,2.76,1.286,5.222,3.287,6.83c-2.056,0.494-4.041,1.41-5.653,2.663c-0.002,0.001-0.005,0.003-0.007,0.005
		c0.002-0.002,0.005-0.004,0.007-0.005c0.008-0.007,0.013-0.011,0.012-0.011c-0.113,0.078-0.22,0.157-0.323,0.236
		c-0.948-0.913-2.311-1.761-4.25-2.158c-0.867-0.178-1.805-0.268-2.787-0.268c-2.374,0-5.098,0.536-7.548,1.484
		c-1.102-0.814-2.439-1.419-3.923-1.74c-1.073-0.234-2.313-0.355-3.584-0.355c-1.963,0-3.884,0.291-5.405,0.819
		c-0.541,0.187-1.063,0.384-1.565,0.591c-2.586-2.144-6.195-2.197-7.789-2.22c-0.021,0-0.092,0-0.114,0
		c-4.117,0-7.518,3.275-8.699,5.344c-2.153-2.438-5.27-3.767-8.896-3.767c-3.102,0-6.52,0.973-9.5,2.672
		c0.673-1.475,1.072-3.06,1.167-4.587c0.506-8.083-6.285-15.341-13.142-17.687c-2.546-0.873-5.343-1.334-8.089-1.334
		c-4.6,0-8.876,1.226-12.368,3.545c-1.747,1.159-3.449,2.699-4.795,4.338c-2.658,3.243-4.369,7.272-4.821,11.345
		c-0.575,5.181,1.423,9.751,3.805,13.7c-2.906-1.428-6.187-2.215-9.546-2.215c-3.253,0-6.425,0.754-9.176,2.182
		c-4.059,2.104-6.844,4.679-8.518,7.868c-3.418,6.519-3.191,15.45,0.551,21.717c3.662,6.127,10.197,9.728,19.425,10.7
		c2.549,0.27,5.098,0.407,7.577,0.407c6.519,0,12.498-0.923,17.77-2.742c6.192-2.135,10.8-6.308,14.087-12.754
		c0.414-0.812,0.756-1.649,1.034-2.504c2.51,2.132,5.691,3.254,9.312,3.254l0.222-0.002c3.33-0.042,7.121-0.85,10.142-2.159
		c0.334-0.145,0.659-0.299,0.975-0.454c0.265,0.225,0.556,0.441,0.877,0.649c2.019,1.294,4.336,2.008,6.526,2.008
		c0.806,0,1.597-0.097,2.356-0.286c2.27-0.565,3.622-1.507,4.453-2.752c1.014,1.493,2.396,2.299,3.497,2.731
		c1.518,0.594,3.229,0.719,4.396,0.719c1.74,0,6.052-0.301,8.504-3.073c0.069-0.079,0.148-0.174,0.229-0.279
		c1.198,1.334,3.331,2.798,6.934,2.864l0.229,0.002c2.598,0,5.149-0.834,7.487-2.413c1.868,1.632,4.469,2.683,7.018,2.683
		c1.245,0,2.401-0.25,3.435-0.744c2.195-1.047,4.005-2.392,5.377-3.945c0.348,3.099,1.278,6.1,2.806,8.657
		c3.661,6.126,10.197,9.728,19.425,10.699c2.549,0.271,5.099,0.406,7.575,0.406c6.519,0,12.499-0.922,17.77-2.74
		c6.192-2.136,10.802-6.31,14.088-12.757c0.45-0.882,0.817-1.795,1.106-2.729c2.356,1.973,5.453,3.032,8.316,3.097
		c0.104,0.004,0.211,0.004,0.315,0.004c3.057,0,5.646-1.022,7.741-2.287c2.083,1.485,4.774,2.289,7.854,2.289
		c5.655,0,11.718-2.616,14.74-6.359c0.869-1.076,1.611-2.216,2.26-3.399c0.651,1.511,1.543,2.926,2.663,4.21
		c3.137,3.589,7.678,5.647,12.462,5.647c3.362,0,6.71-1.032,9.682-2.983c0,0,1.26-0.825,1.429-0.936
		c2.421,2.444,5.791,3.68,10.077,3.68l0.297-0.002c3.33-0.042,7.121-0.85,10.141-2.159c1.215-0.526,2.331-1.156,3.363-1.829
		c2.042,2.504,5.274,3.949,9.17,3.949c4.945,0,10.042-2.263,12.98-5.765c2.121-2.528,2.994-5.58,2.462-8.598
		c-0.179-2.503-1.815-3.229-3.655-3.229c-2.55,0-5.491,1.393-5.491,1.393c0.138-1.047,0.443-2.333,0.592-2.951
		c0.108-0.452,0.204-0.865,0.278-1.22c0.532-2.538,1.175-5.138,1.796-7.651c0.164-0.661,0.33-1.331,0.491-2.004
		c0.54,0.247,1.135,0.388,1.756,0.395c0.016,0,0.032,0,0.046,0c3.126,0,5.368-3.794,5.386-3.837
		c1.816-3.958,1.016-6.628,0.025-8.172C328.75,20.657,327.3,19.776,325.845,19.274z"/>
</g>
<g>
	<path fill="#D1593D" d="M205.365,9.792c-5.347-1.83-11.88-1.453-16.666,1.724c-1.406,0.934-2.77,2.171-3.84,3.477
		c-2.115,2.581-3.501,5.783-3.867,9.079c-0.724,6.53,4.102,12.231,7.402,17.362c3.417,5.306,6.882,11.02,4.744,17.535
		c-1.472,4.482-5.467,9.304-10.301,10.204c-7.406,1.379-15.455-1.146-17.844-8.502c-1.455-4.481-1.565-9.905,1.991-13.501
		c1.737-1.755,4.195-2.924,6.551-1.616c2.155,1.196,1.764,3.656,1.041,5.611c-0.923,2.489-2.289,4.918-1.926,7.673
		c0.447,3.393,3.783,5.017,6.948,4.592c5.744-0.767,7.979-7.035,6.842-12.121c-0.357-1.603-0.964-3.712-1.895-5.074
		c-4.409-6.449-13.879-8.714-20.778-5.134c-2.706,1.403-5.24,3.293-6.678,6.036c-2.723,5.193-2.581,12.444,0.433,17.489
		c3.48,5.826,9.746,7.942,16.166,8.619c7.71,0.814,16.102,0.424,23.48-2.124c5.486-1.892,9.041-5.525,11.644-10.63
		c1.538-3.019,1.777-6.381,0.975-9.647c-0.767-3.125-2.184-5.988-3.989-8.638c-2.848-4.175-6.636-7.64-8.987-12.162
		c-1.716-3.305-2.707-7.508-2.463-11.239c0.146-2.242,0.977-5.7,3.369-6.555c2.106-0.752,5.882-0.391,6.72,2.097
		c0.485,1.444-0.732,2.906-1.23,4.19c-1.01,2.606-1.296,5.968,0.429,8.34c1.498,2.058,4.439,3.435,6.954,2.993
		c3.044-0.536,4.821-3.851,5.002-6.752C215.959,17.217,210.658,11.604,205.365,9.792z M184.299,49.694c0,0,2.212,4.626,0.48,8.265
		c-1.094,2.296-3.439,4.477-5.077,4.477C179.702,62.436,185.17,59.409,184.299,49.694z M194.507,30.093
		c3.469,6.936,15.196,17.083,13.812,25.16c-0.696,4.06-1.626,5.677-2.745,7.437c0,0,2.504-6.624,0.752-11.874
		c-1.726-5.17-6.175-9.78-12.069-18.555c-4.408-6.566-1.931-13.762-1.931-13.762S192.387,25.855,194.507,30.093z M210.162,28.7
		c0,0,4.353-4.443,0.515-13.559c0,0,3.305,3.544,3.359,7.275C214.09,26.148,212.33,28.7,210.162,28.7z"/>
	<path fill="#D1593D" d="M147.489,28.032c-2.215-0.018-4.644,0.797-6.418,2.186c-0.251,0.197-0.809,0.474-0.694,0.881
		c0.01,0.037,0.023,0.07,0.039,0.099c0.256,0.474,1.203,0.074,1.549,0.213c1.533,0.615-1.104,8.138-1.56,9.325
		c-1.014,2.631-2.323,5.145-3.096,7.868c-0.019,0.063-0.036,0.128-0.055,0.191c-0.266,0.315-0.534,0.633-0.79,0.933
		c-1.432,1.681-4.12,1.819-4.503-0.809c-0.229-1.581,0.238-3.488,0.784-4.972c0.926-2.517,2.443-4.791,3.156-7.387
		c0.836-3.04,0.85-6.711-2.881-7.475c-2.541-0.52-5.831,0.159-8.211,1.133c-0.32,0.132-1.507,0.598-2.524,1.102
		c-0.042-0.137-0.092-0.273-0.148-0.405c-0.555-1.281-2.114-2.078-3.427-2.363c-1.946-0.423-4.766-0.333-6.654,0.323
		c-1.493,0.518-3.16,1.229-4.575,2.185c-0.059-0.453-0.161-0.869-0.323-1.225c-0.974-2.143-3.908-2.32-5.937-2.35
		c-2.785-0.041-5.416,3.252-5.145,3.708c0.271,0.457,1.213-0.153,1.602,0.169c1.701,1.416-0.146,5.162-0.671,6.824
		c-0.82,2.598-1.745,5.204-2.65,7.82c-2.034,0.901-4.203,2.277-4.763,2.533c-1.335,0.611-2.71,1.075-4.419,1.273
		c-2.084,0.238-4.494,0.72-6.268-0.637c-0.885-0.679-1.966-1.576-2.185-2.67c-0.051-0.258,4.204-2.38,4.527-2.561
		c3.862-2.181,12.669-6.076,8.416-12.031c-3.21-4.495-9.998-2.917-13.975-0.446c-1.316,0.82-2.73,2.014-3.665,3.257
		c-1.955,2.6-3.647,6.147-4.019,9.364c-0.805,6.959,2.35,14.326,10.51,14.223c2.741-0.035,5.947-0.704,8.472-1.8
		c1.843-0.801,3.438-1.907,4.96-3.118c-0.389,1.376-0.52,2.696,0.953,3.639c1.575,1.01,3.644,1.628,5.499,1.166
		c1.932-0.48,2.132-0.868,2.401-2.657c0.944-6.301,3.836-11.879,5.74-17.889c0.282-0.89,0.618-2.159,0.822-3.464
		c0.906-0.712,1.875-1.421,2.044-1.506c1.517-0.754,3.966-0.708,3.565,1.692c-0.388,2.33-1.399,4.624-2.187,6.836
		c-1.215,3.412-2.774,6.859-3.583,10.397c-0.527,2.302-1.006,5.652,1.771,6.739c1.982,0.775,6.556,0.537,8.081-1.191
		c0.635-0.719-0.031-1.124-0.333-1.947c-0.678-1.85-0.12-4.216,0.349-6.058c0.974-3.832,2.62-7.342,4.063-11
		c0.415-1.047,0.915-2.365,1.177-3.694c0.437-0.361,0.864-0.691,1.2-0.899c1.544-0.962,3.997-0.985,3.949,1.25
		c-0.032,1.472-0.837,2.862-1.314,4.222c-1.057,3.008-2.438,5.934-3.036,9.084c-0.821,4.332-1.65,10.055,4.433,10.167
		c3.475,0.065,6.41-2.146,8.478-4.764c0.064-0.083,0.231-0.304,0.46-0.614c-0.023,0.924,0.105,1.837,0.492,2.702
		c0.928,2.07,4.639,3.654,6.796,2.625c2.977-1.42,5.766-3.879,5.907-7.412c-0.011,0.274-2.213,0.994-2.537,0.965
		c-4.272-0.393,2.131-12.408,2.989-14.354C151.447,34.427,152.711,28.067,147.489,28.032z M89.103,34.997
		c0.005,1.9-0.979,2.735-0.979,2.735s1.267-5.818-4.95-7.076C83.174,30.656,89.087,30.351,89.103,34.997z M79.252,35.533
		c0.565-0.908,1.676-1.763,2.719-2.057c1.485-0.264,2.972,0.996,2.895,2.5c-0.103,2.002-1.87,3.059-3.464,4.052
		c-0.512,0.32-4.899,2.208-4.949,2.388C77.104,40.085,77.945,37.632,79.252,35.533z M75.77,47.23c0,0,1.771,5.631,9.902,3.86
		C85.672,51.091,76.997,55.812,75.77,47.23z M105.656,35.552c0,0,1.267-5.817-4.95-7.076c0,0,5.914-0.304,5.928,4.341
		C106.641,34.717,105.656,35.552,105.656,35.552z M116.513,56.621c0,0-0.012,0-0.033-0.002c-3.671-0.024-0.75-5.757-0.75-5.757
		c-0.695,5.362,0.529,5.732,0.75,5.757C116.491,56.619,116.501,56.621,116.513,56.621z M119.917,36.647c0,0,1.268-5.818-4.949-7.077
		c0,0,5.914-0.303,5.928,4.341C120.903,35.811,119.917,36.647,119.917,36.647z M134.885,34.246c0.006,1.898-0.978,2.735-0.978,2.735
		s1.268-5.818-4.95-7.078C128.958,29.903,134.87,29.601,134.885,34.246z M130.684,48.479c0,0,0.273,4.61,4.201,3.52
		C134.885,51.998,129.23,54.406,130.684,48.479z M148.262,52.482c0,0-4.263,3.33-3.575-1.62
		C144.688,50.862,144.332,53.571,148.262,52.482z M149.761,34.137c-0.404,1.856-0.812,2.762-0.812,2.762s2.054-7.332-4.949-7.076
		C144,29.822,151.236,27.38,149.761,34.137z"/>
	<path fill="#D1593D" d="M149.578,12.847c-2.453,0-4.439,1.988-4.439,4.439c0,2.452,1.986,4.44,4.439,4.44
		c2.451,0,4.438-1.988,4.438-4.44C154.016,14.834,152.029,12.847,149.578,12.847z M150.118,20.266c-0.196,0-0.39-0.021-0.58-0.053
		c1.53-0.274,2.312-1.32,2.312-2.927s-1.324-2.941-2.853-3.215c0.188-0.034,0.381-0.054,0.58-0.054c1.806,0,3.431,1.464,3.431,3.269
		C153.009,19.092,151.924,20.266,150.118,20.266z"/>
	<path fill="#D1593D" d="M321.779,21.738c0.664-2.507,1.911-6.382,0.236-8.213c-1.83-1.999-5.657,0.074-7.332,1.391
		c-0.576,0.453-0.972,1.191-1.479,1.713c1.346,0.257,1.052,3.417,0.59,6.028c-0.38,0.06-0.757,0.118-1.12,0.173
		c-0.639,0.095-4.624-1.064-4.65-1.047c0,0-1.634,1.089-1.816,2.36c-0.692,4.788,2.84,4.549,6.444,4.008
		c-0.841,3.759-1.885,7.471-2.988,11.162c-0.573,1.93-1.336,4.112-1.896,6.337c-1.381,0.513-2.735,1.257-3.187,1.493
		c-0.701,0.361-1.411,0.728-2.128,1.069c-2.758,1.315-5.66,2.328-8.786,1.85c-1.852-0.283-3.52-0.474-3.904-2.418
		c-0.051-0.257,4.204-2.379,4.526-2.561c3.861-2.181,12.669-7.167,8.416-13.122c-3.211-4.494-9.999-2.917-13.976-0.446
		c-1.316,0.82-2.729,2.015-3.664,3.257c-1.954,2.6-3.647,6.147-4.02,9.364c-0.17,1.467-0.161,2.951,0.03,4.378
		c-0.425,0.261-0.882,0.512-1.39,0.771c-0.808,0.412-2.142,0.709-3.134,0.955c-4.293,1.059-9.156,0.194-10.746-4.569
		c0.094,0.278,4.147-1.865,4.511-2.064c2.618-1.443,5.188-3.267,6.881-5.777c1.483-2.198,2.775-5.699,0.455-7.795
		c-2.391-2.158-7.284-1.423-9.884,0.018c-3.105,1.72-6.384,4.482-7.766,8.107c-0.191,0.502-0.382,1.042-0.567,1.602
		c-0.282,0.939-2.304,0.111-2.711-0.051c-0.354-0.141-0.694-0.356-1.039-0.738c0.532-1.934,0.882-3.931,0.665-5.897
		c-0.054-0.488-0.182-0.906-0.365-1.255c-0.812-1.522-2.718-1.685-4.305-0.4c-1.84,1.49-2.739,4.45-2.806,6.736
		c-0.023,0.826,0.066,1.672,0.427,2.427c0.131,0.27,1.174,1.31,1.147,1.507c-0.44,3.178-2.109,6.539-4.492,8.692
		c-1.856,1.677-5.18,2.479-5.812-0.914c-0.636-3.422,0.837-6.776,2.176-9.845c1.104-2.533,2.821-5.756,1.738-8.571
		c-0.848-2.205-3.402-3.18-5.625-2.989c-1.89,0.162-4.148,1.355-5.091,3.005c0.342-0.6,1.724,0.692,1.877,0.946
		c0.425,0.71,0.319,1.692,0.222,2.469c-0.29,2.347-1.562,4.397-2.409,6.567c-1.149,2.944-2.973,6.204-3.093,9.489
		c-1.963,1.826-4.927,2.043-5.519-1.134c-0.497-2.672,0.648-5.803,1.548-8.272c0.438-1.195,0.941-2.369,1.479-3.523
		c0.823-1.768,1.622-4.715,0.889-6.623c-0.847-2.203-3.404-3.179-5.627-2.989c-1.891,0.162-4.148,1.357-5.091,3.005
		c1.917-0.225,2.309,1.607,2.132,3.035c-0.313,2.514-1.656,4.731-2.49,7.081c-1.24,3.5-3.712,7.651-2.863,11.477
		c0.771,3.478,4.545,5.431,7.79,5.505c3.368,0.078,6.105-1.654,8.531-3.752c3.206,6.428,14.944,3.601,18.654-0.996
		c2.357-2.917,3.643-6.58,4.823-10.129c0.769,0.411,1.839,0.884,3.218,1.268c0.244,0.067,0.492,0.136,0.742,0.204
		c-1.368,10.082,9.854,17.422,19.275,11.234c2.058-1.352,3.377-2.173,4.943-3.415c1.5,3.68,4.229,5.509,9.181,5.447
		c2.741-0.035,5.946-0.704,8.471-1.8c2.68-1.165,4.833-2.968,7.003-4.819c0.04,0.605,0.121,1.199,0.259,1.778
		c2.178,9.148,19.647,3.861,18.178-4.483c0.121,0.693-5.793,2.196-6.355,2.141c-4.664-0.467-2.475-7.01-1.893-9.787
		c0.977-4.669,2.252-9.271,3.292-13.927c2.816-0.019,4.875,0.326,5.034,1.229c0,0.003,1.36-1.12,1.447-1.312
		C329.126,22.722,326.07,21.635,321.779,21.738z M302.163,35.192c0.007,1.9-0.979,2.736-0.979,2.736s1.268-5.818-4.949-7.077
		C296.235,30.852,302.149,30.546,302.163,35.192z M295.013,33.52c0.006-0.002,0.012-0.003,0.018-0.005
		c1.69-0.442,2.904,1.436,2.814,2.891c-0.115,1.858-1.875,3.273-3.401,4.062c-0.417,0.215-4.604,1.858-4.592,1.939
		C289.346,39.185,291.884,34.563,295.013,33.52z M221.03,30.605c0,0,7.237-2.445,5.762,4.314c-0.405,1.856-0.812,2.762-0.812,2.762
		S228.404,30.175,221.03,30.605z M222.772,48.547c0,0,0.183,4.905,3.316,4.678C226.089,53.225,221.03,55.042,222.772,48.547z
		 M237.178,30.605c0,0,7.237-2.445,5.762,4.314c-0.405,1.856-0.812,2.762-0.812,2.762S244.482,29.835,237.178,30.605z
		 M238.578,48.547c0,0,0.298,4.905,3.432,4.678C242.01,53.225,236.672,55.133,238.578,48.547z M254.538,38.438
		c0.063-5.881-1.312-6.854-1.312-6.854C256.939,31.99,254.538,38.438,254.538,38.438z M277.364,33.955
		c0.006,1.898-0.979,2.735-0.979,2.735s1.726-5.349-4.491-6.607C271.895,30.083,277.35,29.312,277.364,33.955z M265.886,39.692
		c0.381-0.88,1.555-3.365,2.959-5.005c0.642-0.75,1.627-1.719,2.712-1.507c2.619,0.51,1.092,3.867,0.09,5.067
		c-1.725,2.071-6.291,2.672-6.292,2.672C265.492,40.668,265.802,39.89,265.886,39.692z M264.23,46.596c0,0,2.744,6.945,10.398,5.767
		C274.629,52.362,265.354,56.655,264.23,46.596z M288.423,48.571c0,0,1.8,4.748,9.903,2.905
		C298.326,51.477,289.787,56.381,288.423,48.571z M321.766,52.362c0,0-8.396,3.975-6.866-4.043c0.011-0.07,0.021-0.112,0.021-0.112
		c-0.009,0.039-0.012,0.074-0.021,0.112C314.775,49.13,314.32,54.055,321.766,52.362z M316.896,14.524c0,0,3.871-1.362,4.693,0.131
		c0.917,1.664-0.243,2.906-0.243,2.906S322.467,13.835,316.896,14.524z M325.48,26.916c0,0,2.208-3.203-3.307-4.26
		c0,0,4.107-0.106,4.43,1.568C326.965,26.09,325.48,26.916,325.48,26.916z"/>
	<path fill="#D1593D" d="M58.969,26.31c1.498,2.059,4.439,3.435,6.952,2.993c3.044-0.536,4.823-3.851,5.002-6.752
		c0.369-5.899-4.931-11.512-10.226-13.324c-5.346-1.83-11.879-1.453-16.664,1.725c-1.406,0.932-2.77,2.169-3.841,3.476
		c-2.115,2.581-3.502,5.783-3.867,9.079c-0.726,6.53,4.101,12.231,7.403,17.362c3.417,5.307,6.88,11.019,4.743,17.537
		c-1.472,4.48-5.467,9.303-10.301,10.204c-7.405,1.378-15.455-1.148-17.844-8.504c-1.455-4.48-1.565-9.904,1.99-13.5
		c1.738-1.755,4.196-2.924,6.553-1.615c2.154,1.195,1.763,3.654,1.039,5.609c-0.921,2.49-2.289,4.919-1.925,7.674
		c0.448,3.393,3.784,5.016,6.948,4.591c5.743-0.767,7.978-7.033,6.843-12.12c-0.358-1.602-0.965-3.712-1.895-5.074
		c-4.41-6.449-13.881-8.714-20.78-5.134c-2.705,1.403-5.239,3.292-6.677,6.036c-2.723,5.193-2.581,12.443,0.433,17.49
		c3.48,5.824,9.745,7.941,16.166,8.618c7.709,0.814,16.101,0.423,23.48-2.124c5.486-1.892,9.042-5.525,11.644-10.629
		c1.538-3.021,1.776-6.383,0.974-9.647c-0.767-3.126-2.185-5.99-3.989-8.638c-2.847-4.176-6.637-7.641-8.987-12.163
		c-1.716-3.303-2.708-7.508-2.464-11.24c0.145-2.242,0.977-5.7,3.37-6.554c2.106-0.751,5.881-0.392,6.719,2.097
		c0.487,1.443-0.732,2.907-1.229,4.189C57.529,20.577,57.243,23.937,58.969,26.31z M66.01,14.575
		c3.838,9.115-0.514,13.559-0.514,13.559L66.01,14.575z M39.633,49.128c0,0,2.212,4.627,0.48,8.265
		c-1.093,2.297-3.438,4.477-5.077,4.477C35.036,61.869,40.504,58.843,39.633,49.128z M49.84,29.528
		c3.47,6.936,15.197,17.083,13.813,25.159c-0.697,4.059-1.626,5.677-2.746,7.437c0,0,2.505-6.625,0.752-11.874
		c-1.725-5.17-6.174-9.781-12.068-18.556c-4.409-6.565-1.931-13.762-1.931-13.762S47.72,25.289,49.84,29.528z"/>
</g>
</svg>
