<?xml version="1.0" encoding="utf-8"?>
<!-- Generator: Adobe Illustrator 16.0.0, SVG Export Plug-In . SVG Version: 6.00 Build 0)  -->
<!DOCTYPE svg PUBLIC "-//W3C//DTD SVG 1.1//EN" "http://www.w3.org/Graphics/SVG/1.1/DTD/svg11.dtd">
<svg version="1.1" xmlns="http://www.w3.org/2000/svg" xmlns:xlink="http://www.w3.org/1999/xlink" x="0px" y="0px"
	 width="335.607px" height="404.017px" viewBox="0 0 335.607 404.017" enable-background="new 0 0 335.607 404.017"
	 xml:space="preserve">
<g id="Layer_2">
	<polygon fill="#FFFFFF" points="84.083,401.068 148.114,378.735 183.428,401.068 218.672,386.068 256.951,372.697 284.005,363.068 
		308.005,357.401 327.005,353.735 332.338,336.554 244.005,317.401 304.672,126.501 298.181,128.068 269.005,126.501 
		232.489,118.401 203.738,106.822 211.005,78.262 222.897,50.551 234.005,23.218 188.292,9.734 140.854,3.067 106.208,3.067 
		56.005,7.401 15.567,15.62 6.338,19.067 3.338,35.476 3.338,68.4 7.671,153.195 19.671,261.987 34.217,345.458 42.671,361.97 
		66.729,384.4 	"/>
</g>
<g id="Layer_1">
	<g>
		<polygon fill="none" points="131.247,304.513 128.722,301 109.16,303.417 112.473,307.393 		"/>
		<polygon fill="none" points="109.631,307.778 106.87,303.802 100.645,304.482 101.197,308.791 		"/>
		<polygon fill="none" points="303.349,339.233 223.1,319.824 125.833,339.652 134.268,344.176 222.92,323.875 223.036,323.906 
			293.819,341.743 293.754,342.003 		"/>
		<polygon fill="none" points="155.153,300.782 151.989,297.727 131.412,300.533 133.749,304.12 		"/>
		<polygon fill="none" points="180.281,297.234 176.531,294.104 154.131,297.032 157.451,300.267 		"/>
		<path fill="none" d="M135.608,344.895l51.834,27.802l104.918-30.291l-69.452-17.501L135.608,344.895z M175.996,355.674
			l-0.793-0.609l8.074-10.515l0.793,0.609L175.996,355.674z M185.021,351.527l-0.817-0.576l6.76-9.575l0.816,0.576L185.021,351.527z
			 M240.258,337.009l-4.318,8.449l-0.891-0.455l4.318-8.449L240.258,337.009z M235.813,335.964l0.862,0.508l-7.51,12.768
			l-0.863-0.508L235.813,335.964z"/>
		<path fill="none" d="M104.004,86.103c-0.199,0.22-0.411,0.453-0.634,0.7c-0.219,0.251-0.517,0.438-0.781,0.686
			c-2.193,1.892-5.117,4.414-8.042,6.936c-2.924,2.522-5.848,5.044-8.041,6.936c-0.283,0.227-0.514,0.49-0.789,0.677
			c-0.276,0.185-0.539,0.359-0.786,0.524c-0.493,0.329-0.923,0.615-1.278,0.851c-0.095,0.062-0.169,0.111-0.253,0.166
			c0.14,1.214,0.353,2.296,0.637,3.246c0.117-0.127,0.25-0.272,0.417-0.454c0.257-0.271,0.57-0.599,0.928-0.976
			c0.179-0.188,0.37-0.389,0.571-0.6c0.203-0.21,0.459-0.379,0.695-0.593c1.939-1.649,4.525-3.849,7.112-6.047
			c2.586-2.199,5.172-4.398,7.111-6.047c0.464-0.437,0.95-0.767,1.384-1.054c0.227-0.155,0.435-0.297,0.629-0.43
			c0.565-1.719,1.081-3.401,1.543-4.988C104.293,85.784,104.156,85.935,104.004,86.103z"/>
		<path fill="none" d="M83.201,99.415c0.141-0.145,0.3-0.309,0.496-0.511c0.641-0.63,1.529-1.559,2.643-2.621
			c1.115-1.061,2.395-2.322,3.805-3.63c1.402-1.316,2.923-2.693,4.442-4.071c1.533-1.363,3.063-2.729,4.522-3.982
			c1.45-1.263,2.843-2.398,4.017-3.394c1.174-0.995,2.194-1.778,2.889-2.347c0.113-0.088,0.204-0.159,0.301-0.235
			c0.376-1.523,0.632-2.649,0.754-3.202L83.273,97.054C83.23,97.875,83.206,98.662,83.201,99.415z"/>
		<path fill="none" d="M103.53,40.834c-1.746-0.32-3.854-0.385-6.019,0.318c-3.422,1.113-6.25,3.886-8.433,8.218l4.443,1.18
			C97.11,44.168,100.675,41.66,103.53,40.834z"/>
		<path fill="none" d="M71.301,51.601c0.327,0.432,0.604,0.896,0.895,1.351l0.89,1.354l1.786,2.705l7.142,10.82l0.192,0.291
			l-0.101,0.341c-0.589,2.001-1.113,4.056-1.591,6.104c-0.478,2.053-0.905,4.117-1.28,6.189c-0.733,4.145-1.275,8.331-1.38,12.516
			c-0.037,1.046-0.017,2.09,0.007,3.133c0.059,1.039,0.103,2.081,0.244,3.106c0.053,0.517,0.119,1.029,0.222,1.534
			c0.1,0.505,0.16,1.021,0.305,1.512c0.228,1.002,0.549,1.969,0.923,2.908c0.223,0.448,0.412,0.919,0.665,1.349
			c0.29,0.403,0.515,0.849,0.775,1.27c0.302,0.384,0.558,0.826,0.902,1.181c0.366,0.327,0.675,0.745,1.096,1.015
			c0.795,0.611,1.71,1.087,2.694,1.403c0.283,0.065,0.564,0.153,0.849,0.235c-2.032-1.389-3.353-4.005-3.968-7.812
			c-0.016,0.01-0.043,0.026-0.043,0.026s0.021-0.026,0.04-0.048c-0.668-4.16-0.496-9.735,0.539-16.721
			c1.509-10.187,4.399-19.87,4.666-20.751L69.658,44.605c-0.723,0.678-1.439,1.364-2.171,2.031L71.301,51.601z"/>
		<path fill="none" d="M103.694,328.808c2.532,0,6.805,1.231,7.098,9.44l113.111-24.286l5.6-21.408l-128.364,18.955l1.314,17.408
			C102.668,328.876,103.112,328.808,103.694,328.808z"/>
		<path fill="none" d="M89.292,111.741c1.354,0,2.418-0.523,2.429-0.528c4.406-3.078,8.163-11.663,10.867-19.698
			c-0.346,0.374-0.739,0.786-1.23,1.162c-1.939,1.649-4.525,3.849-7.112,6.047c-2.586,2.199-5.172,4.398-7.111,6.047
			c-0.249,0.198-0.458,0.424-0.697,0.59c-0.241,0.164-0.47,0.32-0.685,0.467c-0.43,0.293-0.804,0.549-1.112,0.759
			c-0.228,0.15-0.407,0.268-0.559,0.368c0.436,1.4,1.03,2.51,1.788,3.309C86.8,111.244,87.951,111.741,89.292,111.741z"/>
		<path fill="none" d="M83.367,103.165c0.014-0.016,0.024-0.027,0.039-0.043c0.285-0.316,0.632-0.699,1.03-1.139
			c0.199-0.22,0.41-0.454,0.633-0.701c0.225-0.244,0.52-0.434,0.785-0.68c2.193-1.892,5.117-4.414,8.042-6.936
			c2.924-2.522,5.848-5.044,8.041-6.936c0.284-0.225,0.512-0.492,0.793-0.672c0.276-0.185,0.539-0.359,0.785-0.524
			c0.448-0.299,0.834-0.557,1.168-0.78c0.639-2.241,1.165-4.251,1.564-5.858c-0.036,0.038-0.064,0.066-0.102,0.105
			c-0.641,0.63-1.528,1.56-2.643,2.622c-1.115,1.061-2.394,2.323-3.804,3.63c-1.402,1.316-2.924,2.692-4.443,4.07
			c-1.533,1.363-3.064,2.728-4.523,3.981c-1.452,1.262-2.843,2.399-4.017,3.394c-1.175,0.995-2.194,1.778-2.889,2.348
			c-0.253,0.198-0.452,0.354-0.623,0.487C83.197,100.853,83.256,102.055,83.367,103.165z"/>
		<path fill="none" d="M96.672,147.154l-1.097,0.247c-0.855,0.19-1.603,0.482-2.266,0.829c2.434,0.38,5.36,0.626,8.787,0.626
			c6.327,0,10.976-0.831,13.876-1.818c-0.495-0.207-0.956-0.379-1.364-0.503l-0.464-0.141l0.475-0.101
			c0.014-0.003,0.358-0.075,0.983-0.075c0.503,0,1.157,0.049,1.931,0.196c1.309-0.617,1.988-1.241,1.988-1.726
			c0-1.051-3.141-2.754-9.191-3.622c-0.252,0.091-0.503,0.178-0.758,0.276l-0.612,0.235l0.483-0.443
			c0.005-0.005,0.073-0.066,0.196-0.168c-2.168-0.276-4.686-0.446-7.543-0.446c-4.344,0-7.897,0.392-10.639,0.957
			c0.335,0.405,0.514,0.68,0.521,0.691l0.235,0.375l-0.396-0.197c-0.468-0.232-0.914-0.445-1.349-0.648
			c-3.826,0.913-5.797,2.157-5.797,2.99c0,0.909,2.335,2.308,6.875,3.231c2.03-0.742,3.845-0.765,3.987-0.765H96.672z"/>
		<polygon fill="none" points="203.738,294.148 195.948,291.28 179.046,293.459 183.381,296.763 		"/>
		<polygon fill="none" points="201.014,289.411 203.463,285.562 99.224,299.759 99.575,303.385 		"/>
		<path fill="none" d="M205.569,284.043l-0.954-0.195l-63.97-31.985l-48.165,2.989l5.969,43.051L205.569,284.043z M127.6,287.678
			c-2.869,0.979-6.72,1.691-10.845,2.008c-1.497,0.114-2.98,0.172-4.411,0.172c-5.538,0-11.524-0.895-11.716-3.405
			c-0.128-1.669,2.432-2.9,4.602-3.641c2.869-0.979,6.721-1.691,10.846-2.008c1.497-0.114,2.98-0.172,4.411-0.172
			c5.538,0,11.524,0.894,11.716,3.404C132.329,285.706,129.77,286.938,127.6,287.678z M129.63,261.987
			c-4.369,0-8.792-0.979-8.792-2.853s4.423-2.854,8.792-2.854c4.369,0,8.792,0.98,8.792,2.854S133.999,261.987,129.63,261.987z
			 M144.374,272.575c-5.417,0-11.265-1.054-11.305-3.367c-0.041-2.341,5.974-3.67,11.937-3.773c0.256-0.004,0.51-0.007,0.761-0.007
			c5.414,0,11.259,1.054,11.299,3.366c0.041,2.341-5.974,3.671-11.937,3.774C144.875,272.572,144.623,272.575,144.374,272.575z
			 M176.689,282.548c-2.912,0.802-6.793,1.304-10.928,1.414c-0.564,0.015-1.121,0.022-1.67,0.022
			c-6.824,0-14.201-1.217-14.272-3.888c-0.074-2.814,7.85-4.498,15.715-4.707c0.562-0.015,1.12-0.022,1.668-0.022
			c6.824,0,14.201,1.217,14.272,3.888C181.51,280.557,179.9,281.665,176.689,282.548z M140.148,254.053l0.276-1.545l-0.049,1.484
			l3.65,1.621c1.234,0.558,2.479,1.094,3.701,1.674c2.459,1.132,4.901,2.297,7.34,3.47c2.438,1.172,4.858,2.381,7.286,3.574
			l7.235,3.673c2.396,1.255,4.805,2.486,7.191,3.759c2.383,1.28,4.776,2.541,7.142,3.855c2.376,1.295,4.733,2.625,7.086,3.965
			c2.332,1.379,4.694,2.7,6.999,4.133c-2.508-1.039-4.957-2.188-7.438-3.279c-2.459-1.132-4.914-2.272-7.35-3.449
			c-2.447-1.155-4.867-2.366-7.295-3.558c-2.426-1.197-4.83-2.437-7.246-3.653l-7.201-3.74c-2.385-1.277-4.777-2.539-7.15-3.838
			c-2.374-1.298-4.744-2.604-7.097-3.943c-1.184-0.656-2.345-1.354-3.517-2.032l-3.504-2.058l-0.073-0.043L140.148,254.053z
			 M100.334,255.745c2.176-0.254,4.717-0.507,7.443-0.732c1.363-0.104,2.77-0.243,4.203-0.326c1.432-0.093,2.888-0.188,4.343-0.282
			c1.456-0.071,2.913-0.143,4.346-0.214c1.433-0.078,2.847-0.103,4.213-0.154c2.733-0.085,5.287-0.125,7.478-0.121
			c4.381-0.013,7.312,0.154,7.312,0.154s-2.893,0.501-7.246,0.987c-2.176,0.254-4.718,0.506-7.443,0.733
			c-1.363,0.104-2.771,0.24-4.203,0.327c-1.433,0.093-2.888,0.188-4.343,0.283c-1.456,0.071-2.913,0.144-4.346,0.215
			c-1.433,0.081-2.847,0.104-4.213,0.155c-2.733,0.087-5.287,0.126-7.478,0.121c-4.381,0.013-7.312-0.156-7.312-0.156
			S95.98,256.232,100.334,255.745z M94.039,261.67c-0.044-0.889,0.899-1.648,2.801-2.258c1.654-0.53,3.861-0.886,6.216-1.002
			c0.551-0.027,1.091-0.041,1.615-0.041c3.488,0,7.592,0.628,7.679,2.396c0.095,1.929-4.607,3.042-9.016,3.26
			c-0.551,0.027-1.091,0.041-1.615,0.041C98.23,264.067,94.126,263.439,94.039,261.67z M109.696,267.702
			c1.055-0.089,2.104-0.135,3.12-0.135c4.111,0,8.98,0.815,9.174,3.114c0.219,2.592-5.824,4.51-11.621,4.999
			c-1.055,0.089-2.104,0.135-3.118,0.135c-4.112,0-8.982-0.816-9.176-3.116C97.856,270.108,103.899,268.191,109.696,267.702z"/>
		<polygon fill="none" points="207.807,278.724 198.862,274.587 189.691,275.139 200.072,279.94 		"/>
		<polygon fill="none" points="205.933,285.692 205.883,285.706 203.969,286.252 202.301,290.138 200.853,290.398 207.618,293.148 
			228.609,290.001 210.663,280.548 202.77,281.444 206.956,283.849 206.848,284.044 207.106,284.096 206.797,284.136 		"/>
		<path fill="none" d="M271.081,175.827c-4.848,10.825-11.759,20.321-20.594,28.284c-8.106,7.306-17.841,13.343-28.933,17.944
			c-18.883,7.835-35.379,8.797-35.543,8.806c-3.477,0.18-6.951,0.271-10.33,0.271c-14.393,0-27.979-1.646-40.383-4.891
			c-9.925-2.596-19.119-6.217-27.327-10.761c-12.438-6.886-18.839-13.856-20.146-15.367l3.96,50.492l54.243-2.329l0.028,0.013
			l84.876,39.774L271.081,175.827z"/>
		<polygon fill="none" points="181.975,397.074 183.428,382.249 102.654,337.04 103.372,344.84 		"/>
		<polygon fill="none" points="195.767,273.164 182.617,267.224 173.991,267.167 186.828,273.826 		"/>
		<polygon fill="none" points="110.753,253.091 108.553,251.653 98.847,252.013 100.688,253.272 		"/>
		<polygon fill="none" points="179.041,265.697 166.474,260.192 159.77,260.337 171.162,265.844 		"/>
		<polygon fill="none" points="121.319,252.188 118.94,251.153 111.191,251.51 112.875,252.774 		"/>
		<polygon fill="none" points="98.479,253.483 96.428,252.153 92.343,252.297 92.504,253.829 		"/>
		<polygon fill="none" points="133.768,251.302 132.153,250.427 122.208,251.005 123.499,251.9 		"/>
		<polygon fill="none" points="165.041,259.063 154.94,254.446 148.114,254.335 157.574,258.99 		"/>
		<polygon fill="none" points="134.761,250.217 136.12,251.026 141.217,250.832 141.245,250.845 146.103,253.187 152.989,253.294 
			145.58,249.699 		"/>
		<path fill="none" d="M177.08,105.474c0.277-0.193,0.55-0.414,0.82-0.652C177.635,105.05,177.363,105.268,177.08,105.474z"/>
		<path fill="none" d="M158.883,52.161c0.569,0.779,1.044,1.62,1.594,2.412l1.592,2.413l6.371,9.651l0.188,0.286l-0.095,0.338
			c-1.013,3.616-1.822,7.333-2.459,11.052c-0.619,3.724-1.066,7.482-1.123,11.234c-0.024,0.938,0.004,1.873,0.033,2.808
			c0.062,0.93,0.109,1.863,0.243,2.78c0.052,0.462,0.115,0.921,0.211,1.372c0.092,0.451,0.15,0.913,0.283,1.351
			c0.21,0.895,0.503,1.757,0.841,2.595c0.202,0.399,0.372,0.819,0.6,1.202c0.261,0.358,0.466,0.752,0.691,1.133
			c0.266,0.345,0.494,0.738,0.795,1.061c0.322,0.295,0.598,0.667,0.967,0.917c0.705,0.553,1.516,0.989,2.394,1.283
			c0.295,0.071,0.59,0.167,0.888,0.25c-0.67-0.396-1.298-0.869-1.764-1.494c-0.141-0.179-0.289-0.352-0.421-0.536l-0.342-0.587
			c-0.249-0.382-0.403-0.808-0.583-1.222c-0.011-0.027-0.018-0.056-0.028-0.083c-0.043,0.026-0.067,0.041-0.067,0.041
			s0.022-0.025,0.059-0.067c-0.316-0.803-0.549-1.637-0.719-2.479c-0.052-0.253-0.09-0.509-0.134-0.764
			c-0.063,0.038-0.105,0.062-0.105,0.062s0.039-0.049,0.096-0.118c-0.103-0.612-0.19-1.227-0.237-1.845
			c-0.095-0.893-0.113-1.789-0.139-2.684c-0.004-0.896,0.002-1.792,0.047-2.686c0.031-0.895,0.102-1.787,0.174-2.679
			c0.079-0.891,0.168-1.781,0.279-2.669c0.432-3.552,1.076-7.073,1.836-10.566c0.764-3.47,1.633-6.915,2.645-10.323l-16.15-19.624
			c-0.628,0.601-1.251,1.209-1.888,1.8L158.883,52.161z"/>
		<path fill="none" d="M41.573,30.887c-1.433,10.435-9.626,72.254-6.749,100.492c2.939,3.58,19.254,23.182,32.088,33.129
			l1.302,0.471c0.32,0.116,32.514,11.591,77.453,12.467c40.03,0.778,98.434-6.947,152.513-47.33
			c-2.435,0.103-4.876,0.173-7.32,0.173c-49.118,0-86.41-20.199-87.974-21.059l-1.441-0.792l0.157-1.637
			c1.983-20.627,22.626-66.653,28.988-80.448C144.505-1.583,53.877,26.763,41.573,30.887z M122.908,34.757l1.063,4.184l-0.113,0.035
			l-9.414,2.942L122.908,34.757z M109.824,26.008l3.052,3.053l-6.668,7.428L109.824,26.008z M95.75,25.512l1.283,9.899l-5.587-9.576
			L95.75,25.512z M82.317,31.317l5.518,8.318l-9.238-6.129L82.317,31.317z M66.927,46.381c0.891-0.616,1.807-1.201,2.711-1.8
			l-0.394-0.479l0.375,0.1l17.984,4.776c2.389-4.87,5.56-7.998,9.459-9.259c5.723-1.852,10.899,0.934,11.487,1.269
			c0.053,0.024,0.091,0.043,0.098,0.046c3.511,2.524,4.531,9.027,3.044,19.336c-1.104,7.652-3.254,14.661-3.275,14.731
			c-7.576,32.973-15.139,37.9-18.972,37.9c-1.24,0-1.955-0.533-1.984-0.555c-0.07-0.032-0.132-0.079-0.201-0.113l-0.084,0.003
			c-0.539,0.024-1.071-0.094-1.614-0.147c-1.071-0.182-2.131-0.545-3.109-1.096c-0.512-0.24-0.918-0.638-1.387-0.958
			c-0.447-0.348-0.803-0.788-1.212-1.188c-0.378-0.421-0.667-0.909-0.96-1.39c-0.257-0.498-0.48-1.007-0.723-1.51
			c-0.412-1.029-0.757-2.078-1-3.144c-0.154-0.529-0.218-1.068-0.323-1.603c-0.108-0.535-0.178-1.073-0.233-1.611
			c-0.146-1.076-0.193-2.154-0.253-3.23c-0.024-1.077-0.045-2.153-0.007-3.225c0.109-4.294,0.661-8.542,1.404-12.743
			c0.379-2.099,0.812-4.188,1.295-6.264c0.458-1.962,0.956-3.905,1.521-5.854L73.62,57.838l-1.786-2.705l-0.896-1.35
			c-0.304-0.447-0.622-0.884-0.89-1.354l-3.182-5.667l-0.137-0.244L66.927,46.381z M88.928,153.195l-2.49-0.643l0.059-0.135
			c0.588-1.343,1.458-2.338,2.427-3.083c-3.737-1.036-6.254-2.592-6.254-4.646c0-1.798,1.929-3.214,4.916-4.234
			c-3.489-1.371-5.524-1.624-6.542-1.624c-0.509,0-0.738,0.065-0.74,0.066l-0.755,0.219l2.289-1.544
			c0.482-0.063,0.965-0.095,1.436-0.095c2.862,0,5.037,1.173,6.497,2.346c3.511-0.861,7.928-1.302,12.324-1.302
			c3.465,0,6.943,0.274,9.981,0.812c1.734-0.957,4.206-1.938,7.077-1.938c0.301,0,0.605,0.011,0.904,0.032l0.033,0.006l3.357,1.18
			h-0.732c-0.046,0-3.545,0.021-8.299,1.208c4.202,1.03,7.105,2.661,7.105,4.867c0,0.932-0.523,1.76-1.438,2.486
			c1.694,0.677,3.688,1.806,5.885,3.686l0.147,0.126l-1.461,0.687l-0.058-0.035c-0.045-0.028-3.159-1.929-6.168-3.451
			c-3.647,1.762-10.015,2.67-16.332,2.67c-3.858,0-7.733-0.339-10.998-1.004c-1.554,1.553-2.124,3.204-2.133,3.231L88.928,153.195z
			 M139.393,170.588l-0.058-0.035c-0.046-0.028-3.209-1.96-6.241-3.488c-4.021,1.809-10.782,2.741-17.496,2.741
			c-3.467,0-6.946-0.25-10.056-0.739c-1.336,1.459-1.831,2.906-1.839,2.932l-0.037,0.111l-2.49-0.643l0.059-0.135
			c0.493-1.125,1.189-1.999,1.97-2.694c-5.136-1.09-8.788-2.934-8.788-5.493c0-1.971,2.169-3.517,5.512-4.622
			c-2.065-0.637-3.389-0.778-4.146-0.778c-0.509,0-0.738,0.065-0.74,0.066l-0.755,0.219l2.289-1.544
			c0.482-0.063,0.965-0.095,1.436-0.095c1.992,0,3.643,0.572,4.959,1.312c3.686-0.806,8.166-1.218,12.625-1.218
			c4.37,0,8.759,0.396,12.401,1.169c1.605-0.73,3.623-1.346,5.893-1.346c0.301,0,0.605,0.011,0.904,0.032l0.033,0.006l3.357,1.18
			h-0.732c-0.041,0-2.773,0.019-6.679,0.837c3.622,1.114,6.003,2.714,6.003,4.781c0,1.124-0.708,2.108-1.932,2.954
			c1.688,0.678,3.673,1.805,5.86,3.676l0.147,0.126L139.393,170.588z M235.973,132.09l0.032-0.006l3.557-0.122l-0.683,0.266
			c-0.045,0.018-3.749,1.487-8.113,4.741c1.979-0.3,3.824-0.463,5.44-0.463c3.981,0,6.293,0.919,6.87,2.73
			c0.226,0.706,0.139,1.465-0.234,2.265c1.139,0.216,2.314,0.532,3.521,0.952l0.182,0.064l-1.11,1.171l-0.066-0.012
			c-0.032-0.006-1.605-0.286-3.634-0.568c-0.822,0.925-1.975,1.888-3.475,2.875c-3.381,2.226-8.117,4.368-13.338,6.033
			c-4.059,1.295-8.093,2.184-11.578,2.581c-0.709,1.838-0.643,3.358-0.641,3.385l0.006,0.117l-2.553,0.307l0.006-0.146
			c0.055-1.334,0.438-2.481,0.984-3.468c-0.537,0.029-1.058,0.046-1.555,0.046c0,0,0,0-0.001,0c-3.981,0-6.293-0.919-6.87-2.73
			c-0.502-1.571,0.529-3.409,2.945-5.373c-4.772,0.139-6.176,1.171-6.189,1.182l-0.623,0.479l1.569-2.271
			c1.581-0.868,3.255-1.308,4.976-1.308c0.91,0,1.754,0.125,2.51,0.311c3.354-2.142,7.928-4.195,12.967-5.802
			c2.705-0.863,5.398-1.543,7.928-2.022C230.152,135.548,232.513,133.164,235.973,132.09z M205.131,120.793l0.018-0.002l0.016,0.002
			l3.529,0.453l-0.717,0.153c-0.045,0.01-3.656,0.808-8.234,3.103c3.58,0.003,7.96,0.562,8.563,3.202
			c0.2,0.875-0.073,1.773-0.774,2.687c1.695,0.329,3.779,1,6.186,2.306l0.17,0.092l-1.285,0.977l-0.064-0.022
			c-0.049-0.017-3.233-1.135-6.378-1.985c-0.763,0.619-1.698,1.244-2.856,1.873c-3.294,1.792-7.832,3.401-12.779,4.531
			c-4.125,0.942-8.09,1.454-11.512,1.496c-0.849,1.575-1.016,2.917-1.018,2.942l-0.013,0.117l-2.569-0.108l0.029-0.144
			c0.229-1.112,0.67-2.053,1.225-2.856c-3.092-0.195-6.201-0.95-6.703-3.145c-0.446-1.956,1.531-3.983,4.782-5.8
			c-1.981-0.363-3.724-0.546-5.206-0.546c-2.178,0-2.97,0.413-2.978,0.417l-0.692,0.372l1.916-1.988
			c1.162-0.412,2.344-0.62,3.512-0.62c2.159,0,3.961,0.713,5.243,1.444c3.173-1.504,7.155-2.812,11.206-3.738
			c3.414-0.78,6.719-1.263,9.698-1.432C199.082,123.09,201.711,121.273,205.131,120.793z M208.439,42.62l-0.113,0.035l-9.414,2.942
			l8.463-7.161L208.439,42.62z M196.289,27.38l2.882,3.214l-0.084,0.083l-6.979,6.971L196.289,27.38z M181.76,26.829l0.05,9.982
			l-4.36-10.193L181.76,26.829z M167.998,31.746l0.041,0.111l3.349,9.278l-7.522-8.145L167.998,31.746z M154.896,47.525
			c0.796-0.541,1.616-1.051,2.424-1.575l-0.129-0.157l-0.248-0.301l0.376,0.101c5.458,1.462,10.921,2.9,16.378,4.367
			c0.058-0.273,0.123-0.576,0.211-0.924c0.056-0.225,0.115-0.463,0.177-0.715c0.074-0.249,0.296-0.428,0.427-0.672
			c0.31-0.462,0.645-0.962,0.998-1.491c0.428-0.481,0.877-0.989,1.342-1.514c0.482-0.509,1.087-0.94,1.646-1.426
			c0.617-0.412,1.271-0.815,1.95-1.153c0.712-0.273,1.403-0.614,2.147-0.741c0.727-0.209,1.461-0.27,2.172-0.327
			c0.355-0.049,0.704,0.001,1.046-0.002c0.341,0.012,0.677,0.007,0.996,0.063c0.646,0.072,1.248,0.169,1.794,0.312
			c0.27,0.077,0.551,0.075,0.779,0.209c0.225,0.131,0.438,0.256,0.639,0.373c0.297,0.197,0.546,0.371,0.766,0.539
			c0.074,0.013,0.146,0.025,0.215,0.04c0.03,0.007,0.061,0.013,0.092,0.021c0.625,0.14,0.981,0.326,0.981,0.326
			c0.145,0.129,0.296,0.252,0.443,0.378c0.091,0.083,0.185,0.161,0.271,0.25c0.008,0.008,0.017,0.014,0.023,0.022
			c0.129,0.162,0.27,0.315,0.401,0.474c0.051,0.066,0.101,0.132,0.149,0.201c0.021,0.032,0.049,0.058,0.068,0.091
			c0.047,0.07,0.084,0.146,0.13,0.218c0.1,0.157,0.199,0.315,0.289,0.484c0.094,0.172,0.175,0.35,0.256,0.528
			c0.044,0.097,0.089,0.192,0.13,0.293c0.029,0.075,0.069,0.146,0.098,0.222c0.075,0.196,0.135,0.396,0.199,0.595
			c0.002,0.007,0.005,0.013,0.007,0.02c0.335,1.044,0.538,2.13,0.663,3.219c0.262,2.618,0.153,5.257-0.107,7.87
			c-0.541,5.232-1.682,10.383-3.162,15.427l0.002-0.008l-1.229,4.975c-0.213,0.827-0.395,1.663-0.633,2.483l-0.707,2.463
			l-0.709,2.463c-0.218,0.827-0.529,1.625-0.789,2.438l-0.818,2.43c-0.252,0.817-0.594,1.603-0.903,2.399l-0.946,2.384
			c-0.344,0.783-0.727,1.549-1.088,2.325l-0.55,1.16c-0.202,0.377-0.424,0.744-0.635,1.117c-0.447,0.73-0.806,1.515-1.339,2.192
			c-0.516,0.685-0.949,1.435-1.569,2.04l-0.876,0.949l-1.009,0.815c-0.7,0.508-1.491,0.898-2.347,1.104
			c-0.732,0.114-1.503,0.075-2.197-0.237l-0.258,0.013c-0.484,0.023-0.964-0.077-1.453-0.124c-0.967-0.16-1.923-0.484-2.81-0.977
			c-0.46-0.219-0.833-0.57-1.259-0.859c-0.402-0.315-0.73-0.707-1.103-1.065c-0.345-0.378-0.608-0.817-0.872-1.252
			c-0.229-0.45-0.437-0.907-0.656-1.359c-0.375-0.925-0.693-1.868-0.919-2.827c-0.142-0.475-0.204-0.96-0.302-1.44
			c-0.102-0.481-0.169-0.964-0.223-1.448c-0.141-0.967-0.191-1.936-0.254-2.903c-0.031-0.967-0.061-1.935-0.035-2.899
			c0.06-3.86,0.517-7.681,1.145-11.461c0.32-1.889,0.689-3.769,1.104-5.639c0.391-1.757,0.816-3.495,1.304-5.241l-6.186-9.371
			l-1.593-2.413c-0.513-0.816-1.099-1.584-1.592-2.414l-2.797-5.081l-0.135-0.246L154.896,47.525z M155.497,123.83
			c2.206-0.477,4.375-0.91,6.454-1.452c4.182-1.003,8.105-2.072,11.72-3.105c1.798-0.551,3.521-1.079,5.158-1.581
			c1.624-0.549,3.166-1.069,4.614-1.559c1.461-0.466,2.789-0.999,4.03-1.464c1.243-0.466,2.385-0.895,3.417-1.282
			c4.081-1.692,6.413-2.66,6.413-2.66s-0.541,0.326-1.556,0.938c-1.023,0.598-2.491,1.547-4.434,2.621
			c-0.982,0.516-2.071,1.086-3.256,1.708c-1.182,0.635-2.478,1.284-3.893,1.911c-1.409,0.644-2.91,1.328-4.491,2.05
			c-1.614,0.647-3.312,1.327-5.082,2.037c-3.566,1.353-7.464,2.757-11.662,3.989c-4.184,1.28-8.638,2.5-13.296,3.537
			c-4.652,1.058-9.482,2.063-14.428,2.849c-2.47,0.408-4.97,0.742-7.475,1.119c-2.512,0.314-5.032,0.653-7.557,0.935
			c-5.058,0.494-10.12,0.928-15.11,1.209c-1.248,0.069-2.489,0.161-3.726,0.21c-1.237,0.04-2.469,0.08-3.692,0.12
			c-2.446,0.097-4.865,0.105-7.242,0.158c-4.755,0.072-9.352-0.012-13.706-0.149c-4.354-0.103-8.466-0.36-12.256-0.617
			c-3.791-0.25-7.259-0.576-10.328-0.905c-3.07-0.301-5.738-0.669-7.933-0.962c-2.195-0.292-3.912-0.594-5.082-0.787
			c-1.168-0.205-1.792-0.313-1.792-0.313s0.632,0.016,1.817,0.045c1.184,0.016,2.921,0.039,5.131,0.069
			c2.207,0.013,4.887,0.03,7.96,0.048c3.069-0.015,6.532-0.032,10.31-0.051c1.887-0.03,3.853-0.045,5.886-0.106
			c2.032-0.045,4.133-0.091,6.293-0.139c4.318-0.106,8.867-0.332,13.568-0.521c4.701-0.224,9.551-0.557,14.474-0.912
			c4.925-0.334,9.914-0.821,14.893-1.365c2.488-0.28,4.977-0.561,7.455-0.84c2.469-0.343,4.936-0.643,7.37-1.016
			c4.864-0.771,9.664-1.471,14.264-2.387C151.03,124.759,153.294,124.316,155.497,123.83z"/>
		<path fill="none" d="M179.749,49.506c0.179-0.315,0.416-0.592,0.621-0.889l0.638-0.877c0.203-0.299,0.465-0.554,0.695-0.833
			l0.712-0.817c0.539-0.481,1.009-1.042,1.604-1.457c0.291-0.215,0.563-0.456,0.869-0.649l0.928-0.562
			c0.322-0.163,0.657-0.302,0.984-0.454c0.266-0.11,0.544-0.189,0.818-0.273c-0.311-0.057-0.631-0.106-0.969-0.144
			c-0.285-0.053-0.581-0.045-0.883-0.056c-0.301,0.005-0.611-0.045-0.921,0.001c-0.622,0.053-1.267,0.101-1.895,0.287
			c-0.649,0.104-1.245,0.412-1.865,0.642c-0.591,0.297-1.161,0.649-1.706,1.009c-0.494,0.438-1.03,0.81-1.465,1.27
			c-0.421,0.475-0.828,0.935-1.215,1.37c-0.326,0.49-0.636,0.953-0.921,1.38c-0.253,0.444-0.581,0.798-0.866,1.128
			c-0.186,0.21-0.35,0.396-0.503,0.57c1.412,0.381,2.827,0.752,4.237,1.141L179.749,49.506z"/>
		<path fill="none" d="M101.049,12.395c21.72-2.964,50.351-4.831,81.109-1.385C161.527,7.022,140.009,5,117.757,5
			c-47.079,0-85.383,9.141-102.19,13.919c7.461,0.918,17.568,2.929,24.139,7.32C45.26,24.356,68.831,16.791,101.049,12.395z"/>
		<path fill="none" d="M64.511,168.962c-14.645-11.086-33.221-33.996-34.038-35.007l-0.459-0.568l-0.081-0.727
			c-3.205-28.845,5.18-91.604,6.687-102.47c-8.481-5.472-24.341-6.712-29.307-6.971c-6.526,36.734,1.983,125.89,7.771,176.775
			c8.339,73.309,19.063,138.646,21.947,145.238c4.798,10.966,31.503,37.679,43.001,48.883c-2.229-14.212-7.406-48.572-11.647-86.973
			C61.128,241.43,59.828,194.972,64.511,168.962z"/>
		<path fill="none" d="M175.742,105.881c0.008-0.001,0.016-0.003,0.023-0.004C175.758,105.878,175.75,105.879,175.742,105.881z"/>
		<path fill="none" d="M177.08,105.474c-0.152,0.068-0.308,0.129-0.465,0.185C176.905,105.56,177.08,105.474,177.08,105.474z"/>
		<path fill="none" d="M171.21,100.75c0.157-0.17,0.325-0.352,0.503-0.543c0.179-0.189,0.41-0.337,0.619-0.529
			c1.73-1.471,4.037-3.433,6.344-5.394c2.307-1.961,4.613-3.922,6.343-5.394c0.411-0.393,0.85-0.681,1.241-0.932
			c0.178-0.119,0.344-0.229,0.5-0.333c0.541-1.613,1.055-3.235,1.532-4.868c-0.103,0.117-0.202,0.23-0.315,0.359
			c-0.175,0.199-0.361,0.411-0.557,0.634c-0.192,0.228-0.462,0.389-0.696,0.612c-1.956,1.687-4.564,3.937-7.173,6.186
			c-2.607,2.25-5.216,4.499-7.172,6.187c-0.254,0.201-0.455,0.44-0.703,0.604c-0.25,0.161-0.486,0.314-0.709,0.458
			c-0.445,0.287-0.834,0.538-1.153,0.744c-0.06,0.038-0.104,0.066-0.16,0.101l0.124,0.842c0.055,0.373,0.095,0.75,0.209,1.109
			l0.273,1.095c0.006,0.022,0.016,0.043,0.022,0.066c0.038-0.042,0.068-0.076,0.11-0.121
			C170.619,101.388,170.895,101.09,171.21,100.75z"/>
		<path fill="none" d="M169.866,94.388c0.568-0.565,1.354-1.402,2.345-2.353c0.991-0.949,2.127-2.081,3.381-3.251
			c1.248-1.178,2.604-2.406,3.959-3.636c1.367-1.215,2.732-2.433,4.037-3.547c1.296-1.124,2.544-2.13,3.594-3.015
			c1.051-0.884,1.969-1.574,2.59-2.079c0.093-0.071,0.166-0.127,0.247-0.189c0.229-0.939,0.457-1.878,0.669-2.82L169.511,92.75
			l-0.045,2.058C169.582,94.687,169.713,94.549,169.866,94.388z"/>
		<path fill="none" d="M101.89,346.477l-0.009-0.055c-0.183-1.138-18.256-114.051-16.011-145.891
			c-1.751,0.089-5.303,1.82-7.078,7.906l-0.328,1.125l0.083-1.169c0.009-0.136,1.13-13.555,15.222-13.555
			c2.674,0,5.681,0.485,8.938,1.443l-0.051,0.244c-0.045-0.006-4.535-0.576-8.189-0.576c-3.93,0-4.626,0.655-4.668,1.076
			c0.478,0.582,6.709,8.004,19.471,15.333c12.206,7.01,33.054,15.366,63.053,15.366c0.004,0,0.006,0,0.01,0
			c6.362,0,12.977-0.375,19.658-1.114c0.15-0.013,14.938-1.349,32.26-9.867c10.171-5.002,19.212-11.466,26.873-19.211
			c9.546-9.649,16.964-21.328,22.049-34.713c-0.61-0.148-3.369-0.635-7.438,1.69L265.6,164.3c0.058-0.04,5.808-4.019,10.235-4.019
			c1.595,0,2.846,0.511,3.719,1.518c1.436,1.655,1.854,4.668,1.241,8.955l-0.127,0.886l-0.121-0.887
			c-0.009-0.063-0.891-6.319-3.325-6.319c-0.146,0-0.298,0.023-0.451,0.068l-44.589,143.419c0.181-0.018,0.479-0.04,0.859-0.04
			c1.295,0,3.723,0.267,5.445,2.049c1.393,1.442,2.059,3.586,1.979,6.375l0.311,0.077l60.095-182.041
			c-55.184,41.079-114.686,48.921-155.483,48.101c-38.097-0.767-67.243-9.034-76.093-11.838
			c-9.933,57.669,12.723,204.266,16.309,226.722c18.661-8.235,57.369-19.456,62.431-20.912L101.89,346.477z"/>
		<path fill="none" d="M180.119,102.244c0.432-0.604,0.82-1.237,1.199-1.874c0.364-0.647,0.727-1.294,1.055-1.959
			c0.342-0.658,0.645-1.336,0.969-2.003c0.314-0.672,0.616-1.349,0.905-2.033c0.577-1.368,1.125-2.748,1.627-4.145
			c0.195-0.542,0.369-1.092,0.557-1.637c-0.267,0.291-0.56,0.592-0.926,0.87c-1.73,1.471-4.037,3.433-6.344,5.394
			c-2.307,1.961-4.613,3.922-6.343,5.394c-0.223,0.176-0.406,0.38-0.622,0.526c-0.217,0.144-0.423,0.281-0.616,0.409
			c-0.387,0.257-0.725,0.481-1.002,0.666c-0.08,0.052-0.144,0.093-0.213,0.139c0.092,0.251,0.199,0.498,0.293,0.75
			c0.119,0.36,0.312,0.68,0.52,0.994l0.298,0.478l0.385,0.41c0.235,0.299,0.552,0.503,0.866,0.71c0.147,0.12,0.324,0.185,0.5,0.254
			c0.176,0.063,0.344,0.159,0.527,0.196c0.369,0.079,0.738,0.156,1.119,0.144c0.375,0.013,0.756-0.032,1.125-0.111
			c0.373-0.067,0.734-0.191,1.082-0.339c0.594-0.449,1.15-0.943,1.648-1.494C179.23,103.433,179.688,102.847,180.119,102.244z"/>
		<path fill="none" d="M176.127,105.8c0.12-0.029,0.231-0.06,0.332-0.09C176.35,105.744,176.238,105.774,176.127,105.8z"/>
		<path fill="none" d="M128.883,165.309l0.475-0.101c0.014-0.003,0.358-0.075,0.983-0.075c0.476,0,1.085,0.042,1.804,0.171
			c1.698-0.722,2.634-1.493,2.634-2.159c0-1.198-2.974-2.735-8.101-3.71c-0.772,0.243-1.562,0.513-2.367,0.822l-0.612,0.235
			l0.483-0.443c0.012-0.012,0.409-0.369,1.108-0.856c-2.744-0.434-6.007-0.708-9.691-0.708c-4.022,0-7.529,0.33-10.42,0.835
			c1.002,0.938,1.525,1.744,1.538,1.763l0.235,0.375l-0.396-0.197c-1.244-0.617-2.363-1.124-3.376-1.546
			c-4.297,0.973-6.76,2.341-6.76,3.43c0,1.287,3.436,2.965,9.284,3.917c2.254-0.971,4.414-0.993,4.569-0.993h1.139l-1.097,0.247
			c-1.018,0.226-1.887,0.593-2.636,1.03c2.343,0.288,5,0.459,7.921,0.459c6.46,0,11.62-0.842,14.958-1.914
			c-0.435-0.177-0.846-0.331-1.209-0.442L128.883,165.309z"/>
		<path fill="none" d="M195.145,127.172l0.307-0.432c-2.306,0.238-4.779,0.648-7.26,1.215c-4.013,0.917-7.254,2.017-9.771,3.12
			c0.147,0.132,0.235,0.218,0.239,0.223l0.309,0.317l-0.429-0.109c-0.239-0.061-0.47-0.115-0.704-0.172
			c-4.176,1.916-6.126,3.796-5.922,4.686c0.129,0.568,1.678,1.642,6.601,1.647c2.172-1.703,4.64-2.231,4.68-2.24l1.062-0.215
			l-0.985,0.451c-1.154,0.528-2.058,1.213-2.767,1.944c2.916-0.154,6.237-0.632,9.573-1.395c4.773-1.09,9.131-2.631,12.27-4.338
			c0.469-0.255,0.882-0.499,1.254-0.734c-0.701-0.144-1.354-0.254-1.898-0.3l-0.482-0.041l0.443-0.198
			c0.045-0.02,1.127-0.492,3.124-0.492c0.073,0,0.159,0.006,0.235,0.007c1.13-0.948,1.408-1.636,1.332-1.967
			c-0.13-0.57-1.686-1.648-6.643-1.648c-1.189,0-2.48,0.069-3.832,0.196c-0.062,0.041-0.123,0.077-0.186,0.117L195.145,127.172z"/>
		<path fill="none" d="M211.539,146.721l0.355,0.264l-0.441-0.039c-0.832-0.073-1.638-0.129-2.412-0.167
			c-0.132,0.084-0.275,0.167-0.403,0.252c-3.104,2.044-4.252,3.718-4.013,4.47c0.197,0.618,1.615,1.338,4.966,1.338
			c0.001,0,0.001,0,0.001,0c0.98,0,2.052-0.062,3.191-0.182c1.797-1.77,3.86-2.578,3.896-2.591l1.014-0.383l-0.9,0.604
			c-0.962,0.646-1.688,1.387-2.252,2.147c3.008-0.443,6.378-1.238,9.773-2.321c5.051-1.611,9.613-3.67,12.845-5.798
			c0.815-0.537,1.489-1.046,2.045-1.522c-1.418-0.155-2.849-0.269-4.012-0.269c-0.365,0-0.696,0.011-0.983,0.033l-0.484,0.037
			l0.405-0.266c0.073-0.048,1.816-1.167,5.283-1.167c0.419,0,0.851,0.03,1.282,0.063c0.42-0.59,0.576-1.068,0.477-1.38
			c-0.197-0.618-1.615-1.338-4.966-1.338c-2.429,0-5.411,0.383-8.619,1.083l-0.442,0.404l0.166-0.342
			c-1.891,0.422-3.854,0.951-5.828,1.581c-4.236,1.351-8.116,3.019-11.168,4.776C211.08,146.388,211.529,146.713,211.539,146.721z"
			/>
		<path fill="none" d="M169.599,98.21c0.245-0.279,0.535-0.61,0.87-0.991c0.175-0.199,0.361-0.411,0.557-0.634
			c0.198-0.221,0.465-0.386,0.7-0.607c1.956-1.687,4.564-3.937,7.173-6.186c2.607-2.25,5.216-4.499,7.172-6.187
			c0.255-0.199,0.454-0.442,0.708-0.598c0.249-0.161,0.485-0.314,0.708-0.458c0.415-0.268,0.773-0.5,1.08-0.698
			c0.497-1.741,0.953-3.493,1.385-5.25c-0.018,0.019-0.03,0.032-0.049,0.052c-0.568,0.565-1.354,1.403-2.344,2.353
			c-0.992,0.95-2.126,2.083-3.382,3.251c-1.248,1.178-2.604,2.405-3.959,3.636c-1.368,1.215-2.734,2.432-4.038,3.546
			c-1.297,1.123-2.545,2.13-3.595,3.015c-1.051,0.883-1.967,1.574-2.589,2.079c-0.215,0.164-0.385,0.295-0.533,0.409v0.028
			c-0.043,0.757,0.04,1.51,0.068,2.265C169.558,97.56,169.561,97.887,169.599,98.21z"/>
		<path fill="none" d="M186.293,382.71l-1.332,14.539c1.608-0.793,12.677-6.153,31.906-13.473
			c60.326-24.287,99.98-31.598,108.128-32.932l3.946-11.838L186.293,382.71z"/>
		<path fill="#424242" d="M127.095,128.611c-2.479,0.279-4.967,0.56-7.455,0.84c-4.979,0.544-9.968,1.031-14.893,1.365
			c-4.922,0.355-9.773,0.688-14.474,0.912c-4.702,0.189-9.25,0.415-13.568,0.521c-2.16,0.047-4.261,0.094-6.293,0.139
			c-2.033,0.061-3.999,0.076-5.886,0.106c-3.778,0.019-7.24,0.036-10.31,0.051c-3.074-0.018-5.753-0.035-7.96-0.048
			c-2.21-0.03-3.947-0.053-5.131-0.069c-1.185-0.029-1.817-0.045-1.817-0.045s0.623,0.109,1.792,0.313
			c1.17,0.193,2.887,0.495,5.082,0.787c2.195,0.293,4.862,0.661,7.933,0.962c3.069,0.329,6.537,0.654,10.328,0.905
			c3.79,0.257,7.902,0.514,12.256,0.617c4.354,0.137,8.951,0.222,13.706,0.149c2.377-0.053,4.796-0.062,7.242-0.158
			c1.224-0.04,2.455-0.08,3.692-0.12c1.237-0.049,2.479-0.142,3.726-0.21c4.99-0.281,10.052-0.715,15.11-1.209
			c2.525-0.282,5.045-0.62,7.557-0.935c2.505-0.377,5.005-0.711,7.475-1.119c4.946-0.786,9.776-1.792,14.428-2.849
			c4.658-1.037,9.112-2.257,13.296-3.537c4.198-1.231,8.096-2.636,11.662-3.989c1.771-0.709,3.468-1.39,5.082-2.037
			c1.581-0.722,3.082-1.406,4.491-2.05c1.415-0.626,2.711-1.275,3.893-1.911c1.185-0.622,2.273-1.192,3.256-1.708
			c1.942-1.074,3.41-2.023,4.434-2.621c1.015-0.612,1.556-0.938,1.556-0.938s-2.332,0.967-6.413,2.66
			c-1.032,0.387-2.174,0.816-3.417,1.282c-1.241,0.465-2.569,0.999-4.03,1.464c-1.448,0.489-2.99,1.01-4.614,1.559
			c-1.638,0.502-3.36,1.03-5.158,1.581c-3.614,1.034-7.538,2.102-11.72,3.105c-2.079,0.542-4.249,0.975-6.454,1.452
			c-2.203,0.487-4.467,0.929-6.768,1.378c-4.6,0.917-9.399,1.617-14.264,2.387C132.031,127.969,129.564,128.269,127.095,128.611z"/>
		<path fill="#424242" d="M246.588,314.731l62.864-190.435l-3.789,0.339c-4.853,0.434-9.833,0.654-14.803,0.654
			c-42.433,0-76.687-15.959-84.085-19.675c3.3-24.083,29.885-80.459,30.16-81.04l1.146-2.423l-2.498-0.975
			C199.594,7.125,159.951,0,117.757,0C53.499,0,5.17,16.871,4.689,17.042l-1.302,0.462l-0.302,1.348
			C-10.714,80.479,25.862,332.178,32.45,347.236c6.519,14.9,47.667,53.937,49.415,55.591l1.257,1.19l1.556-0.759
			c15.915-7.753,56.871-19.76,64.118-21.858l34.079,22.46l1.258-0.574c87.063-39.759,142.539-47.652,143.09-47.727l1.542-0.211
			l6.843-20.531L246.588,314.731z M183.428,382.249l-1.453,14.825l-78.603-52.233l-0.718-7.801L183.428,382.249z M146.03,248.277
			l-54.243,2.329l-3.96-50.492c1.306,1.511,7.708,8.481,20.146,15.367c8.208,4.544,17.402,8.165,27.327,10.761
			c12.404,3.245,25.991,4.891,40.383,4.891c3.379,0,6.854-0.092,10.33-0.271c0.164-0.009,16.66-0.971,35.543-8.806
			c11.092-4.602,20.826-10.639,28.933-17.944c8.835-7.963,15.746-17.459,20.594-28.284l-40.147,112.237l-84.876-39.774
			L146.03,248.277z M140.646,251.863l63.97,31.985l0.954,0.195l-107.12,13.859l-5.969-43.051L140.646,251.863z M206.848,284.044
			l0.108-0.195l-4.187-2.405l7.894-0.896l17.946,9.453l-20.991,3.146l-6.766-2.75l1.448-0.26l1.668-3.886l1.914-0.547l0.05-0.014
			l0.864-1.556l0.31-0.04L206.848,284.044z M189.691,275.139l9.171-0.552l8.944,4.137l-7.734,1.216L189.691,275.139z
			 M173.991,267.167l8.626,0.057l13.149,5.939l-8.938,0.662L173.991,267.167z M159.77,260.337l6.704-0.146l12.567,5.505
			l-7.879,0.147L159.77,260.337z M148.114,254.335l6.826,0.11l10.101,4.617l-7.467-0.073L148.114,254.335z M146.103,253.187
			l-4.857-2.342l-0.028-0.014l-5.097,0.194l-1.359-0.809l10.819-0.519l7.409,3.596L146.103,253.187z M122.208,251.005l9.946-0.578
			l1.614,0.875l-10.269,0.598L122.208,251.005z M111.191,251.51l7.749-0.357l2.379,1.035l-8.444,0.586L111.191,251.51z
			 M98.847,252.013l9.706-0.36l2.2,1.438l-10.065,0.181L98.847,252.013z M96.428,252.153l2.052,1.33l-5.975,0.346l-0.162-1.531
			L96.428,252.153z M203.463,285.562l-2.449,3.849L99.575,303.385l-0.351-3.626L203.463,285.562z M179.046,293.459l16.902-2.18
			l7.79,2.868l-20.357,2.615L179.046,293.459z M154.131,297.032l22.4-2.928l3.75,3.13l-22.831,3.033L154.131,297.032z
			 M131.412,300.533l20.577-2.806l3.164,3.055l-21.404,3.338L131.412,300.533z M109.16,303.417L128.722,301l2.525,3.514
			l-18.774,2.88L109.16,303.417z M106.87,303.802l2.761,3.976l-8.434,1.013l-0.552-4.309L106.87,303.802z M223.036,323.906
			l-0.116-0.03l-88.652,20.301l-8.435-4.524l97.267-19.828l80.249,19.409l-9.595,2.771l0.065-0.261L223.036,323.906z
			 M292.36,342.406l-104.918,30.291l-51.834-27.802l87.3-19.99L292.36,342.406z M229.502,292.554l-5.6,21.408l-113.111,24.286
			c-0.292-8.209-4.566-9.44-7.098-9.44c-0.582,0-1.026,0.068-1.242,0.109l-1.314-17.408L229.502,292.554z M201.603,106.801
			l-0.157,1.637l1.441,0.792c1.563,0.86,38.855,21.059,87.974,21.059c2.444,0,4.886-0.07,7.32-0.173
			c-54.079,40.383-112.483,48.108-152.513,47.33c-44.938-0.876-77.133-12.352-77.453-12.467l-1.302-0.471
			c-12.834-9.947-29.149-29.549-32.088-33.129c-2.878-28.237,5.315-90.057,6.749-100.492c12.304-4.125,102.932-32.471,189.018-4.534
			C224.229,40.148,203.586,86.174,201.603,106.801z M117.757,5c22.252,0,43.77,2.022,64.401,6.009
			c-30.758-3.445-59.389-1.579-81.109,1.385C68.831,16.791,45.26,24.356,39.706,26.239c-6.57-4.391-16.678-6.401-24.139-7.32
			C32.374,14.141,70.678,5,117.757,5z M37.031,345.232c-2.884-6.592-13.608-71.93-21.947-145.238
			C9.296,149.108,0.787,59.953,7.313,23.218c4.965,0.259,20.826,1.5,29.307,6.971c-1.507,10.866-9.892,73.625-6.687,102.47
			l0.081,0.727l0.459,0.568c0.817,1.012,19.393,23.921,34.038,35.007c-4.683,26.01-3.382,72.468,3.875,138.18
			c4.241,38.4,9.417,72.761,11.647,86.973C68.534,382.911,41.829,356.198,37.031,345.232z M69.295,170.604
			c8.85,2.804,37.996,11.071,76.093,11.838c40.797,0.821,100.299-7.021,155.483-48.101l-60.095,182.041l-0.311-0.077
			c0.079-2.789-0.587-4.933-1.979-6.375c-1.723-1.782-4.15-2.049-5.445-2.049c-0.381,0-0.679,0.022-0.859,0.04l44.589-143.419
			c0.153-0.045,0.305-0.068,0.451-0.068c2.435,0,3.316,6.255,3.325,6.319l0.121,0.887l0.127-0.886
			c0.612-4.287,0.194-7.299-1.241-8.955c-0.873-1.007-2.124-1.518-3.719-1.518c-4.428,0-10.178,3.979-10.235,4.019l0.134,0.211
			c4.069-2.326,6.828-1.839,7.438-1.69c-5.085,13.386-12.503,25.064-22.049,34.713c-7.661,7.745-16.702,14.209-26.873,19.211
			c-17.321,8.519-32.109,9.854-32.26,9.867c-6.682,0.739-13.296,1.114-19.658,1.114c-0.004,0-0.006,0-0.01,0
			c-29.999,0-50.847-8.356-63.053-15.366c-12.762-7.329-18.994-14.751-19.471-15.333c0.042-0.421,0.738-1.076,4.668-1.076
			c3.654,0,8.144,0.57,8.189,0.576l0.051-0.244c-3.257-0.958-6.264-1.443-8.938-1.443c-14.091,0-15.212,13.419-15.222,13.555
			l-0.083,1.169l0.328-1.125c1.775-6.086,5.327-7.817,7.078-7.906c-2.245,31.84,15.828,144.753,16.011,145.891l0.009,0.055
			l46.146,29.937c-5.062,1.456-43.77,12.677-62.431,20.912C82.018,374.87,59.363,228.273,69.295,170.604z M324.995,350.845
			c-8.147,1.334-47.802,8.645-108.128,32.932c-19.229,7.319-30.298,12.68-31.906,13.473l1.332-14.539l142.648-43.703
			L324.995,350.845z"/>
		<path fill="#424242" d="M102.096,150.856c6.317,0,12.685-0.908,16.332-2.67c3.01,1.522,6.123,3.423,6.168,3.451l0.058,0.035
			l1.461-0.687l-0.147-0.126c-2.197-1.879-4.19-3.009-5.885-3.686c0.915-0.726,1.438-1.554,1.438-2.486
			c0-2.206-2.903-3.837-7.105-4.867c4.754-1.188,8.253-1.208,8.299-1.208h0.732l-3.357-1.18l-0.033-0.006
			c-0.299-0.021-0.603-0.032-0.904-0.032c-2.871,0-5.343,0.981-7.077,1.938c-3.038-0.537-6.516-0.812-9.981-0.812
			c-4.396,0-8.813,0.441-12.324,1.302c-1.46-1.173-3.635-2.346-6.497-2.346c-0.471,0-0.954,0.032-1.436,0.095l-2.289,1.544
			l0.755-0.219c0.002-0.001,0.231-0.066,0.74-0.066c1.017,0,3.053,0.253,6.542,1.624c-2.987,1.02-4.916,2.437-4.916,4.234
			c0,2.054,2.517,3.61,6.254,4.646c-0.969,0.745-1.839,1.74-2.427,3.083l-0.059,0.135l2.49,0.643l0.037-0.111
			c0.009-0.027,0.58-1.678,2.133-3.231C94.362,150.517,98.237,150.856,102.096,150.856z M84.67,144.688
			c0-0.833,1.971-2.077,5.797-2.99c0.435,0.203,0.88,0.416,1.349,0.648l0.396,0.197l-0.235-0.375
			c-0.007-0.011-0.185-0.286-0.521-0.691c2.742-0.565,6.294-0.957,10.639-0.957c2.857,0,5.375,0.169,7.543,0.446
			c-0.123,0.102-0.191,0.163-0.196,0.168l-0.483,0.443l0.612-0.235c0.255-0.098,0.505-0.185,0.758-0.276
			c6.05,0.867,9.191,2.57,9.191,3.622c0,0.485-0.679,1.109-1.988,1.726c-0.774-0.147-1.428-0.196-1.931-0.196
			c-0.625,0-0.969,0.071-0.983,0.075l-0.475,0.101l0.464,0.141c0.408,0.124,0.869,0.297,1.364,0.503
			c-2.9,0.988-7.55,1.818-13.876,1.818c-3.427,0-6.354-0.247-8.787-0.626c0.664-0.346,1.411-0.639,2.266-0.829l1.097-0.247h-1.139
			c-0.143,0-1.957,0.023-3.987,0.765C87.005,146.997,84.67,145.597,84.67,144.688z"/>
		<path fill="#424242" d="M207.908,145.129c-0.756-0.186-1.6-0.311-2.51-0.311c-1.721,0-3.395,0.44-4.976,1.308l-1.569,2.271
			l0.623-0.479c0.014-0.011,1.417-1.042,6.189-1.182c-2.416,1.964-3.447,3.801-2.945,5.373c0.577,1.812,2.889,2.73,6.87,2.73
			c0.001,0,0.001,0,0.001,0c0.497,0,1.018-0.017,1.555-0.046c-0.546,0.987-0.93,2.134-0.984,3.468l-0.006,0.146l2.553-0.307
			l-0.006-0.117c-0.002-0.027-0.068-1.547,0.641-3.385c3.485-0.397,7.52-1.286,11.578-2.581c5.221-1.665,9.957-3.808,13.338-6.033
			c1.5-0.988,2.652-1.951,3.475-2.875c2.028,0.283,3.602,0.562,3.634,0.568l0.066,0.012l1.11-1.171l-0.182-0.064
			c-1.207-0.42-2.383-0.736-3.521-0.952c0.373-0.8,0.46-1.56,0.234-2.265c-0.577-1.812-2.889-2.73-6.87-2.73
			c-1.616,0-3.461,0.163-5.44,0.463c4.364-3.253,8.068-4.723,8.113-4.741l0.683-0.266l-3.557,0.122l-0.032,0.006
			c-3.46,1.074-5.82,3.458-7.17,5.215c-2.529,0.479-5.223,1.16-7.928,2.022C215.836,140.935,211.262,142.987,207.908,145.129z
			 M227.311,139.652l-0.166,0.342l0.442-0.404c3.208-0.701,6.19-1.083,8.619-1.083c3.351,0,4.769,0.721,4.966,1.338
			c0.1,0.312-0.057,0.79-0.477,1.38c-0.432-0.033-0.863-0.063-1.282-0.063c-3.467,0-5.21,1.119-5.283,1.167l-0.405,0.266
			l0.484-0.037c0.287-0.022,0.618-0.033,0.983-0.033c1.163,0,2.594,0.113,4.012,0.269c-0.556,0.476-1.229,0.985-2.045,1.522
			c-3.231,2.128-7.794,4.187-12.845,5.798c-3.396,1.083-6.766,1.878-9.773,2.321c0.563-0.76,1.29-1.501,2.252-2.147l0.9-0.604
			l-1.014,0.383c-0.036,0.013-2.1,0.821-3.896,2.591c-1.14,0.12-2.211,0.182-3.191,0.182c0,0,0,0-0.001,0
			c-3.351,0-4.769-0.721-4.966-1.338c-0.239-0.752,0.908-2.426,4.013-4.47c0.128-0.084,0.271-0.168,0.403-0.252
			c0.774,0.038,1.58,0.093,2.412,0.167l0.441,0.039l-0.355-0.264c-0.01-0.008-0.459-0.333-1.225-0.711
			c3.052-1.758,6.932-3.425,11.168-4.776C223.457,140.603,225.42,140.074,227.311,139.652z"/>
		<path fill="#424242" d="M134.847,166.1c1.224-0.845,1.932-1.83,1.932-2.954c0-2.066-2.382-3.667-6.003-4.781
			c3.906-0.818,6.638-0.837,6.679-0.837h0.732l-3.357-1.18l-0.033-0.006c-0.299-0.021-0.603-0.032-0.904-0.032
			c-2.271,0-4.288,0.616-5.893,1.346c-3.642-0.774-8.031-1.169-12.401-1.169c-4.459,0-8.939,0.412-12.625,1.218
			c-1.317-0.741-2.968-1.312-4.959-1.312c-0.471,0-0.954,0.032-1.436,0.095l-2.289,1.544l0.755-0.219
			c0.002-0.001,0.231-0.066,0.74-0.066c0.757,0,2.081,0.142,4.146,0.778c-3.342,1.105-5.512,2.651-5.512,4.622
			c0,2.559,3.651,4.402,8.788,5.493c-0.781,0.695-1.477,1.569-1.97,2.694l-0.059,0.135l2.49,0.643l0.037-0.111
			c0.008-0.026,0.503-1.473,1.839-2.932c3.11,0.489,6.589,0.739,10.056,0.739c6.713,0,13.475-0.932,17.496-2.741
			c3.032,1.528,6.195,3.46,6.241,3.488l0.058,0.035l1.461-0.687l-0.147-0.126C138.521,167.905,136.536,166.777,134.847,166.1z
			 M115.599,167.806c-2.921,0-5.578-0.172-7.921-0.459c0.749-0.437,1.618-0.804,2.636-1.03l1.097-0.247h-1.139
			c-0.156,0-2.315,0.022-4.569,0.993c-5.849-0.952-9.284-2.63-9.284-3.917c0-1.089,2.462-2.458,6.76-3.43
			c1.014,0.423,2.132,0.93,3.376,1.546l0.396,0.197l-0.235-0.375c-0.012-0.02-0.535-0.826-1.538-1.763
			c2.891-0.505,6.398-0.835,10.42-0.835c3.684,0,6.947,0.274,9.691,0.708c-0.699,0.488-1.096,0.845-1.108,0.856l-0.483,0.443
			l0.612-0.235c0.805-0.309,1.595-0.579,2.367-0.822c5.127,0.975,8.101,2.512,8.101,3.71c0,0.666-0.937,1.437-2.634,2.159
			c-0.719-0.129-1.328-0.171-1.804-0.171c-0.625,0-0.969,0.071-0.983,0.075l-0.475,0.101l0.464,0.141
			c0.364,0.111,0.775,0.265,1.209,0.442C127.219,166.964,122.059,167.806,115.599,167.806z"/>
		<path fill="#424242" d="M187.746,126.005c-4.051,0.926-8.033,2.234-11.206,3.738c-1.282-0.731-3.084-1.444-5.243-1.444
			c-1.168,0-2.35,0.208-3.512,0.62l-1.916,1.988l0.692-0.372c0.008-0.004,0.8-0.417,2.978-0.417c1.482,0,3.225,0.184,5.206,0.546
			c-3.251,1.816-5.229,3.844-4.782,5.8c0.502,2.194,3.611,2.95,6.703,3.145c-0.555,0.803-0.996,1.744-1.225,2.856l-0.029,0.144
			l2.569,0.108l0.013-0.117c0.002-0.025,0.169-1.367,1.018-2.942c3.422-0.042,7.387-0.554,11.512-1.496
			c4.947-1.13,9.485-2.74,12.779-4.531c1.158-0.629,2.094-1.254,2.856-1.873c3.145,0.851,6.329,1.968,6.378,1.985l0.064,0.022
			l1.285-0.977l-0.17-0.092c-2.406-1.306-4.49-1.978-6.186-2.306c0.701-0.914,0.975-1.812,0.774-2.687
			c-0.604-2.64-4.983-3.199-8.563-3.202c4.578-2.295,8.189-3.093,8.234-3.103l0.717-0.153l-3.529-0.453l-0.016-0.002l-0.018,0.002
			c-3.42,0.479-6.049,2.296-7.687,3.779C194.465,124.742,191.16,125.225,187.746,126.005z M199.713,126.501
			c4.957,0,6.513,1.078,6.643,1.648c0.076,0.331-0.202,1.02-1.332,1.967c-0.076-0.001-0.162-0.007-0.235-0.007
			c-1.997,0-3.079,0.472-3.124,0.492l-0.443,0.198l0.482,0.041c0.545,0.046,1.197,0.156,1.898,0.3
			c-0.372,0.235-0.785,0.479-1.254,0.734c-3.139,1.707-7.496,3.248-12.27,4.338c-3.336,0.763-6.657,1.241-9.573,1.395
			c0.709-0.731,1.612-1.416,2.767-1.944l0.985-0.451l-1.062,0.215c-0.04,0.008-2.508,0.537-4.68,2.24
			c-4.923-0.006-6.472-1.079-6.601-1.647c-0.204-0.89,1.746-2.77,5.922-4.686c0.234,0.057,0.465,0.111,0.704,0.172l0.429,0.109
			l-0.309-0.317c-0.004-0.005-0.092-0.091-0.239-0.223c2.517-1.103,5.758-2.203,9.771-3.12c2.48-0.567,4.954-0.977,7.26-1.215
			l-0.307,0.432l0.551-0.357c0.062-0.041,0.124-0.077,0.186-0.117C197.232,126.57,198.523,126.501,199.713,126.501z"/>
		<path fill="#424242" d="M143.713,256.223c1.172,0.678,2.333,1.376,3.517,2.032c2.353,1.339,4.723,2.646,7.097,3.943
			c2.374,1.299,4.766,2.561,7.15,3.838l7.201,3.74c2.416,1.217,4.82,2.456,7.246,3.653c2.428,1.191,4.848,2.402,7.295,3.558
			c2.436,1.177,4.891,2.317,7.35,3.449c2.48,1.092,4.93,2.24,7.438,3.279c-2.305-1.433-4.667-2.754-6.999-4.133
			c-2.353-1.34-4.71-2.67-7.086-3.965c-2.365-1.314-4.759-2.575-7.142-3.855c-2.387-1.272-4.795-2.504-7.191-3.759l-7.235-3.673
			c-2.427-1.193-4.847-2.402-7.286-3.574c-2.438-1.173-4.881-2.338-7.34-3.47c-1.223-0.58-2.467-1.116-3.701-1.674l-3.65-1.621
			l0.049-1.484l-0.276,1.545l-0.013,0.069l0.073,0.043L143.713,256.223z"/>
		<path fill="#424242" d="M100.399,256.891c2.191,0.005,4.745-0.034,7.478-0.121c1.366-0.052,2.78-0.074,4.213-0.155
			c1.434-0.071,2.89-0.144,4.346-0.215c1.455-0.096,2.91-0.19,4.343-0.283c1.433-0.087,2.84-0.224,4.203-0.327
			c2.725-0.228,5.267-0.479,7.443-0.733c4.354-0.486,7.246-0.987,7.246-0.987s-2.931-0.167-7.312-0.154
			c-2.191-0.004-4.745,0.036-7.478,0.121c-1.366,0.052-2.78,0.076-4.213,0.154c-1.434,0.071-2.89,0.143-4.346,0.214
			c-1.455,0.095-2.911,0.189-4.343,0.282c-1.433,0.083-2.84,0.223-4.203,0.326c-2.726,0.226-5.267,0.479-7.443,0.732
			c-4.354,0.487-7.246,0.99-7.246,0.99S96.019,256.904,100.399,256.891z"/>
		<path fill="#424242" d="M70.048,52.429c0.269,0.47,0.586,0.907,0.89,1.354l0.896,1.35l1.786,2.705l6.955,10.535
			c-0.565,1.949-1.063,3.891-1.521,5.854c-0.483,2.077-0.916,4.165-1.295,6.264c-0.743,4.201-1.295,8.449-1.404,12.743
			c-0.038,1.072-0.017,2.148,0.007,3.225c0.06,1.077,0.106,2.155,0.253,3.23c0.056,0.539,0.125,1.076,0.233,1.611
			c0.105,0.535,0.169,1.074,0.323,1.603c0.243,1.066,0.588,2.115,1,3.144c0.242,0.502,0.466,1.012,0.723,1.51
			c0.292,0.481,0.582,0.969,0.96,1.39c0.409,0.399,0.765,0.839,1.212,1.188c0.469,0.321,0.875,0.718,1.387,0.958
			c0.979,0.551,2.038,0.914,3.109,1.096c0.543,0.054,1.075,0.171,1.614,0.147l0.084-0.003c0.069,0.035,0.131,0.081,0.201,0.113
			c0.03,0.022,0.744,0.555,1.984,0.555c3.833,0,11.396-4.927,18.972-37.9c0.021-0.07,2.172-7.08,3.275-14.731
			c1.487-10.309,0.467-16.812-3.044-19.336c-0.007-0.003-0.045-0.022-0.098-0.046c-0.588-0.334-5.765-3.12-11.487-1.269
			c-3.899,1.262-7.071,4.389-9.459,9.259L69.62,44.203l-0.375-0.1l0.394,0.479c-0.904,0.599-1.82,1.184-2.711,1.8l-0.198,0.137
			l0.137,0.244L70.048,52.429z M84.642,106.587c0.308-0.21,0.683-0.466,1.112-0.759c0.215-0.146,0.443-0.303,0.685-0.467
			c0.239-0.167,0.448-0.392,0.697-0.59c1.939-1.649,4.525-3.848,7.111-6.047c2.586-2.199,5.172-4.398,7.112-6.047
			c0.491-0.376,0.884-0.788,1.23-1.162c-2.705,8.035-6.461,16.62-10.867,19.698c-0.011,0.005-1.076,0.528-2.429,0.528
			c-1.342,0-2.493-0.497-3.421-1.476c-0.758-0.799-1.352-1.909-1.788-3.309C84.235,106.855,84.414,106.738,84.642,106.587z
			 M102.257,91.051c-0.435,0.287-0.92,0.617-1.384,1.054c-1.939,1.649-4.525,3.848-7.111,6.047
			c-2.586,2.199-5.172,4.398-7.112,6.047c-0.236,0.213-0.492,0.383-0.695,0.593c-0.201,0.211-0.392,0.412-0.571,0.6
			c-0.358,0.377-0.671,0.706-0.928,0.976c-0.167,0.182-0.3,0.326-0.417,0.454c-0.285-0.95-0.498-2.032-0.637-3.246
			c0.084-0.055,0.159-0.103,0.253-0.166c0.354-0.236,0.785-0.522,1.278-0.851c0.247-0.165,0.509-0.339,0.786-0.524
			c0.275-0.187,0.505-0.45,0.789-0.677c2.193-1.892,5.117-4.414,8.041-6.936c2.924-2.522,5.849-5.044,8.042-6.936
			c0.264-0.248,0.562-0.434,0.781-0.686c0.223-0.247,0.435-0.48,0.634-0.7c0.152-0.168,0.29-0.319,0.426-0.47
			c-0.462,1.587-0.978,3.269-1.543,4.988C102.692,90.754,102.484,90.896,102.257,91.051z M86.715,96.7
			c1.174-0.995,2.565-2.132,4.017-3.394c1.458-1.253,2.99-2.619,4.523-3.981c1.519-1.378,3.041-2.754,4.443-4.07
			c1.411-1.307,2.689-2.57,3.804-3.63c1.115-1.062,2.002-1.992,2.643-2.622c0.038-0.04,0.066-0.068,0.102-0.105
			c-0.399,1.606-0.925,3.617-1.564,5.858c-0.334,0.223-0.721,0.481-1.168,0.78c-0.247,0.165-0.509,0.339-0.785,0.524
			c-0.281,0.18-0.509,0.447-0.793,0.672c-2.193,1.892-5.117,4.414-8.041,6.936c-2.924,2.522-5.849,5.044-8.042,6.936
			c-0.266,0.247-0.56,0.436-0.785,0.68c-0.223,0.247-0.435,0.481-0.633,0.701c-0.398,0.439-0.745,0.823-1.03,1.139
			c-0.015,0.016-0.024,0.027-0.039,0.043c-0.11-1.11-0.169-2.312-0.164-3.63c0.171-0.133,0.37-0.289,0.623-0.487
			C84.521,98.479,85.54,97.695,86.715,96.7z M106.315,78.623c-0.097,0.076-0.188,0.147-0.301,0.235
			c-0.694,0.569-1.714,1.352-2.889,2.347c-1.174,0.996-2.566,2.131-4.017,3.394c-1.459,1.253-2.99,2.619-4.522,3.982
			c-1.519,1.378-3.04,2.755-4.442,4.071c-1.41,1.308-2.689,2.57-3.805,3.63c-1.114,1.062-2.002,1.991-2.643,2.621
			c-0.196,0.202-0.355,0.366-0.496,0.511c0.005-0.753,0.029-1.541,0.072-2.361l23.796-21.633
			C106.947,75.974,106.691,77.1,106.315,78.623z M97.511,41.152c2.166-0.703,4.273-0.638,6.019-0.318
			c-2.854,0.825-6.419,3.333-10.009,9.716l-4.443-1.18C91.261,45.038,94.088,42.265,97.511,41.152z M87.77,66.613
			c-0.267,0.881-3.157,10.564-4.666,20.751c-1.035,6.985-1.207,12.561-0.539,16.721c-0.018,0.022-0.04,0.048-0.04,0.048
			s0.027-0.017,0.043-0.026c0.615,3.806,1.936,6.423,3.968,7.812c-0.284-0.082-0.566-0.17-0.849-0.235
			c-0.984-0.316-1.899-0.792-2.694-1.403c-0.421-0.271-0.73-0.688-1.096-1.015c-0.344-0.355-0.6-0.796-0.902-1.181
			c-0.261-0.421-0.486-0.867-0.775-1.27c-0.253-0.43-0.442-0.901-0.665-1.349c-0.374-0.939-0.695-1.906-0.923-2.908
			c-0.145-0.491-0.205-1.007-0.305-1.512c-0.103-0.505-0.169-1.018-0.222-1.534c-0.141-1.025-0.185-2.068-0.244-3.106
			c-0.023-1.043-0.044-2.086-0.007-3.133c0.105-4.185,0.647-8.371,1.38-12.516c0.375-2.072,0.802-4.136,1.28-6.189
			c0.478-2.049,1.001-4.103,1.591-6.104l0.101-0.341l-0.192-0.291l-7.142-10.82l-1.786-2.705l-0.89-1.354
			c-0.291-0.455-0.568-0.919-0.895-1.351l-3.815-4.965c0.732-0.667,1.448-1.353,2.171-2.031L87.77,66.613z"/>
		<path fill="#424242" d="M157.633,52.986c0.493,0.83,1.079,1.597,1.592,2.414l1.593,2.413l6.186,9.371
			c-0.487,1.746-0.913,3.484-1.304,5.241c-0.414,1.87-0.783,3.75-1.104,5.639c-0.628,3.78-1.085,7.601-1.145,11.461
			c-0.025,0.964,0.004,1.932,0.035,2.899c0.062,0.968,0.113,1.937,0.254,2.903c0.054,0.484,0.121,0.967,0.223,1.448
			c0.098,0.48,0.16,0.965,0.302,1.44c0.226,0.958,0.544,1.901,0.919,2.827c0.22,0.453,0.427,0.91,0.656,1.359
			c0.264,0.435,0.527,0.874,0.872,1.252c0.372,0.359,0.7,0.75,1.103,1.065c0.426,0.289,0.799,0.64,1.259,0.859
			c0.887,0.493,1.843,0.817,2.81,0.977c0.489,0.046,0.969,0.146,1.453,0.124l0.258-0.013c0.694,0.312,1.465,0.351,2.197,0.237
			c0.855-0.207,1.646-0.597,2.347-1.104l1.009-0.815l0.876-0.949c0.62-0.605,1.054-1.354,1.569-2.04
			c0.533-0.677,0.892-1.462,1.339-2.192c0.211-0.373,0.433-0.74,0.635-1.117l0.55-1.16c0.361-0.775,0.744-1.542,1.088-2.325
			l0.946-2.384c0.31-0.797,0.651-1.583,0.903-2.399l0.818-2.43c0.26-0.813,0.571-1.612,0.789-2.438l0.709-2.463l0.707-2.463
			c0.238-0.82,0.42-1.656,0.633-2.483l1.229-4.975l-0.002,0.008c1.48-5.044,2.621-10.195,3.162-15.427
			c0.261-2.613,0.369-5.252,0.107-7.87c-0.125-1.089-0.328-2.175-0.663-3.219c-0.002-0.007-0.005-0.013-0.007-0.02
			c-0.064-0.199-0.124-0.399-0.199-0.595c-0.028-0.076-0.068-0.147-0.098-0.222c-0.041-0.101-0.086-0.196-0.13-0.293
			c-0.081-0.179-0.162-0.356-0.256-0.528c-0.09-0.169-0.189-0.327-0.289-0.484c-0.046-0.072-0.083-0.148-0.13-0.218
			c-0.02-0.033-0.047-0.059-0.068-0.091c-0.049-0.068-0.099-0.135-0.149-0.201c-0.132-0.159-0.272-0.312-0.401-0.474
			c-0.007-0.008-0.016-0.015-0.023-0.022c-0.086-0.089-0.18-0.167-0.271-0.25c-0.147-0.126-0.299-0.249-0.443-0.378
			c0,0-0.356-0.186-0.981-0.326c-0.031-0.007-0.062-0.014-0.092-0.021c-0.068-0.014-0.141-0.027-0.215-0.04
			c-0.22-0.168-0.469-0.342-0.766-0.539c-0.2-0.117-0.414-0.242-0.639-0.373c-0.229-0.135-0.51-0.132-0.779-0.209
			c-0.546-0.143-1.148-0.24-1.794-0.312c-0.319-0.056-0.655-0.051-0.996-0.063c-0.342,0.003-0.69-0.047-1.046,0.002
			c-0.711,0.058-1.445,0.118-2.172,0.327c-0.744,0.126-1.436,0.468-2.147,0.741c-0.679,0.338-1.333,0.741-1.95,1.153
			c-0.56,0.486-1.164,0.917-1.646,1.426c-0.465,0.525-0.914,1.032-1.342,1.514c-0.354,0.529-0.688,1.029-0.998,1.491
			c-0.131,0.244-0.353,0.423-0.427,0.672c-0.062,0.251-0.121,0.49-0.177,0.715c-0.088,0.348-0.153,0.651-0.211,0.924
			c-5.457-1.467-10.921-2.905-16.378-4.367l-0.376-0.101l0.248,0.301l0.129,0.157c-0.809,0.524-1.628,1.034-2.424,1.575
			l-0.196,0.134l0.135,0.246L157.633,52.986z M175.998,105.813c-0.369,0.079-0.75,0.125-1.125,0.111
			c-0.381,0.012-0.75-0.065-1.119-0.144c-0.184-0.038-0.352-0.133-0.527-0.196c-0.176-0.069-0.353-0.134-0.5-0.254
			c-0.314-0.207-0.631-0.411-0.866-0.71l-0.385-0.41l-0.298-0.478c-0.207-0.314-0.4-0.634-0.52-0.994
			c-0.094-0.252-0.201-0.498-0.293-0.75c0.069-0.045,0.133-0.086,0.213-0.139c0.277-0.185,0.615-0.409,1.002-0.666
			c0.193-0.128,0.399-0.265,0.616-0.409c0.216-0.146,0.399-0.35,0.622-0.526c1.729-1.471,4.036-3.433,6.343-5.394
			c2.307-1.961,4.613-3.923,6.344-5.394c0.366-0.277,0.659-0.579,0.926-0.87c-0.188,0.545-0.361,1.095-0.557,1.637
			c-0.502,1.397-1.05,2.777-1.627,4.145c-0.289,0.684-0.591,1.361-0.905,2.033c-0.324,0.667-0.627,1.345-0.969,2.003
			c-0.328,0.666-0.69,1.312-1.055,1.959c-0.379,0.637-0.768,1.27-1.199,1.874c-0.432,0.603-0.889,1.189-1.391,1.737
			c-0.498,0.55-1.055,1.044-1.648,1.494c0.283-0.206,0.555-0.424,0.82-0.652c-0.271,0.238-0.543,0.459-0.82,0.652
			c0,0-0.175,0.086-0.465,0.185c0.157-0.056,0.312-0.117,0.465-0.185C176.732,105.622,176.371,105.746,175.998,105.813z
			 M176.459,105.709c-0.101,0.031-0.212,0.061-0.332,0.09C176.238,105.774,176.35,105.744,176.459,105.709z M169.511,92.75
			l21.177-19.252c-0.212,0.942-0.439,1.881-0.669,2.82c-0.081,0.062-0.154,0.119-0.247,0.189c-0.621,0.505-1.539,1.195-2.59,2.079
			c-1.05,0.884-2.298,1.891-3.594,3.015c-1.305,1.114-2.67,2.332-4.037,3.547c-1.354,1.23-2.711,2.458-3.959,3.636
			c-1.254,1.17-2.39,2.302-3.381,3.251c-0.99,0.951-1.776,1.788-2.345,2.353c-0.153,0.161-0.284,0.298-0.4,0.419L169.511,92.75z
			 M170.26,101.687l-0.273-1.095c-0.114-0.359-0.154-0.736-0.209-1.109l-0.124-0.842c0.056-0.035,0.101-0.063,0.16-0.101
			c0.319-0.206,0.708-0.457,1.153-0.744c0.223-0.144,0.459-0.296,0.709-0.458c0.248-0.164,0.449-0.403,0.703-0.604
			c1.956-1.688,4.564-3.937,7.172-6.187c2.608-2.25,5.217-4.499,7.173-6.186c0.234-0.223,0.504-0.384,0.696-0.612
			c0.195-0.223,0.382-0.435,0.557-0.634c0.113-0.128,0.213-0.242,0.315-0.359c-0.478,1.633-0.991,3.255-1.532,4.868
			c-0.156,0.104-0.322,0.214-0.5,0.333c-0.392,0.251-0.83,0.54-1.241,0.932c-1.729,1.471-4.036,3.433-6.343,5.394
			c-2.307,1.961-4.613,3.923-6.344,5.394c-0.209,0.191-0.44,0.339-0.619,0.529c-0.178,0.191-0.346,0.373-0.503,0.543
			c-0.315,0.34-0.591,0.638-0.817,0.882c-0.042,0.045-0.072,0.079-0.11,0.121C170.275,101.73,170.266,101.709,170.26,101.687z
			 M169.463,94.941c0.148-0.114,0.318-0.245,0.533-0.409c0.622-0.505,1.538-1.196,2.589-2.079c1.05-0.884,2.298-1.892,3.595-3.015
			c1.304-1.115,2.67-2.332,4.038-3.546c1.354-1.23,2.711-2.458,3.959-3.636c1.256-1.168,2.39-2.301,3.382-3.251
			c0.99-0.95,1.775-1.788,2.344-2.353c0.019-0.02,0.031-0.033,0.049-0.052c-0.432,1.757-0.888,3.509-1.385,5.25
			c-0.307,0.198-0.665,0.43-1.08,0.698c-0.223,0.144-0.459,0.297-0.708,0.458c-0.254,0.156-0.453,0.399-0.708,0.598
			c-1.956,1.688-4.564,3.937-7.172,6.187c-2.608,2.25-5.217,4.499-7.173,6.186c-0.235,0.221-0.502,0.386-0.7,0.607
			c-0.195,0.223-0.382,0.435-0.557,0.634c-0.335,0.381-0.625,0.712-0.87,0.991c-0.038-0.323-0.041-0.651-0.067-0.976
			c-0.028-0.755-0.111-1.508-0.068-2.265V94.941z M175.766,105.876c-0.008,0.001-0.016,0.003-0.023,0.004
			C175.75,105.879,175.758,105.878,175.766,105.876z M174.914,49.582c0.285-0.331,0.613-0.684,0.866-1.128
			c0.285-0.427,0.595-0.89,0.921-1.38c0.387-0.436,0.794-0.895,1.215-1.37c0.435-0.46,0.971-0.832,1.465-1.27
			c0.545-0.36,1.115-0.712,1.706-1.009c0.62-0.23,1.216-0.538,1.865-0.642c0.628-0.186,1.272-0.234,1.895-0.287
			c0.31-0.047,0.62,0.003,0.921-0.001c0.302,0.011,0.598,0.002,0.883,0.056c0.338,0.038,0.658,0.087,0.969,0.144
			c-0.274,0.084-0.553,0.163-0.818,0.273c-0.327,0.152-0.662,0.291-0.984,0.454l-0.928,0.562c-0.306,0.193-0.578,0.434-0.869,0.649
			c-0.596,0.416-1.065,0.976-1.604,1.457l-0.712,0.817c-0.23,0.279-0.492,0.533-0.695,0.833l-0.638,0.877
			c-0.205,0.297-0.442,0.574-0.621,0.889l-1.101,1.787c-1.41-0.388-2.825-0.76-4.237-1.141
			C174.564,49.978,174.729,49.792,174.914,49.582z M173.492,65.599c-1.012,3.408-1.881,6.854-2.645,10.323
			c-0.76,3.493-1.404,7.014-1.836,10.566c-0.111,0.888-0.2,1.778-0.279,2.669c-0.072,0.892-0.143,1.784-0.174,2.679
			c-0.045,0.894-0.051,1.79-0.047,2.686c0.025,0.895,0.044,1.792,0.139,2.684c0.047,0.618,0.135,1.232,0.237,1.845
			c-0.057,0.069-0.096,0.118-0.096,0.118s0.042-0.025,0.105-0.062c0.044,0.255,0.082,0.511,0.134,0.764
			c0.17,0.842,0.402,1.676,0.719,2.479c-0.036,0.042-0.059,0.067-0.059,0.067s0.024-0.015,0.067-0.041
			c0.011,0.027,0.018,0.056,0.028,0.083c0.18,0.414,0.334,0.84,0.583,1.222l0.342,0.587c0.132,0.184,0.28,0.357,0.421,0.536
			c0.466,0.625,1.094,1.098,1.764,1.494c-0.298-0.083-0.593-0.178-0.888-0.25c-0.878-0.294-1.688-0.73-2.394-1.283
			c-0.369-0.25-0.645-0.622-0.967-0.917c-0.301-0.322-0.529-0.716-0.795-1.061c-0.226-0.38-0.431-0.775-0.691-1.133
			c-0.228-0.382-0.397-0.802-0.6-1.202c-0.338-0.837-0.631-1.7-0.841-2.595c-0.133-0.438-0.191-0.9-0.283-1.351
			c-0.096-0.451-0.159-0.91-0.211-1.372c-0.134-0.917-0.182-1.851-0.243-2.78c-0.029-0.935-0.058-1.869-0.033-2.808
			c0.057-3.752,0.504-7.511,1.123-11.234c0.637-3.718,1.446-7.436,2.459-11.052l0.095-0.338l-0.188-0.286l-6.371-9.651l-1.592-2.413
			c-0.549-0.792-1.024-1.633-1.594-2.412l-3.429-4.385c0.637-0.591,1.259-1.199,1.888-1.8L173.492,65.599z"/>
		<polygon fill="#424242" points="168.039,31.857 167.998,31.746 163.865,32.99 171.388,41.135 		"/>
		<polygon fill="#424242" points="181.76,26.829 177.449,26.618 181.81,36.811 		"/>
		<polygon fill="#424242" points="199.171,30.595 196.289,27.38 192.108,37.649 199.087,30.678 		"/>
		<polygon fill="#424242" points="208.326,42.655 208.439,42.62 207.375,38.437 198.912,45.598 		"/>
		<polygon fill="#424242" points="82.317,31.317 78.597,33.506 87.835,39.635 		"/>
		<polygon fill="#424242" points="95.75,25.512 91.445,25.835 97.033,35.411 		"/>
		<polygon fill="#424242" points="109.824,26.008 106.208,36.489 112.875,29.061 		"/>
		<polygon fill="#424242" points="123.972,38.94 122.908,34.757 114.444,41.918 123.858,38.976 		"/>
		
			<rect x="173.008" y="349.612" transform="matrix(0.609 -0.7931 0.7931 0.609 -207.4564 279.3528)" fill="#424242" width="13.257" height="1"/>
		
			<rect x="182.131" y="345.951" transform="matrix(0.5767 -0.8169 0.8169 0.5767 -203.4568 300.2198)" fill="#424242" width="11.721" height="1"/>
		
			<rect x="225.084" y="342.102" transform="matrix(-0.507 0.862 -0.862 -0.507 645.6663 315.9034)" fill="#424242" width="14.812" height="1.001"/>
		
			<rect x="232.909" y="340.506" transform="matrix(-0.4551 0.8904 -0.8904 -0.4551 649.4552 284.5823)" fill="#424242" width="9.489" height="1"/>
		<g>
			<path fill="#424242" d="M167.203,275.368c-0.548,0-1.105,0.008-1.668,0.022c-7.866,0.209-15.79,1.893-15.715,4.707
				c0.071,2.671,7.448,3.888,14.272,3.888c0.549,0,1.105-0.008,1.67-0.022c4.135-0.11,8.016-0.612,10.928-1.414
				c3.211-0.884,4.82-1.991,4.786-3.293C181.404,276.584,174.027,275.368,167.203,275.368z M176.425,281.584
				c-2.837,0.781-6.634,1.271-10.689,1.378c-0.556,0.015-1.104,0.022-1.644,0.022c-8.496,0-13.24-1.724-13.272-2.915
				c-0.036-1.372,5.554-3.437,14.741-3.68c0.555-0.015,1.104-0.022,1.643-0.022c8.497,0,13.241,1.724,13.272,2.915
				C180.49,279.826,179.438,280.754,176.425,281.584z"/>
			<path fill="#424242" d="M120.485,280.632c-1.43,0-2.914,0.058-4.411,0.172c-4.125,0.316-7.977,1.029-10.846,2.008
				c-2.17,0.74-4.729,1.972-4.602,3.641c0.192,2.511,6.178,3.405,11.716,3.405c1.43,0,2.914-0.058,4.411-0.172
				c4.125-0.316,7.977-1.029,10.845-2.008c2.17-0.74,4.729-1.973,4.602-3.642C132.009,281.526,126.023,280.632,120.485,280.632z
				 M127.277,286.732c-2.792,0.952-6.556,1.646-10.599,1.956c-1.472,0.113-2.93,0.17-4.334,0.17c-6.591,0-10.626-1.262-10.719-2.481
				c-0.044-0.575,0.958-1.605,3.927-2.618c2.792-0.952,6.556-1.647,10.599-1.956c1.472-0.113,2.93-0.17,4.334-0.17
				c6.591,0,10.625,1.261,10.719,2.48C131.248,284.688,130.246,285.719,127.277,286.732z"/>
			<path fill="#424242" d="M157.065,268.793c-0.04-2.312-5.885-3.366-11.299-3.366c-0.251,0-0.505,0.003-0.761,0.007
				c-5.962,0.104-11.977,1.433-11.937,3.773c0.041,2.313,5.889,3.367,11.305,3.367c0.25,0,0.501-0.003,0.755-0.007
				C151.091,272.464,157.106,271.134,157.065,268.793z M145.112,271.568c-0.248,0.004-0.495,0.007-0.738,0.007
				c-6.359,0-10.288-1.389-10.305-2.385c-0.018-1.046,4.24-2.64,10.954-2.756c0.25-0.004,0.498-0.007,0.744-0.007
				c6.355,0,10.282,1.389,10.299,2.384C156.083,269.857,151.825,271.452,145.112,271.568z"/>
			<path fill="#424242" d="M110.369,275.68c5.797-0.489,11.84-2.407,11.621-4.999c-0.194-2.299-5.063-3.114-9.174-3.114
				c-1.015,0-2.064,0.046-3.12,0.135c-5.796,0.489-11.839,2.406-11.621,4.997c0.194,2.3,5.064,3.116,9.176,3.116
				C108.265,275.815,109.314,275.769,110.369,275.68z M99.071,272.615c-0.105-1.249,3.918-3.344,10.709-3.917
				c1.027-0.087,2.049-0.131,3.036-0.131c5.003,0,8.087,1.118,8.178,2.198c0.105,1.25-3.918,3.346-10.709,3.919
				c-1.027,0.087-2.047,0.131-3.034,0.131C102.247,274.815,99.163,273.696,99.071,272.615z"/>
			<path fill="#424242" d="M129.63,261.987c4.369,0,8.792-0.979,8.792-2.853s-4.423-2.854-8.792-2.854
				c-4.369,0-8.792,0.98-8.792,2.854S125.261,261.987,129.63,261.987z M129.63,257.281c5.042,0,7.792,1.225,7.792,1.854
				s-2.75,1.853-7.792,1.853s-7.792-1.224-7.792-1.853S124.588,257.281,129.63,257.281z"/>
			<path fill="#424242" d="M103.333,264.026c4.409-0.218,9.111-1.331,9.016-3.26c-0.087-1.769-4.191-2.396-7.679-2.396
				c-0.524,0-1.064,0.014-1.615,0.041c-2.354,0.116-4.562,0.472-6.216,1.002c-1.902,0.609-2.845,1.369-2.801,2.258
				c0.087,1.769,4.192,2.396,7.68,2.396C102.243,264.067,102.783,264.053,103.333,264.026z M95.038,261.622
				c-0.008-0.159,0.355-0.695,2.107-1.257c1.573-0.504,3.69-0.844,5.96-0.956c0.534-0.026,1.057-0.039,1.565-0.039
				c4.4,0,6.655,0.927,6.68,1.445c0.03,0.614-2.79,1.951-8.067,2.213c-0.534,0.026-1.057,0.039-1.565,0.039
				C97.317,263.067,95.063,262.14,95.038,261.622z"/>
		</g>
	</g>
</g>
</svg>
