<?xml version="1.0" encoding="utf-8"?>
<!-- Generator: Adobe Illustrator 16.0.0, SVG Export Plug-In . SVG Version: 6.00 Build 0)  -->
<!DOCTYPE svg PUBLIC "-//W3C//DTD SVG 1.1//EN" "http://www.w3.org/Graphics/SVG/1.1/DTD/svg11.dtd">
<svg version="1.1" id="Layer_1" xmlns="http://www.w3.org/2000/svg" xmlns:xlink="http://www.w3.org/1999/xlink" x="0px" y="0px"
	 width="57.352px" height="28.676px" viewBox="0 0 57.352 28.676" enable-background="new 0 0 57.352 28.676" xml:space="preserve">
<path fill="#696059" d="M14.338,0C6.42,0,0,6.42,0,14.34c0,7.918,6.42,14.336,14.338,14.336c7.219,0,13.189-5.336,14.188-12.279
	c0.098-0.473,0.145-0.963,0.136-1.465c0.009-0.196,0.015-0.395,0.015-0.592C28.676,6.42,22.258,0,14.338,0z M15.206,16.203
	l-3.211,3.211l0.563-2.883l-4.221-5.174l-2.23,0.028l2.768-2.764l2.586-2.588v2.438l4.993,4.104l2.886-0.504l-3.123,3.121
	l6.348,7.444L15.206,16.203z"/>
<path fill="#9BBAC1" d="M43.014,0c-7.918,0-14.338,6.42-14.338,14.34c0,7.918,6.42,14.336,14.338,14.336
	c7.219,0,13.19-5.336,14.188-12.279c0.097-0.473,0.144-0.963,0.135-1.465c0.009-0.196,0.015-0.395,0.015-0.592
	C57.352,6.42,50.934,0,43.014,0z M43.882,16.203l-3.211,3.211l0.563-2.883l-4.221-5.174l-2.229,0.028l2.767-2.764l2.586-2.588v2.438
	l4.993,4.104l2.886-0.504l-3.123,3.121l6.349,7.444L43.882,16.203z"/>
</svg>
