<?xml version="1.0" encoding="utf-8"?>
<!-- Generator: Adobe Illustrator 16.0.0, SVG Export Plug-In . SVG Version: 6.00 Build 0)  -->
<!DOCTYPE svg PUBLIC "-//W3C//DTD SVG 1.1//EN" "http://www.w3.org/Graphics/SVG/1.1/DTD/svg11.dtd">
<svg version="1.1" id="Layer_1" xmlns="http://www.w3.org/2000/svg" xmlns:xlink="http://www.w3.org/1999/xlink" x="0px" y="0px"
	 width="299.875px" height="3px" viewBox="0 -0.001 299.875 3" enable-background="new 0 -0.001 299.875 3" xml:space="preserve">
<g>
	<circle fill="#FCFBF7" cx="10.767" cy="1.999" r="1"/>
	<circle fill="#FCFBF7" cx="15.65" cy="1.999" r="1"/>
	<circle fill="#FCFBF7" cx="20.533" cy="1.999" r="1"/>
	<circle fill="#FCFBF7" cx="25.416" cy="1.999" r="1"/>
	<circle fill="#FCFBF7" cx="30.299" cy="1.999" r="1"/>
	<circle fill="#FCFBF7" cx="35.183" cy="1.999" r="1"/>
	<circle fill="#FCFBF7" cx="40.066" cy="1.999" r="1"/>
	<circle fill="#FCFBF7" cx="44.949" cy="1.999" r="1"/>
	<circle fill="#FCFBF7" cx="49.832" cy="1.999" r="1"/>
	<circle fill="#FCFBF7" cx="54.716" cy="1.999" r="1"/>
	<circle fill="#FCFBF7" cx="59.598" cy="1.999" r="1"/>
	<circle fill="#FCFBF7" cx="64.481" cy="1.999" r="1"/>
	<circle fill="#FCFBF7" cx="69.365" cy="1.999" r="1"/>
	<circle fill="#FCFBF7" cx="74.248" cy="1.999" r="1"/>
	<circle fill="#FCFBF7" cx="79.132" cy="1.999" r="1"/>
	<circle fill="#FCFBF7" cx="84.015" cy="1.999" r="1"/>
	<circle fill="#FCFBF7" cx="88.897" cy="1.999" r="1"/>
	<circle fill="#FCFBF7" cx="93.781" cy="1.999" r="1"/>
	<circle fill="#FCFBF7" cx="98.664" cy="1.999" r="1"/>
	<circle fill="#FCFBF7" cx="103.547" cy="1.999" r="1"/>
	<circle fill="#FCFBF7" cx="108.43" cy="1.999" r="1"/>
	<circle fill="#FCFBF7" cx="113.313" cy="1.999" r="1"/>
	<circle fill="#FCFBF7" cx="118.197" cy="1.999" r="1"/>
	<circle fill="#FCFBF7" cx="123.08" cy="1.999" r="1"/>
	<circle fill="#FCFBF7" cx="127.963" cy="1.999" r="1"/>
	<circle fill="#FCFBF7" cx="132.847" cy="1.999" r="1"/>
	<circle fill="#FCFBF7" cx="137.73" cy="1.999" r="1"/>
	<circle fill="#FCFBF7" cx="142.613" cy="1.999" r="1"/>
	<circle fill="#FCFBF7" cx="147.496" cy="1.999" r="1"/>
	<circle fill="#FCFBF7" cx="152.379" cy="1.999" r="1"/>
	<circle fill="#FCFBF7" cx="157.263" cy="1.999" r="1"/>
	<circle fill="#FCFBF7" cx="162.146" cy="1.999" r="1"/>
	<circle fill="#FCFBF7" cx="167.029" cy="1.999" r="1"/>
	<circle fill="#FCFBF7" cx="171.912" cy="1.999" r="1"/>
	<circle fill="#FCFBF7" cx="176.795" cy="1.999" r="1"/>
	<circle fill="#FCFBF7" cx="181.678" cy="1.999" r="1"/>
	<circle fill="#FCFBF7" cx="186.562" cy="1.999" r="1"/>
	<circle fill="#FCFBF7" cx="191.445" cy="1.999" r="1"/>
	<circle fill="#FCFBF7" cx="196.328" cy="1.999" r="1"/>
	<circle fill="#FCFBF7" cx="201.211" cy="1.999" r="1"/>
	<circle fill="#FCFBF7" cx="206.094" cy="1.999" r="1"/>
	<circle fill="#FCFBF7" cx="210.978" cy="1.999" r="1"/>
	<circle fill="#FCFBF7" cx="215.861" cy="1.999" r="1"/>
	<circle fill="#FCFBF7" cx="220.744" cy="1.999" r="1"/>
	<circle fill="#FCFBF7" cx="225.627" cy="1.999" r="1"/>
	<circle fill="#FCFBF7" cx="230.511" cy="1.999" r="1"/>
	<circle fill="#FCFBF7" cx="235.394" cy="1.999" r="1"/>
	<circle fill="#FCFBF7" cx="240.276" cy="1.999" r="1"/>
	<circle fill="#FCFBF7" cx="245.16" cy="1.999" r="1"/>
	<circle fill="#FCFBF7" cx="250.043" cy="1.999" r="1"/>
	<circle fill="#FCFBF7" cx="254.926" cy="1.999" r="1"/>
	<circle fill="#FCFBF7" cx="259.81" cy="1.999" r="1"/>
	<circle fill="#FCFBF7" cx="264.693" cy="1.999" r="1"/>
	<circle fill="#FCFBF7" cx="269.576" cy="1.999" r="1"/>
	<circle fill="#FCFBF7" cx="274.459" cy="1.999" r="1"/>
	<circle fill="#FCFBF7" cx="279.342" cy="1.999" r="1"/>
	<circle fill="#FCFBF7" cx="284.226" cy="1.999" r="1"/>
	<circle fill="#FCFBF7" cx="289.108" cy="1.999" r="1"/>
</g>
<g opacity="0.5">
	<circle fill="#4B3F3A" cx="10.767" cy="1" r="1"/>
	<circle fill="#4B3F3A" cx="15.65" cy="1" r="1"/>
	<circle fill="#4B3F3A" cx="20.533" cy="1" r="1"/>
	<circle fill="#4B3F3A" cx="25.416" cy="1" r="1"/>
	<circle fill="#4B3F3A" cx="30.299" cy="1" r="1"/>
	<circle fill="#4B3F3A" cx="35.183" cy="1" r="1"/>
	<circle fill="#4B3F3A" cx="40.066" cy="1" r="1"/>
	<circle fill="#4B3F3A" cx="44.949" cy="1" r="1"/>
	<circle fill="#4B3F3A" cx="49.832" cy="1" r="1"/>
	<circle fill="#4B3F3A" cx="54.716" cy="1" r="1"/>
	<circle fill="#4B3F3A" cx="59.598" cy="1" r="1"/>
	<circle fill="#4B3F3A" cx="64.481" cy="1" r="1"/>
	<circle fill="#4B3F3A" cx="69.365" cy="1" r="1"/>
	<circle fill="#4B3F3A" cx="74.248" cy="1" r="1"/>
	<circle fill="#4B3F3A" cx="79.132" cy="1" r="1"/>
	<circle fill="#4B3F3A" cx="84.015" cy="1" r="1"/>
	<circle fill="#4B3F3A" cx="88.897" cy="1" r="1"/>
	<circle fill="#4B3F3A" cx="93.781" cy="1" r="1"/>
	<circle fill="#4B3F3A" cx="98.664" cy="1" r="1"/>
	<circle fill="#4B3F3A" cx="103.547" cy="1" r="1"/>
	<circle fill="#4B3F3A" cx="108.43" cy="1" r="1"/>
	<circle fill="#4B3F3A" cx="113.313" cy="1" r="1"/>
	<circle fill="#4B3F3A" cx="118.197" cy="1" r="1"/>
	<circle fill="#4B3F3A" cx="123.08" cy="1" r="1"/>
	<circle fill="#4B3F3A" cx="127.963" cy="1" r="1"/>
	<circle fill="#4B3F3A" cx="132.847" cy="1" r="1"/>
	<circle fill="#4B3F3A" cx="137.73" cy="1" r="1"/>
	<circle fill="#4B3F3A" cx="142.613" cy="1" r="1"/>
	<circle fill="#4B3F3A" cx="147.496" cy="1" r="1"/>
	<circle fill="#4B3F3A" cx="152.379" cy="1" r="1"/>
	<circle fill="#4B3F3A" cx="157.263" cy="1" r="1"/>
	<circle fill="#4B3F3A" cx="162.146" cy="1" r="1"/>
	<circle fill="#4B3F3A" cx="167.029" cy="1" r="1"/>
	<circle fill="#4B3F3A" cx="171.912" cy="1" r="1"/>
	<circle fill="#4B3F3A" cx="176.795" cy="1" r="1"/>
	<circle fill="#4B3F3A" cx="181.678" cy="1" r="1"/>
	<circle fill="#4B3F3A" cx="186.562" cy="1" r="1"/>
	<circle fill="#4B3F3A" cx="191.445" cy="1" r="1"/>
	<circle fill="#4B3F3A" cx="196.328" cy="1" r="1"/>
	<circle fill="#4B3F3A" cx="201.211" cy="1" r="1"/>
	<circle fill="#4B3F3A" cx="206.094" cy="1" r="1"/>
	<circle fill="#4B3F3A" cx="210.978" cy="1" r="1"/>
	<circle fill="#4B3F3A" cx="215.861" cy="1" r="1"/>
	<circle fill="#4B3F3A" cx="220.744" cy="1" r="1"/>
	<circle fill="#4B3F3A" cx="225.627" cy="1" r="1"/>
	<circle fill="#4B3F3A" cx="230.511" cy="1" r="1"/>
	<circle fill="#4B3F3A" cx="235.394" cy="1" r="1"/>
	<circle fill="#4B3F3A" cx="240.276" cy="1" r="1"/>
	<circle fill="#4B3F3A" cx="245.16" cy="1" r="1"/>
	<circle fill="#4B3F3A" cx="250.043" cy="1" r="1"/>
	<circle fill="#4B3F3A" cx="254.926" cy="1" r="1"/>
	<circle fill="#4B3F3A" cx="259.81" cy="1" r="1"/>
	<circle fill="#4B3F3A" cx="264.693" cy="1" r="1"/>
	<circle fill="#4B3F3A" cx="269.576" cy="1" r="1"/>
	<circle fill="#4B3F3A" cx="274.459" cy="1" r="1"/>
	<circle fill="#4B3F3A" cx="279.342" cy="1" r="1"/>
	<circle fill="#4B3F3A" cx="284.226" cy="1" r="1"/>
	<circle fill="#4B3F3A" cx="289.108" cy="1" r="1"/>
</g>
</svg>
