<?xml version="1.0" encoding="utf-8"?>
<!-- Generator: Adobe Illustrator 16.0.0, SVG Export Plug-In . SVG Version: 6.00 Build 0)  -->
<!DOCTYPE svg PUBLIC "-//W3C//DTD SVG 1.1//EN" "http://www.w3.org/Graphics/SVG/1.1/DTD/svg11.dtd">
<svg version="1.1" id="Layer_1" xmlns="http://www.w3.org/2000/svg" xmlns:xlink="http://www.w3.org/1999/xlink" x="0px" y="0px"
	 width="160px" height="80px" viewBox="0 0 160 80" enable-background="new 0 0 160 80" xml:space="preserve">
<circle fill="#FFFFFF" cx="121.814" cy="40.007" r="29.815"/>
<g id="social_x5F_0">
	<g>
		<path fill="#D36955" d="M119.983,79.989c22.088,0,39.995-17.905,39.995-39.995c0-10.647-4.17-20.315-10.953-27.483l-56.89,56.176
			C99.336,75.679,109.153,79.989,119.983,79.989z"/>
		<circle fill="#D7503E" cx="119.983" cy="39.995" r="39.995"/>
		<path fill="#FFFFFF" d="M133.642,19.051h-18.345c-4.805,0-10.854,0.706-15.945,4.837c-3.81,3.253-5.699,7.75-5.699,11.795
			c0,6.862,5.348,13.817,14.792,13.817c0.896,0,1.858-0.094,2.852-0.191c-0.45,1.045-0.898,1.928-0.898,3.417
			c0,2.748,1.442,4.423,2.688,6.005c-4.031,0.254-11.493,0.697-17.032,4.049c-2.374,1.388-3.997,3.064-5.067,4.781
			c1.864,1.96,3.922,3.732,6.148,5.283c-0.05-0.389-0.084-0.78-0.084-1.183c0-6.261,5.699-8.378,7.651-9.073
			c3.746-1.231,8.549-1.393,9.349-1.393c0.895,0,1.344,0,2.049,0.065c6.787,4.773,9.701,7.144,9.701,11.634
			c0,2.875-1.264,5.358-3.717,7.062c1.867-0.097,3.694-0.328,5.486-0.672c2.788-2.875,4.216-6.361,4.216-9.836
			c0-6.07-3.553-9.075-7.491-12.3l-3.202-2.466c-0.993-0.788-2.305-1.867-2.305-3.796c0-1.926,1.312-3.159,2.496-4.299
			c3.714-2.908,7.461-5.973,7.461-12.485c0-6.696-4.261-10.215-6.307-11.887h5.506L133.642,19.051z M118.69,44.57
			c-1.439,1.389-3.842,2.465-6.05,2.465c-7.685,0-11.143-9.768-11.143-15.681c0-2.275,0.448-4.647,1.953-6.494
			c1.439-1.76,3.937-2.905,6.242-2.905c7.396,0,11.207,9.843,11.207,16.197C120.9,39.733,120.74,42.546,118.69,44.57z"/>
		<path fill="#FFFFFF" d="M118.69,44.57c-1.095,1.056-2.745,1.927-4.445,2.287l-3.292,3.25c-0.31,0.75-0.556,1.518-0.556,2.619
			c0,2.748,1.442,4.423,2.688,6.005c-3.139,0.198-8.35,0.517-13.12,2.226l-7.849,7.749c1.554,1.509,3.235,2.885,5.017,4.125
			c-0.051-0.383-0.083-0.771-0.083-1.169c0-6.261,5.699-8.378,7.651-9.073c3.746-1.231,8.549-1.393,9.349-1.393
			c0.895,0,1.344,0,2.049,0.065c6.787,4.773,9.701,7.146,9.701,11.634c0,2.875-1.264,5.358-3.717,7.062
			c1.867-0.097,3.694-0.328,5.486-0.672c2.788-2.875,4.216-6.361,4.216-9.836c0-6.07-3.553-9.075-7.491-12.3l-3.202-2.466
			c-0.993-0.788-2.305-1.867-2.305-3.796c0-1.926,1.312-3.159,2.496-4.299c3.714-2.908,7.461-5.972,7.461-12.485
			c0-0.516-0.033-1.006-0.081-1.485l-7.945,7.846C120.48,41.823,119.935,43.342,118.69,44.57z"/>
		<path fill="#FFFFFF" d="M158.947,30.989c-0.058-0.254-0.112-0.512-0.176-0.764c-0.101-0.399-0.214-0.792-0.325-1.186
			c-0.063-0.22-0.121-0.44-0.187-0.657c-0.047-0.158-0.103-0.312-0.151-0.468h-6.972v-8.863h-4.035v8.863h-8.605v3.821h8.605v8.946
			h4.035v-8.946h7.978C159.059,31.487,159.005,31.238,158.947,30.989z"/>
	</g>
</g>
<g id="social_x5F_0_1_">
	<g>
		<path fill="#D36955" d="M39.995,79.989c22.089,0,39.995-17.905,39.995-39.995c0-10.647-4.169-20.315-10.954-27.483L12.147,68.688
			C19.347,75.679,29.165,79.989,39.995,79.989z"/>
		<circle fill="#9BBAC1" cx="39.995" cy="39.995" r="39.995"/>
		<path fill="#FFFFFF" d="M53.654,19.051H35.309c-4.805,0-10.854,0.706-15.945,4.837c-3.81,3.253-5.699,7.75-5.699,11.795
			c0,6.862,5.348,13.817,14.792,13.817c0.898,0,1.859-0.094,2.851-0.191c-0.449,1.045-0.896,1.928-0.896,3.417
			c0,2.748,1.441,4.423,2.688,6.005c-4.032,0.254-11.494,0.697-17.034,4.049c-2.374,1.388-3.996,3.064-5.067,4.781
			c1.864,1.96,3.922,3.732,6.149,5.283c-0.05-0.389-0.084-0.78-0.084-1.183c0-6.261,5.699-8.378,7.65-9.073
			c3.746-1.231,8.549-1.393,9.35-1.393c0.893,0,1.342,0,2.048,0.065c6.786,4.773,9.701,7.144,9.701,11.634
			c0,2.875-1.264,5.358-3.716,7.062c1.866-0.097,3.694-0.328,5.485-0.672c2.79-2.875,4.217-6.361,4.217-9.836
			c0-6.07-3.552-9.075-7.492-12.3l-3.201-2.466c-0.994-0.788-2.306-1.867-2.306-3.796c0-1.926,1.312-3.159,2.497-4.299
			c3.714-2.908,7.46-5.973,7.46-12.485c0-6.696-4.26-10.215-6.306-11.887h5.506L53.654,19.051z M38.702,44.57
			c-1.439,1.389-3.842,2.465-6.049,2.465c-7.686,0-11.143-9.768-11.143-15.681c0-2.275,0.449-4.647,1.954-6.494
			c1.44-1.76,3.936-2.905,6.242-2.905c7.396,0,11.206,9.843,11.206,16.197C40.911,39.733,40.752,42.546,38.702,44.57z"/>
		<path fill="#FFFFFF" d="M38.702,44.57c-1.094,1.056-2.746,1.927-4.445,2.287l-3.292,3.25c-0.31,0.75-0.555,1.518-0.555,2.619
			c0,2.748,1.441,4.423,2.688,6.005c-3.14,0.198-8.35,0.517-13.12,2.226l-7.85,7.749c1.554,1.509,3.235,2.885,5.016,4.125
			c-0.05-0.383-0.082-0.771-0.082-1.169c0-6.261,5.699-8.378,7.65-9.073c3.746-1.231,8.549-1.393,9.35-1.393
			c0.893,0,1.342,0,2.048,0.065c6.786,4.773,9.701,7.146,9.701,11.634c0,2.875-1.264,5.358-3.716,7.062
			c1.866-0.097,3.694-0.328,5.485-0.672c2.79-2.875,4.217-6.361,4.217-9.836c0-6.07-3.552-9.075-7.492-12.3l-3.201-2.466
			c-0.994-0.788-2.306-1.867-2.306-3.796c0-1.926,1.312-3.159,2.497-4.299c3.714-2.908,7.46-5.972,7.46-12.485
			c0-0.516-0.032-1.006-0.08-1.485l-7.946,7.846C40.491,41.823,39.946,43.342,38.702,44.57z"/>
		<path fill="#FFFFFF" d="M78.959,30.989c-0.059-0.254-0.113-0.512-0.176-0.764c-0.1-0.399-0.213-0.792-0.325-1.186
			c-0.062-0.22-0.121-0.44-0.187-0.657c-0.046-0.158-0.102-0.312-0.152-0.468h-6.973v-8.863h-4.034v8.863h-8.605v3.821h8.605v8.946
			h4.034v-8.946h7.977C79.07,31.487,79.016,31.238,78.959,30.989z"/>
	</g>
</g>
<g id="Layer_1_1_">
</g>
</svg>
