<?xml version="1.0" encoding="utf-8"?>
<!-- Generator: Adobe Illustrator 16.0.0, SVG Export Plug-In . SVG Version: 6.00 Build 0)  -->
<!DOCTYPE svg PUBLIC "-//W3C//DTD SVG 1.1//EN" "http://www.w3.org/Graphics/SVG/1.1/DTD/svg11.dtd">
<svg version="1.1" id="Layer_1" xmlns="http://www.w3.org/2000/svg" xmlns:xlink="http://www.w3.org/1999/xlink" x="0px" y="0px"
	 width="160px" height="80px" viewBox="0 0 160 80" enable-background="new 0 0 160 80" xml:space="preserve">
<circle fill="#FFFFFF" cx="38.816" cy="40.007" r="29.816"/>
<circle fill="#FFFFFF" cx="121.815" cy="40.007" r="29.815"/>
<path fill="#9BBAC1" d="M39.999,0C17.905,0,0.001,17.907,0.001,40c0,22.088,17.901,40,39.997,40c22.096,0,40.003-17.906,40.003-40
	C80.001,17.907,62.092,0,39.999,0 M60.667,45.004H45.354v15.312H35.147V45.004H19.83V34.789h15.315V19.477h10.207v15.31h15.312
	L60.667,45.004L60.667,45.004z"/>
<path fill="#D7503E" d="M119.996,0C97.905,0,79.999,17.907,79.999,40c0,22.088,17.902,40,39.998,40s40.002-17.906,40.002-40
	C159.998,17.907,142.092,0,119.996,0 M140.664,45.004h-15.312v15.312h-10.207V45.004H99.827V34.789h15.314V19.477h10.207v15.31
	h15.312L140.664,45.004L140.664,45.004z"/>
</svg>
