<?xml version="1.0" encoding="utf-8"?>
<!-- Generator: Adobe Illustrator 16.0.0, SVG Export Plug-In . SVG Version: 6.00 Build 0)  -->
<!DOCTYPE svg PUBLIC "-//W3C//DTD SVG 1.1//EN" "http://www.w3.org/Graphics/SVG/1.1/DTD/svg11.dtd">
<svg version="1.1" id="Layer_1" xmlns="http://www.w3.org/2000/svg" xmlns:xlink="http://www.w3.org/1999/xlink" x="0px" y="0px"
	 width="160px" height="80px" viewBox="0 0 160 80" enable-background="new 0 0 160 80" xml:space="preserve">
<path display="none" fill="#9BBAC1" d="M40-1.757c-22.556,0-40.835,18.282-40.835,40.838c0,22.55,18.276,40.834,40.835,40.834
	s40.838-18.282,40.838-40.834C80.835,16.524,62.556-1.757,40-1.757 M61.101,44.189H45.465v15.635H35.044V44.189H19.406V33.76h15.636
	V18.13h10.421v15.63h15.635v10.43H61.101z"/>
<path display="none" fill="#9BBAC1" d="M39.997,0.082c-22.041,0-39.914,17.87-39.914,39.919c0,22.043,17.873,39.914,39.914,39.914
	c22.047,0,39.917-17.87,39.917-39.914C79.914,17.952,62.044,0.082,39.997,0.082 M32.245,55.48h-0.005
	c-0.86,0.855-2.028,1.387-3.339,1.387c-1.313,0-2.482-0.531-3.342-1.387c-0.857-0.861-1.388-2.027-1.388-3.324
	s0.531-2.475,1.388-3.326c0.866-0.859,2.029-1.385,3.342-1.385c1.311,0,2.479,0.525,3.339,1.385
	c0.868,0.857,1.389,2.029,1.391,3.326C33.628,53.453,33.102,54.621,32.245,55.48 M40.835,56.902v-0.011
	c-0.014-4.46-1.745-8.656-4.889-11.787c-3.136-3.147-7.335-4.886-11.768-4.892V33.42c6.475,0,12.335,2.63,16.584,6.89
	c4.26,4.26,6.89,10.125,6.896,16.598L40.835,56.902L40.835,56.902z M52.947,56.902C52.942,41.028,40.044,28.12,24.192,28.108v-6.792
	c9.8,0.005,18.686,3.99,25.138,10.44c6.439,6.445,10.429,15.337,10.435,25.146H52.947z"/>
<path display="none" fill="#9BBAC1" d="M40,0.661c-21.729,0-39.34,17.614-39.34,39.335c0,21.727,17.611,39.34,39.34,39.34
	s39.338-17.613,39.338-39.34C79.338,18.275,61.729,0.661,40,0.661 M51.414,23.979h-5.521c-1.094,0-2.195,1.144-2.195,1.993v5.676
	h7.708C51.097,36,50.46,39.982,50.46,39.982h-6.801v24.673H33.522V39.982h-4.931v-8.303h4.931v-6.79
	c0-1.244-0.25-9.556,10.379-9.556h7.51v8.646H51.414z"/>
<path display="none" fill="#9BBAC1" d="M40,0.102c-22.033,0-39.897,17.864-39.897,39.897S17.967,79.896,40,79.896
	c20.093,0,36.706-14.854,39.482-34.173c0.267-1.316,0.393-2.674,0.37-4.076c0.028-0.543,0.044-1.094,0.044-1.648
	C79.894,17.966,62.036,0.102,40,0.102z M58.362,32.758c0.017,0.373,0.022,0.743,0.022,1.113c0,11.393-8.668,24.526-24.518,24.526
	c-4.873,0-9.4-1.428-13.215-3.88c0.673,0.082,1.355,0.12,2.051,0.12c4.038,0,7.755-1.374,10.71-3.689
	c-3.768-0.062-6.957-2.56-8.059-5.979c0.526,0.103,1.074,0.158,1.625,0.158c0.782,0,1.547-0.108,2.271-0.303
	c-3.946-0.791-6.918-4.274-6.918-8.449c0-0.047,0-0.075,0-0.108c1.164,0.637,2.494,1.032,3.907,1.077
	c-2.315-1.55-3.837-4.185-3.837-7.173c0-1.581,0.423-3.061,1.168-4.338c4.249,5.217,10.604,8.643,17.767,9.007
	c-0.147-0.632-0.223-1.294-0.223-1.967c0-4.761,3.859-8.621,8.626-8.621c2.479,0,4.711,1.049,6.289,2.724
	c1.967-0.39,3.809-1.102,5.479-2.093c-0.646,2.012-2.012,3.698-3.793,4.767c1.745-0.2,3.409-0.667,4.95-1.352
	C61.504,30.026,60.049,31.542,58.362,32.758z"/>
<path display="none" fill="#9BBAC1" d="M40-0.691c-22.475,0-40.696,18.218-40.696,40.693c0,16.663,10.026,30.97,24.359,37.27
	c-0.114-2.838-0.022-6.255,0.707-9.341c0.782-3.306,5.242-22.169,5.242-22.169s-1.308-2.605-1.308-6.442
	c0-6.033,3.503-10.532,7.855-10.532c3.701,0,5.484,2.777,5.484,6.108c0,3.723-2.371,9.282-3.592,14.437
	c-1.016,4.32,2.167,7.836,6.425,7.836c7.711,0,12.903-9.904,12.903-21.635c0-8.918-6.005-15.594-16.93-15.594
	c-12.349,0-20.038,9.208-20.038,19.484c0,3.548,1.049,6.046,2.686,7.983c0.754,0.891,0.857,1.249,0.587,2.271
	c-0.198,0.745-0.643,2.549-0.832,3.261c-0.267,1.033-1.104,1.402-2.034,1.021c-5.685-2.32-8.331-8.549-8.331-15.549
	c0-11.556,9.745-25.419,29.084-25.419c15.538,0,25.761,11.245,25.761,23.31c0,15.963-8.874,27.893-21.963,27.893
	c-4.386,0-8.518-2.379-9.937-5.075c0,0-2.368,9.374-2.863,11.187c-0.86,3.135-2.549,6.271-4.093,8.717
	c3.654,1.083,7.53,1.67,11.537,1.67c22.467-0.003,40.682-18.221,40.682-40.693C80.695,17.523,62.475-0.691,40-0.691"/>
<circle fill="#FFFFFF" cx="39.817" cy="40.007" r="29.816"/>
<circle fill="#FFFFFF" cx="120.814" cy="40.007" r="29.815"/>
<g>
	<rect x="28.266" y="21.013" fill="#9BBAC1" width="1.402" height="8.729"/>
	<path fill="#9BBAC1" d="M21.009,23.598v6.142h1.402v-8.487C21.587,21.667,21.009,22.56,21.009,23.598z"/>
	<path fill="#9BBAC1" d="M52.065,29.417h3.876c1.45,0,2.635-1.188,2.635-2.632v-2.816c0-1.45-1.186-2.632-2.635-2.632h-3.876
		c-1.45,0-2.635,1.185-2.635,2.632v2.816C49.43,28.231,50.616,29.417,52.065,29.417z"/>
	<rect x="23.43" y="21.013" fill="#9BBAC1" width="1.399" height="8.729"/>
	<rect x="25.848" y="21.013" fill="#9BBAC1" width="1.405" height="8.729"/>
	<path fill="#9BBAC1" d="M40,0.001c-22.091,0-40,17.912-40,39.997c0,22.091,17.909,40,40,40c22.088,0,40-17.908,40-40
		C80,17.913,62.088,0.001,40,0.001z M18.952,22.668c0-2.04,1.67-3.717,3.718-3.717h34.66c2.048,0,3.718,1.678,3.718,3.717v8.69
		H48.014c-1.836-2.418-4.739-3.987-8.017-3.987c-3.275,0-6.177,1.564-8.014,3.987H18.95L18.952,22.668L18.952,22.668z
		 M48.815,37.419c0,4.867-3.957,8.823-8.821,8.823c-4.864,0-8.818-3.956-8.818-8.823c0-4.855,3.954-8.815,8.818-8.815
		C44.861,28.604,48.815,32.563,48.815,37.419z M61.045,57.334c0,2.043-1.669,3.713-3.712,3.713H22.667
		c-2.042,0-3.715-1.67-3.715-3.713V32.853h12.096c-0.698,1.375-1.096,2.924-1.096,4.569c0,5.549,4.5,10.048,10.045,10.048
		c5.549,0,10.048-4.499,10.048-10.048c0-1.645-0.404-3.189-1.102-4.569h12.104v24.481H61.045z"/>
	<circle fill="#9BBAC1" cx="40" cy="37.425" r="7.198"/>
</g>
<g>
	<rect x="108.269" y="21.013" fill="#D7503E" width="1.402" height="8.729"/>
	<path fill="#D7503E" d="M101.006,23.598v6.142h1.402v-8.487C101.588,21.667,101.006,22.56,101.006,23.598z"/>
	<path fill="#D7503E" d="M132.065,29.417h3.876c1.449,0,2.635-1.188,2.635-2.632v-2.816c0-1.45-1.186-2.632-2.635-2.632h-3.876
		c-1.45,0-2.636,1.185-2.636,2.632v2.816C129.43,28.231,130.615,29.417,132.065,29.417z"/>
	<rect x="103.43" y="21.013" fill="#D7503E" width="1.396" height="8.729"/>
	<rect x="105.851" y="21.013" fill="#D7503E" width="1.402" height="8.729"/>
	<path fill="#D7503E" d="M120,0.001c-22.092,0-40,17.912-40,39.997c0,22.091,17.908,40,40,40c22.088,0,40-17.908,40-40
		C160,17.913,142.088,0.001,120,0.001z M98.952,22.668c0-2.04,1.67-3.717,3.718-3.717h34.657c2.048,0,3.718,1.678,3.718,3.717v8.69
		h-13.033c-1.837-2.418-4.739-3.987-8.018-3.987c-3.277,0-6.18,1.564-8.017,3.987H98.943v-8.69H98.952z M128.815,37.419
		c0,4.867-3.957,8.823-8.821,8.823c-4.863,0-8.82-3.956-8.82-8.823c0-4.855,3.957-8.815,8.82-8.815
		C124.858,28.604,128.815,32.563,128.815,37.419z M141.045,57.334c0,2.043-1.67,3.713-3.712,3.713h-34.669
		c-2.042,0-3.712-1.67-3.712-3.713V32.853h12.093c-0.695,1.375-1.093,2.924-1.093,4.569c0,5.549,4.499,10.048,10.042,10.048
		c5.549,0,10.049-4.499,10.049-10.048c0-1.645-0.404-3.189-1.103-4.569h12.104V57.334L141.045,57.334z"/>
	<circle fill="#D7503E" cx="120" cy="37.425" r="7.198"/>
</g>
</svg>
