<?xml version="1.0" encoding="utf-8"?>
<!-- Generator: Adobe Illustrator 16.0.0, SVG Export Plug-In . SVG Version: 6.00 Build 0)  -->
<!DOCTYPE svg PUBLIC "-//W3C//DTD SVG 1.1//EN" "http://www.w3.org/Graphics/SVG/1.1/DTD/svg11.dtd">
<svg version="1.1" id="Layer_1" xmlns="http://www.w3.org/2000/svg" xmlns:xlink="http://www.w3.org/1999/xlink" x="0px" y="0px"
	 width="160px" height="80px" viewBox="0 0 160 80" enable-background="new 0 0 160 80" xml:space="preserve">
<path display="none" fill="#9BBAC1" d="M40-1.852c-22.605,0-40.935,18.326-40.935,40.94c0,22.605,18.321,40.935,40.935,40.935
	s40.94-18.326,40.94-40.935C80.938,16.474,62.614-1.852,40-1.852 M61.152,44.207H45.481V59.88H35.035V44.207H19.359V33.752h15.674
	V18.081h10.446v15.668h15.67v10.458H61.152z"/>
<path display="none" fill="#9BBAC1" d="M40-0.008c-22.095,0-40.011,17.914-40.011,40.017C-0.011,62.105,17.906,80.02,40,80.02
	c22.103,0,40.017-17.914,40.017-40.011C80.014,17.905,62.101-0.008,40-0.008 M32.229,55.523h-0.005
	c-0.865,0.855-2.034,1.389-3.347,1.389c-1.319,0-2.491-0.533-3.35-1.389c-0.859-0.865-1.392-2.033-1.392-3.334
	c0-1.3,0.533-2.479,1.392-3.33c0.867-0.865,2.033-1.389,3.35-1.389c1.313,0,2.485,0.523,3.347,1.389
	c0.87,0.859,1.392,2.033,1.395,3.33C33.616,53.492,33.088,54.664,32.229,55.523 M40.84,56.951v-0.012
	c-0.014-4.471-1.749-8.674-4.901-11.812c-3.144-3.158-7.355-4.901-11.796-4.906v-6.812c6.491,0,12.366,2.633,16.625,6.907
	c4.271,4.271,6.909,10.153,6.915,16.639L40.84,56.951L40.84,56.951z M52.982,56.951c-0.006-15.914-12.935-28.854-28.826-28.865
	v-6.809c9.824,0.006,18.731,4.003,25.199,10.466c6.455,6.46,10.455,15.377,10.46,25.208H52.982z"/>
<path display="none" fill="#9BBAC1" d="M40.003,0.572c-21.786,0-39.439,17.657-39.439,39.431c0,21.782,17.654,39.439,39.439,39.439
	c21.782,0,39.434-17.657,39.434-39.439C79.437,18.229,61.786,0.572,40.003,0.572 M51.445,23.947h-5.534
	c-1.096,0-2.201,1.146-2.201,2v5.688h7.729c-0.31,4.362-0.949,8.354-0.949,8.354h-6.82v24.734H33.509V39.989h-4.942v-8.321h4.942
	v-6.806c0-1.247-0.253-9.579,10.402-9.579h7.529L51.445,23.947L51.445,23.947z"/>
<circle fill="#FFFFFF" cx="38.816" cy="40.007" r="29.816"/>
<circle fill="#FFFFFF" cx="121.815" cy="40.007" r="29.815"/>
<path fill="#9BBAC1" d="M40,0.011c-22.086,0-39.995,17.908-39.995,39.997c0,22.086,17.908,39.995,39.995,39.995
	c20.145,0,36.795-14.89,39.579-34.257c0.268-1.319,0.394-2.681,0.371-4.086c0.028-0.545,0.047-1.1,0.047-1.652
	C79.995,17.919,62.092,0.011,40,0.011z M58.411,32.748c0.017,0.374,0.022,0.745,0.022,1.116c0,11.42-8.689,24.583-24.577,24.583
	c-4.884,0-9.423-1.431-13.247-3.888c0.672,0.078,1.356,0.119,2.053,0.119c4.047,0,7.774-1.378,10.739-3.699
	c-3.777-0.061-6.974-2.565-8.078-5.994c0.527,0.104,1.077,0.162,1.629,0.162c0.784,0,1.554-0.109,2.276-0.305
	c-3.955-0.791-6.934-4.283-6.934-8.468c0-0.048,0-0.073,0-0.109c1.166,0.639,2.499,1.035,3.916,1.082
	c-2.321-1.556-3.846-4.195-3.846-7.191c0-1.584,0.421-3.071,1.171-4.352c4.256,5.23,10.63,8.664,17.81,9.029
	c-0.147-0.633-0.223-1.297-0.223-1.972c0-4.772,3.869-8.641,8.65-8.641c2.485,0,4.72,1.051,6.304,2.73
	c1.972-0.391,3.819-1.104,5.492-2.098c-0.647,2.017-2.017,3.707-3.802,4.778c1.749-0.198,3.42-0.669,4.962-1.353
	C61.56,30.006,60.098,31.529,58.411,32.748z"/>
<path fill="#D7503E" d="M120.009,0.011c-22.087,0-39.995,17.908-39.995,39.997c0,22.086,17.908,39.995,39.995,39.995
	c20.146,0,36.795-14.89,39.579-34.257c0.268-1.319,0.393-2.681,0.371-4.086c0.027-0.545,0.047-1.1,0.047-1.652
	C160.006,17.919,142.104,0.011,120.009,0.011z M138.422,32.748c0.017,0.374,0.021,0.745,0.021,1.116
	c0,11.42-8.688,24.583-24.576,24.583c-4.885,0-9.424-1.431-13.248-3.888c0.673,0.078,1.355,0.119,2.054,0.119
	c4.048,0,7.774-1.378,10.739-3.699c-3.777-0.061-6.974-2.565-8.078-5.994c0.527,0.104,1.076,0.162,1.629,0.162
	c0.783,0,1.554-0.109,2.275-0.305c-3.955-0.791-6.934-4.283-6.934-8.468c0-0.048,0-0.073,0-0.109
	c1.166,0.639,2.499,1.035,3.916,1.082c-2.32-1.556-3.847-4.195-3.847-7.191c0-1.584,0.421-3.071,1.172-4.352
	c4.257,5.23,10.63,8.664,17.81,9.029c-0.147-0.633-0.223-1.297-0.223-1.972c0-4.772,3.869-8.641,8.65-8.641
	c2.484,0,4.719,1.051,6.304,2.73c1.972-0.391,3.819-1.104,5.492-2.098c-0.647,2.017-2.017,3.707-3.802,4.778
	c1.749-0.198,3.42-0.669,4.963-1.353C141.57,30.006,140.106,31.529,138.422,32.748z"/>
</svg>
