<?xml version="1.0" encoding="utf-8"?>
<!-- Generator: Adobe Illustrator 16.0.0, SVG Export Plug-In . SVG Version: 6.00 Build 0)  -->
<!DOCTYPE svg PUBLIC "-//W3C//DTD SVG 1.1//EN" "http://www.w3.org/Graphics/SVG/1.1/DTD/svg11.dtd">
<svg version="1.1" id="Layer_1" xmlns="http://www.w3.org/2000/svg" xmlns:xlink="http://www.w3.org/1999/xlink" x="0px" y="0px"
	 width="160px" height="80px" viewBox="0 0 160 80" enable-background="new 0 0 160 80" xml:space="preserve">
<path display="none" fill="#9BBAC1" d="M39.999-1.843c-22.597,0-40.92,18.32-40.92,40.926c0,22.597,18.314,40.92,40.92,40.92
	s40.925-18.32,40.925-40.92C80.922,16.477,62.604-1.843,39.999-1.843 M61.143,44.199H45.478v15.668H35.035V44.199H19.364V33.749
	h15.668V18.083h10.443v15.663h15.666v10.454H61.143z"/>
<circle fill="#FFFFFF" cx="38.816" cy="40.007" r="29.816"/>
<circle fill="#FFFFFF" cx="121.815" cy="40.007" r="29.815"/>
<path fill="#9BBAC1" d="M39.999,0C17.912,0,0.001,17.907,0.001,40.003C0.001,62.093,17.912,80,39.999,80
	c22.096,0,40.003-17.907,40.003-39.997C79.999,17.907,62.091,0,39.999,0 M32.23,55.512h-0.005c-0.865,0.856-2.033,1.389-3.346,1.389
	c-1.319,0-2.49-0.532-3.349-1.389c-0.859-0.864-1.391-2.032-1.391-3.332c0-1.299,0.532-2.479,1.391-3.329
	c0.867-0.864,2.033-1.389,3.349-1.389c1.313,0,2.484,0.524,3.346,1.389c0.87,0.858,1.391,2.032,1.394,3.329
	C33.616,53.482,33.089,54.653,32.23,55.512 M40.838,56.939v-0.011c-0.014-4.47-1.749-8.673-4.899-11.81
	c-3.143-3.156-7.353-4.899-11.792-4.904v-6.81c6.489,0,12.361,2.632,16.619,6.904c4.269,4.269,6.907,10.149,6.912,16.633
	L40.838,56.939L40.838,56.939z M52.976,56.939C52.97,41.031,40.046,28.096,24.16,28.085v-6.807
	c9.821,0.006,18.725,4.001,25.191,10.462c6.452,6.458,10.451,15.373,10.457,25.199H52.976z"/>
<path fill="#D7503E" d="M119.996,0C97.908,0,79.999,17.907,79.999,40.005c0,22.09,17.91,39.998,39.998,39.998
	c22.096,0,40.002-17.907,40.002-39.998C159.998,17.907,142.092,0,119.996,0 M112.23,55.512h-0.006
	c-0.865,0.856-2.033,1.389-3.346,1.389c-1.319,0-2.49-0.532-3.35-1.389c-0.859-0.864-1.391-2.032-1.391-3.332
	c0-1.299,0.531-2.479,1.391-3.329c0.867-0.864,2.033-1.389,3.35-1.389c1.312,0,2.484,0.524,3.346,1.389
	c0.869,0.858,1.391,2.032,1.395,3.329C113.615,53.482,113.086,54.653,112.23,55.512 M120.838,56.939v-0.011
	c-0.014-4.47-1.748-8.673-4.899-11.81c-3.143-3.156-7.353-4.899-11.792-4.904v-6.81c6.488,0,12.361,2.632,16.619,6.904
	c4.27,4.269,6.906,10.149,6.912,16.633L120.838,56.939L120.838,56.939z M132.973,56.939c-0.005-15.908-12.93-28.843-28.814-28.854
	v-6.807c9.82,0.006,18.724,4.001,25.189,10.462c6.453,6.458,10.451,15.373,10.457,25.199H132.973z"/>
</svg>
