<?xml version="1.0" encoding="utf-8"?>
<!-- Generator: Adobe Illustrator 16.0.0, SVG Export Plug-In . SVG Version: 6.00 Build 0)  -->
<!DOCTYPE svg PUBLIC "-//W3C//DTD SVG 1.1//EN" "http://www.w3.org/Graphics/SVG/1.1/DTD/svg11.dtd">
<svg version="1.1" id="Layer_1" xmlns="http://www.w3.org/2000/svg" xmlns:xlink="http://www.w3.org/1999/xlink" x="0px" y="0px"
	 width="160px" height="80px" viewBox="0 0 160 80" enable-background="new 0 0 160 80" xml:space="preserve">
<path display="none" fill="#9BBAC1" d="M39.998-1.04c-22.167,0-40.135,17.968-40.135,40.135c0,22.163,17.963,40.135,40.135,40.135
	s40.137-17.968,40.137-40.135C80.135,16.928,62.167-1.04,39.998-1.04 M60.737,44.116H45.369v15.367H35.127V44.116H19.76v-10.25
	h15.367V18.504h10.242v15.362h15.368V44.116z"/>
<path display="none" fill="#9BBAC1" d="M39.998,0.768c-21.663,0-39.229,17.564-39.229,39.235c0,21.665,17.566,39.229,39.229,39.229
	c21.666,0,39.232-17.564,39.232-39.229C79.23,18.332,61.664,0.768,39.998,0.768 M32.376,55.215H32.37
	c-0.845,0.842-1.994,1.361-3.282,1.361c-1.291,0-2.439-0.52-3.285-1.361c-0.842-0.849-1.365-1.994-1.365-3.266
	s0.522-2.435,1.365-3.269c0.851-0.848,1.994-1.362,3.285-1.362c1.288,0,2.437,0.515,3.282,1.362
	c0.854,0.843,1.365,1.993,1.368,3.269C33.735,53.223,33.221,54.369,32.376,55.215 M40.818,56.614v-0.014
	c-0.014-4.384-1.715-8.505-4.805-11.582c-3.082-3.093-7.209-4.803-11.566-4.808v-6.676c6.364,0,12.124,2.584,16.3,6.771
	c4.188,4.187,6.774,9.953,6.78,16.314L40.818,56.614L40.818,56.614z M52.724,56.614c-0.006-15.603-12.682-28.29-28.263-28.301
	v-6.676c9.632,0.006,18.365,3.922,24.707,10.262c6.326,6.334,10.25,15.075,10.256,24.715H52.724z"/>
<path display="none" fill="#9BBAC1" d="M40,1.337c-21.356,0-38.666,17.312-38.666,38.66c0,21.354,17.31,38.666,38.666,38.666
	c21.357,0,38.664-17.312,38.664-38.666C78.664,18.648,61.357,1.337,40,1.337 M51.219,24.255h-5.423
	c-1.078,0-2.158,1.125-2.158,1.958v5.579h7.576c-0.304,4.277-0.93,8.191-0.93,8.191h-6.689v24.251h-9.963V39.983h-4.846v-8.161
	h4.846v-6.673c0-1.223-0.246-9.392,10.202-9.392h7.381v8.497H51.219z"/>
<path display="none" fill="#9BBAC1" d="M39.998,0.787C18.343,0.787,0.785,18.345,0.785,40c0,21.654,17.558,39.211,39.213,39.211
	c19.749,0,36.076-14.6,38.806-33.586c0.265-1.296,0.388-2.631,0.363-4.009c0.03-0.533,0.047-1.075,0.047-1.619
	C79.211,18.345,61.658,0.787,39.998,0.787z M58.048,32.884c0.017,0.366,0.022,0.73,0.022,1.094c0,11.2-8.52,24.103-24.097,24.103
	c-4.789,0-9.239-1.4-12.988-3.812c0.662,0.08,1.332,0.118,2.016,0.118c3.968,0,7.622-1.349,10.527-3.624
	c-3.703-0.061-6.837-2.516-7.92-5.877c0.517,0.098,1.056,0.156,1.597,0.156c0.769,0,1.521-0.107,2.231-0.296
	c-3.878-0.776-6.799-4.204-6.799-8.306c0-0.046,0-0.074,0-0.106c1.143,0.626,2.451,1.015,3.84,1.058
	c-2.275-1.523-3.771-4.113-3.771-7.05c0-1.553,0.416-3.008,1.149-4.264c4.176,5.128,10.422,8.495,17.462,8.853
	c-0.145-0.621-0.219-1.272-0.219-1.934c0-4.68,3.796-8.473,8.481-8.473c2.437,0,4.627,1.031,6.181,2.677
	c1.934-0.383,3.744-1.083,5.385-2.057c-0.634,1.977-1.977,3.635-3.728,4.685c1.715-0.197,3.35-0.657,4.865-1.33
	C61.136,30.198,59.706,31.686,58.048,32.884z"/>
<circle fill="#FFFFFF" cx="38.37" cy="44.874" r="35.12"/>
<circle fill="#FFFFFF" cx="118.384" cy="44.874" r="35.119"/>
<path fill="#9BBAC1" d="M40,0.007C17.911,0.007,0,17.913,0,40c0,16.377,9.854,30.439,23.941,36.634
	c-0.112-2.792-0.022-6.147,0.695-9.181c0.768-3.249,5.152-21.789,5.152-21.789s-1.286-2.562-1.286-6.332
	c0-5.929,3.443-10.352,7.721-10.352c3.638,0,5.388,2.729,5.388,6.003c0,3.659-2.33,9.123-3.531,14.188
	c-0.998,4.247,2.131,7.698,6.315,7.698c7.579,0,12.685-9.736,12.685-21.263c0-8.766-5.902-15.327-16.639-15.327
	c-12.137,0-19.694,9.05-19.694,19.15c0,3.485,1.031,5.943,2.639,7.846c0.741,0.873,0.842,1.226,0.577,2.229
	c-0.194,0.736-0.632,2.506-0.818,3.206c-0.263,1.015-1.086,1.378-1.999,1.003c-5.587-2.28-8.188-8.4-8.188-15.282
	c0-11.358,9.578-24.983,28.585-24.983c15.272,0,25.32,11.052,25.32,22.91c0,15.687-8.722,27.412-21.586,27.412
	c-4.31,0-8.372-2.336-9.767-4.985c0,0-2.327,9.211-2.814,10.997c-0.845,3.082-2.505,6.164-4.023,8.568
	c3.591,1.064,7.4,1.641,11.339,1.641c22.087,0,39.992-17.905,39.992-39.995C79.996,17.91,62.088,0.007,40,0.007"/>
<path fill="#D7503E" d="M120,0.007C97.906,0.007,79.996,17.913,79.996,40c0,16.377,9.856,30.439,23.941,36.634
	c-0.112-2.792-0.021-6.147,0.694-9.181c0.769-3.249,5.155-21.789,5.155-21.789s-1.288-2.562-1.288-6.332
	c0-5.929,3.446-10.352,7.724-10.352c3.637,0,5.388,2.729,5.388,6.003c0,3.659-2.33,9.123-3.528,14.188
	c-0.998,4.247,2.131,7.698,6.314,7.698c7.579,0,12.686-9.736,12.686-21.263c0-8.766-5.902-15.327-16.643-15.327
	c-12.137,0-19.693,9.05-19.693,19.15c0,3.485,1.031,5.943,2.639,7.846c0.741,0.873,0.846,1.226,0.58,2.229
	c-0.194,0.736-0.632,2.506-0.82,3.206c-0.264,1.015-1.084,1.378-1.997,1.003c-5.587-2.28-8.188-8.4-8.188-15.282
	c0-11.358,9.578-24.983,28.586-24.983c15.271,0,25.319,11.052,25.319,22.91c0,15.687-8.722,27.412-21.587,27.412
	c-4.311,0-8.374-2.336-9.766-4.985c0,0-2.33,9.211-2.814,10.997c-0.846,3.082-2.506,6.164-4.023,8.568
	c3.588,1.064,7.4,1.641,11.34,1.641c22.084,0,39.989-17.905,39.989-39.995C159.994,17.91,142.086,0.007,120,0.007"/>
</svg>
