<?xml version="1.0" encoding="utf-8"?>
<!-- Generator: Adobe Illustrator 16.0.0, SVG Export Plug-In . SVG Version: 6.00 Build 0)  -->
<!DOCTYPE svg PUBLIC "-//W3C//DTD SVG 1.1//EN" "http://www.w3.org/Graphics/SVG/1.1/DTD/svg11.dtd">
<svg version="1.1" id="Layer_1" xmlns="http://www.w3.org/2000/svg" xmlns:xlink="http://www.w3.org/1999/xlink" x="0px" y="0px"
	 width="160px" height="80px" viewBox="0 0 160 80" enable-background="new 0 0 160 80" xml:space="preserve">
<path display="none" fill="#9BBAC1" d="M40.072-2.107C17.219-2.107-1.31,16.419-1.31,39.28c0,22.853,18.521,41.382,41.382,41.382
	S81.459,62.135,81.459,39.28C81.456,16.419,62.933-2.107,40.072-2.107 M61.455,44.455H45.613V60.3H35.052V44.455H19.205V33.886
	h15.845V18.044H45.61v15.839h15.842v10.572H61.455z"/>
<path display="none" fill="#9BBAC1" d="M40.072-0.243c-22.336,0-40.449,18.109-40.449,40.454c0,22.339,18.112,40.448,40.449,40.448
	c22.345,0,40.454-18.109,40.454-40.448C80.523,17.866,62.414-0.243,40.072-0.243 M32.215,55.895H32.21
	c-0.875,0.866-2.056,1.404-3.384,1.404c-1.334,0-2.519-0.538-3.387-1.404c-0.869-0.873-1.407-2.055-1.407-3.369
	s0.539-2.507,1.407-3.367c0.877-0.874,2.056-1.404,3.387-1.404c1.328,0,2.512,0.53,3.384,1.404c0.88,0.869,1.407,2.056,1.41,3.367
	C33.617,53.842,33.084,55.026,32.215,55.895 M40.92,57.339v-0.011c-0.014-4.521-1.768-8.771-4.955-11.943
	c-3.178-3.191-7.436-4.954-11.925-4.959v-6.886c6.562,0,12.5,2.662,16.807,6.982c4.317,4.316,6.985,10.264,6.99,16.82L40.92,57.339
	L40.92,57.339z M53.195,57.339C53.19,41.252,40.12,28.17,24.055,28.159v-6.883c9.932,0.006,18.936,4.046,25.475,10.58
	c6.525,6.531,10.569,15.546,10.575,25.483H53.195z"/>
<circle fill="#FFFFFF" cx="38.816" cy="40.007" r="29.816"/>
<circle fill="#FFFFFF" cx="121.815" cy="40.007" r="29.815"/>
<path fill="#9BBAC1" d="M40.074,0.343c-22.023,0-39.87,17.85-39.87,39.862c0,22.021,17.847,39.871,39.87,39.871
	c22.021,0,39.865-17.851,39.865-39.871C79.939,18.193,62.095,0.343,40.074,0.343 M51.642,23.974h-5.595
	c-1.108,0-2.225,1.159-2.225,2.022v5.75h7.813c-0.313,4.41-0.958,8.445-0.958,8.445h-6.895v25.004H33.51V40.191h-4.997v-8.412h4.997
	v-6.88c0-1.26-0.256-9.684,10.515-9.684h7.611L51.642,23.974L51.642,23.974z"/>
<path fill="#D7503E" d="M120.342,0.343c-22.023,0-39.87,17.85-39.87,39.862c0,22.021,17.846,39.871,39.87,39.871
	c22.021,0,39.865-17.851,39.865-39.871C160.207,18.193,142.363,0.343,120.342,0.343 M131.91,23.974h-5.596
	c-1.107,0-2.225,1.159-2.225,2.022v5.75h7.814c-0.313,4.41-0.959,8.445-0.959,8.445h-6.893v25.004H113.78V40.191h-4.999v-8.412
	h4.996v-6.88c0-1.26-0.256-9.684,10.516-9.684h7.611L131.91,23.974L131.91,23.974z"/>
</svg>
