<?xml version="1.0" encoding="utf-8"?>
<!-- Generator: Adobe Illustrator 16.0.0, SVG Export Plug-In . SVG Version: 6.00 Build 0)  -->
<!DOCTYPE svg PUBLIC "-//W3C//DTD SVG 1.1//EN" "http://www.w3.org/Graphics/SVG/1.1/DTD/svg11.dtd">
<svg version="1.1" id="Layer_1" xmlns="http://www.w3.org/2000/svg" xmlns:xlink="http://www.w3.org/1999/xlink" x="0px" y="0px"
	 width="57.352px" height="28.676px" viewBox="0 0 57.352 28.676" enable-background="new 0 0 57.352 28.676" xml:space="preserve">
<path fill="#696059" d="M14.338,0C6.42,0,0,6.42,0,14.338s6.42,14.338,14.338,14.338c7.221,0,13.189-5.338,14.188-12.281
	c0.098-0.473,0.143-0.961,0.135-1.465c0.01-0.195,0.016-0.393,0.016-0.592C28.676,6.42,22.258,0,14.338,0z M20.938,11.736
	c0.006,0.134,0.008,0.267,0.008,0.4c0,4.095-3.114,8.814-8.812,8.814c-1.75,0-3.377-0.513-4.748-1.394
	C7.628,19.585,7.873,19.6,8.123,19.6c1.451,0,2.787-0.494,3.849-1.326c-1.354-0.022-2.5-0.92-2.896-2.149
	c0.188,0.037,0.386,0.058,0.584,0.058c0.28,0,0.556-0.039,0.815-0.109c-1.418-0.284-2.485-1.536-2.485-3.036
	c0-0.017,0-0.027,0-0.039c0.418,0.229,0.896,0.371,1.403,0.387c-0.832-0.557-1.379-1.504-1.379-2.578c0-0.568,0.152-1.1,0.42-1.559
	c1.527,1.875,3.812,3.106,6.385,3.237c-0.053-0.227-0.079-0.465-0.079-0.707c0-1.711,1.387-3.098,3.099-3.098
	c0.891,0,1.694,0.377,2.26,0.979c0.707-0.14,1.369-0.396,1.969-0.752c-0.23,0.723-0.723,1.329-1.361,1.713
	c0.627-0.072,1.225-0.24,1.777-0.486C22.066,10.754,21.543,11.299,20.938,11.736z"/>
<path fill="#9BBAC1" d="M43.014,0c-7.918,0-14.338,6.42-14.338,14.338s6.42,14.338,14.338,14.338c7.221,0,13.19-5.338,14.188-12.281
	c0.097-0.473,0.142-0.961,0.134-1.465c0.01-0.195,0.016-0.393,0.016-0.592C57.352,6.42,50.934,0,43.014,0z M49.613,11.736
	c0.007,0.134,0.009,0.267,0.009,0.4c0,4.095-3.115,8.814-8.812,8.814c-1.75,0-3.377-0.513-4.748-1.394
	c0.242,0.028,0.487,0.043,0.737,0.043c1.451,0,2.787-0.494,3.849-1.326c-1.354-0.022-2.5-0.92-2.896-2.149
	c0.188,0.037,0.386,0.058,0.584,0.058c0.281,0,0.556-0.039,0.815-0.109c-1.418-0.284-2.485-1.536-2.485-3.036
	c0-0.017,0-0.027,0-0.039c0.418,0.229,0.896,0.371,1.403,0.387c-0.832-0.557-1.379-1.504-1.379-2.578c0-0.568,0.152-1.1,0.42-1.559
	c1.527,1.875,3.812,3.106,6.386,3.237c-0.054-0.227-0.08-0.465-0.08-0.707c0-1.711,1.387-3.098,3.099-3.098
	c0.891,0,1.694,0.377,2.26,0.979c0.707-0.14,1.369-0.396,1.97-0.752c-0.231,0.723-0.724,1.329-1.362,1.713
	c0.627-0.072,1.225-0.24,1.778-0.486C50.742,10.754,50.219,11.299,49.613,11.736z"/>
</svg>
