<?xml version="1.0" encoding="UTF-8" standalone="no"?>
<svg width="165px" height="38px" viewBox="0 0 165 38" version="1.1" xmlns="http://www.w3.org/2000/svg" xmlns:xlink="http://www.w3.org/1999/xlink">
    <!-- Generator: Sketch 3.8.3 (29802) - http://www.bohemiancoding.com/sketch -->
    <title>logo copy 4</title>
    <desc>Created with Sketch.</desc>
    <defs></defs>
    <g id="Page-1" stroke="none" stroke-width="1" fill="none" fill-rule="evenodd">
        <g id="logo-copy-4" transform="translate(-2.000000, -1.000000)">
            <g id="Group" transform="translate(2.000000, 1.000000)">
                <g transform="translate(1.000000, 1.000000)" id="Shape">
                    <path d="M161.722478,22.080247 L161.713399,22.0289129 L161.709363,21.9765722 C161.678593,21.5467747 161.606964,21.2860778 160.872013,21.2860778 C160.010954,21.2860778 158.891124,21.7224179 158.533484,21.8900088 L156.860297,22.6801518 L157.101918,20.8487311 C157.172033,20.3207948 157.308733,19.7218966 157.419707,19.2598894 C157.472168,19.0429775 157.518071,18.8451901 157.55439,18.673573 C157.826781,17.376128 158.153146,16.060565 158.468413,14.7872772 C158.550635,14.4571283 158.633866,14.1229531 158.71407,13.7867649 L158.999071,12.5965176 L160.114866,13.1058327 C160.267708,13.175788 160.428116,13.2115206 160.604161,13.2135337 C161.408724,13.2135337 162.214296,12.1616873 162.425146,11.8224794 C162.979008,10.5929765 162.99969,9.52099904 162.484669,8.71978394 C162.166879,8.22657364 161.693726,7.87679695 161.036456,7.65082611 L160.25661,7.3825801 L160.365567,6.56626672 C160.541612,5.24919391 160.327735,4.31360417 159.69266,3.62059337 C159.22102,3.10624548 158.545086,2.82340447 157.788444,2.82340447 C156.22724,2.82340447 154.694787,3.96231765 154.403228,4.19080487 C154.113182,4.41828554 153.916455,4.67747258 153.745454,4.90344342 L153.720737,4.93665963 C153.668276,5.00862807 153.615311,5.0765703 153.56386,5.1329372 L153.552258,5.14602237 L153.540152,5.15860426 C153.264734,5.44144527 153.151238,5.84054299 153.23699,6.22554899 L153.58101,7.76808937 L152.034434,7.42636509 C151.929513,7.4032144 151.868477,7.39616854 151.771627,7.39616854 C151.537572,7.39616854 151.312093,7.46411078 151.119906,7.59194284 C150.90956,7.73235679 149.85127,8.48777379 149.692879,9.58592162 C149.642941,9.93217538 149.626295,10.256285 149.643445,10.548185 L149.741809,12.2034591 L148.224489,11.5265532 C147.565202,11.2326401 146.822179,11.0836705 146.015599,11.0836705 C144.514421,11.0836705 142.838207,11.5894626 141.416224,12.4717052 C140.845212,12.8265146 140.296394,13.2628547 139.829798,13.7349275 L138.606561,14.9719794 L138.13946,13.298084 C137.982583,12.7369315 137.678917,12.2502638 137.235021,11.8511661 C136.52176,11.2079796 135.499788,10.8682684 134.279577,10.8682684 C133.108295,10.8682684 131.84319,11.181306 130.893856,11.7057194 C130.220445,12.0776402 129.224704,12.712271 128.307654,13.62471 L127.238771,14.6886351 L126.662714,13.2960709 C126.630431,13.2175599 126.594616,13.1415653 126.555775,13.0685903 C126.136091,12.2814669 125.353219,11.8114073 124.462904,11.8114073 C123.823289,11.8114073 123.165515,12.0580124 122.61014,12.5064312 C122.446201,12.6387927 122.287306,12.790782 122.139508,12.9578696 L121.145785,14.0791681 L120.479436,12.7384413 C119.868573,11.5094418 118.51368,10.7459724 116.942387,10.7459724 C116.815775,10.7459724 116.689164,10.7515084 116.566083,10.7620772 C115.766565,10.8305227 114.51861,11.2311303 113.632834,12.1350136 L112.849458,12.9342156 L112.134683,12.0731107 C111.416882,11.2089861 110.278893,10.7132595 109.011769,10.7132595 C108.89222,10.7132595 108.767122,10.7187955 108.635971,10.7293643 C108.300526,10.7585543 107.931285,10.8385751 107.568601,10.9613744 L105.967546,11.5039058 L106.249522,9.84108246 C106.283318,9.63977213 106.304504,9.46664525 106.314088,9.3116363 C106.491143,6.49429828 104.314031,2.77408344 100.365873,1.42530426 C99.1829898,1.02167705 97.8845921,0.80879138 96.6114158,0.80879138 C94.4918093,0.80879138 92.5270623,1.36742754 90.9305476,2.42430675 C90.1305248,2.95425619 89.3506791,3.65884233 88.7342681,4.40771674 C87.5165789,5.88986402 86.7311845,7.73084696 86.524369,9.58994783 C86.2479425,12.0746205 87.3314538,14.2427328 88.3055043,15.8537186 L90.0795776,18.7878167 L86.9970181,17.2774859 C85.6461599,16.6156782 84.1343891,16.2659015 82.625645,16.2659015 C81.1461576,16.2659015 79.7065201,16.6066193 78.4615918,17.2513156 C77.7175605,17.6363216 77.4572756,17.8879595 77.247938,18.0897731 C76.7031558,18.6161996 76.2960824,18.8149935 75.0965526,18.8839423 C75.0461098,18.886962 74.999198,18.8874653 74.953295,18.8874653 C73.8834032,18.8874653 73.2563992,18.1758333 73.1262568,17.5145288 L73.065221,17.2040077 L73.1933457,16.9146241 C73.3371077,16.5900112 74.5618589,13.6886261 73.3502228,11.819963 C73.2029298,11.5934889 73.0132649,11.3846294 72.7862723,11.1994239 L71.4424761,10.1027859 L73.0626988,9.48073698 C74.3752205,8.97695788 75.2569607,7.70065041 75.2569607,6.30556985 C75.2569607,4.42784778 73.7265261,2.8999024 71.8450096,2.8999024 C69.9629888,2.8999024 68.4320498,4.42784778 68.4320498,6.30556985 C68.4320498,7.3387951 68.8991501,8.30558794 69.7132969,8.95833668 L71.3153602,10.2426966 L69.3168165,10.7218151 C68.4058195,10.9402368 67.5291236,11.3509099 66.8486503,11.878343 L66.5343916,11.5114549 L66.8077916,11.907533 C66.7664285,11.9362197 66.7270831,11.9649064 66.6897554,11.9940964 L66.0007068,12.5250524 L65.3731983,11.922128 C64.9444345,11.5104483 64.3905726,11.2331434 63.7267453,11.0972589 C63.3559908,11.0212643 62.9514395,10.9830153 62.5236845,10.9830153 C61.4527839,10.9830153 60.197767,11.230627 59.080459,11.6624376 L58.5629158,11.8622381 L58.1164971,11.5330958 C57.6680606,11.2024435 57.1177296,10.9598646 56.5225046,10.831026 C56.053891,10.728861 55.5030556,10.6750105 54.9295209,10.6750105 C54.0477808,10.6750105 53.1968107,10.8013327 52.5319746,11.0323363 C52.2827872,11.1178932 52.0361219,11.2109992 51.7975274,11.309138 L51.2366035,11.5396383 L50.7700076,11.1531225 C49.7389568,10.30007 48.2065045,10.2784291 47.484668,10.2678604 L47.4271632,10.2678604 C45.7171523,10.2678604 44.3229133,11.737929 43.9153354,12.449561 L43.2167027,13.6715147 L42.2830064,12.6171519 C41.382098,11.5995282 40.0917712,11.0615263 38.5517525,11.0615263 C37.1786994,11.0615263 35.6144682,11.5034025 34.2595746,12.2739178 L31.5457519,13.8174647 L32.8421319,10.9815055 C33.128647,10.3549271 33.3011614,9.67953092 33.3415156,9.02778874 C33.5185698,6.20994744 31.3414586,2.48973261 27.3922917,1.14195997 C26.2119302,0.738332766 24.9140369,0.524943819 23.6393474,0.524943819 C21.5182276,0.524943819 19.553985,1.08357998 17.9579747,2.14146574 C17.1589608,2.66990535 16.3786107,3.37449149 15.7616952,4.12336591 C14.5435016,5.60601646 13.759116,7.4469994 13.5523006,9.30610027 C13.275874,11.7902697 14.3583765,13.9583819 15.332427,15.5698711 L17.1065003,18.5044724 L14.0239407,16.9931351 C12.673587,16.3313274 11.1623207,15.9815507 9.65307207,15.9815507 C8.17358473,15.9815507 6.73344278,16.3222684 5.48901889,16.9664615 C3.63171498,17.927215 2.36660954,19.0832396 1.62156938,20.499961 C0.0502761452,23.4874062 0.153179458,27.5770255 1.87075681,30.4456977 C3.54646665,33.2434079 6.58715866,34.8921395 10.9096022,35.3460943 C12.1631058,35.4789591 13.4135828,35.5453915 14.6252189,35.5453915 C17.8010976,35.5453915 20.7060985,35.0994891 23.2600175,34.2202663 C26.1241597,33.2348522 28.26243,31.2967371 29.7958912,28.2962067 C29.9754675,27.9439136 30.1308314,27.5689731 30.2569384,27.1814507 L30.722021,25.753154 L31.8690903,26.7254828 C32.9642035,27.6535234 34.3246458,28.1235831 35.9045143,28.1235831 L36.0124619,28.1225765 C37.5645869,28.1029487 39.3315982,27.7280083 40.7404656,27.1185412 C40.8938117,27.0526121 41.0431224,26.9821535 41.1878932,26.9106883 L41.781605,26.6197949 L42.286033,27.0470761 C42.3879274,27.1336395 42.5019282,27.2171833 42.6199643,27.2936812 C43.4785008,27.8427551 44.454569,28.1447206 45.3675837,28.1447206 C45.6904176,28.1447206 46.0082072,28.1064717 46.3123773,28.030477 C47.3918533,27.762231 47.7716875,27.3500481 47.9628658,27.0636842 L48.7946675,25.8190831 L49.6365579,27.056135 C49.9412324,27.5040505 50.378067,27.8417486 50.9334423,28.0591637 C51.5528799,28.3007361 52.2812739,28.351567 52.7836842,28.351567 C53.3617587,28.351567 55.3249925,28.2645003 56.3126625,27.1502476 C56.3353618,27.123574 56.3620965,27.0923709 56.3893356,27.0571416 L57.128827,26.0973946 L57.9394428,26.997755 C58.5815797,27.7108969 59.5122494,28.0838243 60.695133,28.1054651 L60.8020718,28.1064717 C61.9072735,28.1064717 62.9882627,27.7561917 64.0137649,27.0646907 L64.657415,26.630867 L65.2425515,27.1411887 C66.0334946,27.8306765 67.1089351,28.2423561 68.1188,28.2423561 C68.5954844,28.2423561 69.0323191,28.1492501 69.4171977,27.9655544 C70.388726,27.5035472 71.1932887,26.9172309 71.807682,26.222207 L73.3128951,24.521638 L73.5666224,26.7763137 C73.731066,28.2393365 74.1734493,29.6062336 74.8453474,30.729042 C76.5205528,33.5267522 79.5617493,35.1749805 83.8841928,35.6289353 C85.13013,35.7612968 86.3801026,35.8282325 87.5988007,35.8282325 C90.7756882,35.8282325 93.6811935,35.3828334 96.2330948,34.5041139 C99.0982459,33.5181965 101.236516,31.5795781 102.769977,28.5780411 C102.966704,28.1940417 103.132157,27.785885 103.262803,27.3646431 L103.711744,25.9187317 L104.874955,26.8905573 C105.832864,27.6907658 107.167581,28.185486 108.459925,28.214676 C108.490695,28.2161858 108.521465,28.2161858 108.55274,28.2161858 L108.581492,28.2161858 C109.733606,28.2161858 110.840825,27.8870434 111.965195,27.2101374 L112.532677,26.8679099 L113.07191,27.2524126 C113.959199,27.8835205 115.126446,28.2171924 116.447543,28.2171924 C118.975736,28.2171924 121.772789,27.0289581 123.098426,25.3907954 C123.479774,24.9197292 123.819758,24.4089042 124.138556,23.8286272 L125.131775,22.0203572 L125.949957,23.9136808 C126.23849,24.5815279 126.634466,25.2060931 127.126284,25.7687555 C128.516992,27.3560874 130.531173,28.2670167 132.652797,28.2670167 C134.150948,28.2670167 135.64809,27.8050095 136.983816,26.9303161 L137.705652,26.4582434 L138.394701,26.0088181 L138.973784,26.592618 C139.997269,27.6233269 141.466163,28.1462305 143.333555,28.1462305 L143.477317,28.1452239 C145.029947,28.1255962 146.796454,27.7506557 148.204312,27.1416919 C148.715802,26.9207538 149.221743,26.6459653 149.750888,26.3012213 L150.510557,25.8075077 L151.083587,26.5090742 C151.936071,27.5513584 153.301053,28.1260994 154.927329,28.1260994 C157.136723,28.1260994 159.403623,27.1286068 160.70202,25.5845566 C161.57569,24.545292 161.937869,23.3006909 161.722478,22.080247 L161.722478,22.080247 Z"></path>
                </g>
                <path d="M162.365343,7.70013809 C162.537353,6.4137651 162.43445,5.03025988 161.436691,3.94268084 C160.771855,3.21695711 159.830593,2.81785939 158.78794,2.81785939 C156.939716,2.81785939 155.252404,4.02974756 154.779755,4.40015856 C154.385797,4.70916991 154.126016,5.05190074 153.936351,5.30202882 C153.894484,5.35789244 153.855138,5.41476261 153.815793,5.4585476 C153.301781,5.98698721 153.093957,6.7343518 153.252347,7.44447397 C153.087903,7.40823812 152.951708,7.39062346 152.771123,7.39062346 C152.338323,7.39062346 151.91763,7.51744897 151.558982,7.7560017 C151.175617,8.01166582 149.908494,8.95883091 149.694112,10.4434946 C149.635094,10.8541676 149.614917,11.2426966 149.636607,11.6085781 C148.854239,11.2598079 147.969472,11.0776221 147.016103,11.0776221 C145.332323,11.0776221 143.462913,11.6382714 141.884053,12.6176461 C141.241412,13.0162405 140.627018,13.507941 140.111997,14.0288315 C139.908208,13.298075 139.508701,12.6418033 138.911963,12.104808 C138.009541,11.2915143 136.75402,10.86222 135.280082,10.86222 C133.946374,10.86222 132.498665,11.221559 131.406074,11.82549 C130.657503,12.2386794 129.586603,12.9271607 128.595906,13.9125748 C128.551012,13.8043705 128.501578,13.6996891 128.4471,13.5965176 C127.848848,12.475219 126.734062,11.8058622 125.463408,11.8058622 C124.59327,11.8058622 123.710521,12.1319849 122.976074,12.7248438 C122.760683,12.898474 122.563956,13.0897188 122.383875,13.292539 C121.60756,11.7303708 119.908647,10.7404273 117.942891,10.7404273 C117.787527,10.7404273 117.634181,10.7469699 117.480331,10.7600551 C116.331244,10.8581938 114.915314,11.4082743 113.912007,12.4319373 C113.018665,11.3559336 111.602231,10.7072111 110.012274,10.7072111 C109.855901,10.7072111 109.702051,10.7147602 109.549209,10.7268389 C109.1381,10.7625714 108.69269,10.8571873 108.244254,11.0091766 C108.280068,10.7967942 108.308316,10.5844118 108.320927,10.3750491 C108.576167,6.3075739 105.150597,2.65479803 101.691734,1.47310641 C100.406956,1.03475317 98.9965751,0.802239747 97.6109114,0.802239747 C95.291047,0.802239747 93.1336084,1.41975917 91.3721458,2.58584924 C90.4914145,3.16964919 89.6328781,3.94469395 88.953918,4.76956301 C87.6131483,6.40168648 86.750072,8.42938475 86.5215661,10.4792271 C86.2320245,13.0872024 87.240376,15.3866696 88.4419236,17.3736026 C86.9755513,16.6549247 85.3205231,16.2588466 83.625645,16.2588466 C81.9852451,16.2588466 80.384695,16.6383166 78.9970136,17.3569945 C76.9495403,18.4158868 77.851962,18.7742192 76.0390478,18.8783973 C76.0087821,18.8799071 75.9810385,18.8799071 75.953295,18.8799071 C75.2264143,18.8799071 75.1164489,18.3197611 75.1164489,18.3197611 C75.3878312,17.7067712 76.6645385,14.5346237 75.1971574,12.2713923 C74.9822711,11.9407401 74.7194641,11.6589057 74.4248782,11.4188431 C76.0834374,10.7821992 77.2653123,9.18027227 77.2653123,7.30406002 C77.2653123,4.871728 75.2813969,2.89184094 72.8445052,2.89184094 C70.4066047,2.89184094 68.4226893,4.871728 68.4226893,7.30406002 C68.4226893,8.69310128 69.0713837,9.93216634 70.0807442,10.7414338 C69.0436402,10.9900521 68.0423506,11.4510528 67.2292127,12.0816573 C67.2282038,12.0821606 67.2266905,12.0831672 67.2256817,12.0841737 C67.2266905,12.0831672 67.2282038,12.0821606 67.2292127,12.0816573 C67.2332481,12.0781344 67.2357702,12.0761213 67.2352658,12.0761213 C67.1782654,12.1153768 67.1242916,12.1551356 67.0723356,12.1948944 C66.5941378,11.7354036 65.9066024,11.3086257 64.9285165,11.1088252 C64.4911775,11.0192421 64.018024,10.9739473 63.5226757,10.9739473 C62.3251636,10.9739473 60.9511017,11.2437031 59.7152531,11.7208086 C59.1593734,11.3111421 58.4849532,11.0066602 57.736382,10.8451087 C57.1951308,10.7273421 56.5696401,10.6664458 55.9285121,10.6664458 C54.9383199,10.6664458 53.9693137,10.812899 53.2020787,11.0786286 C52.9291832,11.1727412 52.6658717,11.2718866 52.4126489,11.3760647 C51.1081981,10.2970413 49.2877174,10.2703677 48.4836592,10.2587923 L48.4261544,10.2587923 C46.3494243,10.2587923 44.6338646,11.9070206 44.0381351,12.9482983 C42.9521016,11.7213119 41.3797996,11.0524583 39.5507436,11.0524583 C37.9860079,11.0524583 36.261873,11.5421457 34.7586776,12.3972113 C35.0981576,11.6548795 35.2994244,10.8571873 35.347345,10.0886851 C35.6025856,6.02070669 32.177015,2.36793081 28.7181522,1.18724575 C27.4338785,0.747885959 26.0229934,0.515875807 24.6378341,0.515875807 C22.3174653,0.515875807 20.1605311,1.13289196 18.3990685,2.29998858 C17.5178328,2.88328525 16.6592963,3.65833001 15.9803362,4.48319907 C14.6395666,6.11532254 13.7764903,8.14302081 13.5484888,10.1928632 C13.2584427,12.8003352 14.2662899,15.1003057 15.4678374,17.0877419 C14.0019696,16.369064 12.3469413,15.972986 10.6525676,15.972986 C9.01166335,15.972986 7.41161771,16.3524559 6.02393627,17.0711338 C3.976463,18.1300261 2.57163101,19.4259613 1.72721853,21.0309079 C0.00308360716,24.311763 0.117588764,28.8065193 2.00515836,31.9605488 C3.85237371,35.0441198 7.14881072,36.856416 11.8036724,37.3456001 C13.0894593,37.4814845 14.3752463,37.5504333 15.6257233,37.5504333 C18.9140895,37.5504333 21.9300645,37.0859097 24.589409,36.170451 C27.7128272,35.0959572 30.0372314,32.9957872 31.6952863,29.7516713 C31.9041195,29.3430113 32.0766339,28.9217694 32.2168649,28.4914686 C33.4829791,29.5644527 35.0875646,30.1291281 36.9140984,30.1291281 L37.0260814,30.1281216 C38.7058267,30.106984 40.6181133,29.7003371 42.1419903,29.0415491 C42.3104692,28.9685741 42.4744083,28.8910696 42.6338076,28.8130619 C42.767481,28.9262989 42.9142695,29.0350065 43.0761909,29.1396879 C44.0946311,29.7909268 45.2633908,30.1502657 46.3680881,30.1502657 C46.7746571,30.1502657 47.1736596,30.101448 47.5565205,30.0063288 C48.701572,29.721978 49.3835587,29.2478922 49.8027384,28.6213138 C50.3142284,29.3727046 51.0113479,29.7783449 51.5667231,29.99576 C52.3324448,30.2947059 53.1955211,30.3576154 53.7841886,30.3576154 C54.6618934,30.3576154 56.8369869,30.2061293 58.0738444,28.8110488 C58.1086499,28.77129 58.1484997,28.7234788 58.1893584,28.6706348 C58.7936631,29.3420048 59.8696081,30.0788006 61.6870622,30.1120168 L61.8025762,30.1130233 C63.1130801,30.1130233 64.399876,29.6932913 65.5792287,28.8986188 C66.5215002,29.7199649 67.8335174,30.2489078 69.1193044,30.2489078 C69.7473173,30.2489078 70.330436,30.1230888 70.8520146,29.8744706 C71.9592341,29.3475408 72.8722488,28.6706348 73.564324,27.8890475 C73.7398649,29.4486992 74.208983,30.95903 74.979749,32.2459062 C76.8264599,35.3289739 80.1234013,37.1417734 84.778263,37.6304542 C86.0640499,37.7668419 87.3503414,37.8347842 88.5993051,37.8347842 C91.8876713,37.8347842 94.9041507,37.3707639 97.5629907,36.4558084 C100.686409,35.3808113 103.011822,33.280138 104.669372,30.0355188 C104.896365,29.5916296 105.08149,29.1321387 105.22727,28.6620791 C106.415702,29.6550423 107.977916,30.1880114 109.422093,30.2207243 C109.474554,30.2227374 109.528527,30.2227374 109.580988,30.2227374 C111.123024,30.2227374 112.428988,29.7083895 113.485765,29.0717456 C114.536489,29.8191102 115.893904,30.223744 117.447543,30.223744 C120.300083,30.223744 123.35843,28.9071744 124.882811,27.0234131 C125.321159,26.4818883 125.695445,25.9081539 126.022819,25.3127786 C126.351201,26.0732283 126.801151,26.7853636 127.366111,27.4315698 C128.948501,29.2378267 131.239109,30.2735683 133.652292,30.2735683 C135.348179,30.2735683 137.037004,29.7541876 138.536164,28.7722965 C138.536164,28.7722965 139.171744,28.357094 139.256992,28.3012304 C140.478212,29.5312365 142.178134,30.1532854 144.340113,30.1532854 L144.489928,30.1522788 C146.169673,30.1311412 148.08196,29.7244944 149.605332,29.0657063 C150.218212,28.8009833 150.781154,28.4839195 151.301724,28.1452149 C152.331766,29.4054175 153.962077,30.1326511 155.927329,30.1326511 C158.421725,30.1326511 160.992795,28.9937379 162.474804,27.231266 C163.544696,25.9589847 163.985062,24.4229869 163.716706,22.9041005 C163.626413,21.6444011 162.801169,21.2790229 161.873021,21.2790229 C160.58673,21.2790229 159.103207,21.9800861 159.103207,21.9800861 C159.172818,21.4531563 159.326669,20.8059436 159.401829,20.4949192 C159.456307,20.2674385 159.504732,20.0595856 159.54206,19.8809227 C159.810415,18.6036087 160.134763,17.2950915 160.448012,16.0303594 C160.530739,15.6976941 160.614474,15.3604993 160.695687,15.0217947 C160.968078,15.1461038 161.268212,15.2170657 161.581462,15.2205886 L161.604666,15.2205886 C163.181508,15.2205886 164.312435,13.3111602 164.321515,13.2895193 C165.237556,11.2975536 164.834014,9.9538072 164.334126,9.17674934 C163.830707,8.39616854 163.099286,7.95278255 162.365343,7.70013809 L162.365343,7.70013809 Z" id="Shape" fill="#FFFFFF"></path>
            </g>
            <g id="Group" transform="translate(5.044280, 3.026207)" fill="#F44336">
                <path d="M98.5475772,0.901870263 C95.8504006,-0.019124481 92.5549725,0.170610502 90.14078,1.76951777 C89.4315543,2.23957738 88.7435145,2.86212957 88.2037765,3.51940779 C87.1369113,4.81836267 86.4377741,6.42985183 86.2531534,8.08864892 C85.8879475,11.37504 88.3223171,14.2442154 89.9869295,16.8265237 C91.71056,19.4969051 93.458403,22.3726232 92.3799359,25.6514651 C91.6374179,27.9071473 89.622228,30.3339433 87.1838231,30.7868915 C83.4480293,31.4809089 79.3878883,30.2101374 78.1828098,26.5080405 C77.448867,24.2528616 77.3933799,21.5230936 79.1871259,19.7133137 C80.0633174,18.8300647 81.3032014,18.2417352 82.4916338,18.90002 C83.5786761,19.5019379 83.3814448,20.7399964 83.0167433,21.7239006 C82.5511563,22.9765541 81.8621076,24.1990111 82.045215,25.585536 C82.2706943,27.2931508 83.9534661,28.1104707 85.5499808,27.8965785 C88.4474152,27.510566 89.5748118,24.3560331 89.0012772,21.7963723 C88.8211964,20.9896212 88.5150086,19.9282125 88.0453861,19.2427508 C85.821363,15.9971251 81.0444298,14.8572054 77.564381,16.6589328 C76.1993988,17.3650288 74.9211783,18.3162201 74.1958108,19.6967056 C72.8222533,22.3102169 72.8938821,25.9594699 74.4142281,28.4984964 C76.1696376,31.4305813 79.3303835,32.4955129 82.5688113,32.8362307 C86.4579512,33.2458972 90.691111,33.0496196 94.4127808,31.7672728 C97.1800728,30.815075 98.9733144,28.9866739 100.28634,26.4174509 C101.062151,24.8980612 101.182709,23.2060479 100.778158,21.5623491 C100.391262,19.9896122 99.676487,18.5487335 98.7659945,17.2150526 C97.3293835,15.113876 95.4186102,13.3700253 94.2327,11.0942121 C93.3671016,9.43088553 92.8672134,7.31561727 92.9902938,5.4378952 C93.0639403,4.30955082 93.48312,2.56922304 94.6897118,2.13892222 C95.7520372,1.76045881 97.6567573,1.94214138 98.079468,3.19429161 C98.3241156,3.92102189 97.7102267,4.65681113 97.4590215,5.30301728 C96.9495492,6.61455406 96.8052828,8.30656735 97.6754211,9.50033759 C98.4310543,10.5360792 99.9145771,11.22909 101.183213,11.0066421 C102.718692,10.7368863 103.615061,9.06852694 103.706362,7.6085238 C103.891487,4.6386932 101.217515,1.81380604 98.5475772,0.901870263 L98.5475772,0.901870263 Z M87.9212968,20.9835819 C87.9212968,20.9835819 89.0370916,23.3117358 88.1634223,25.1431565 C87.611578,26.2986778 86.4286943,27.3963224 85.6024413,27.3963224 C85.6024413,27.3963224 88.3606536,25.8729065 87.9212968,20.9835819 L87.9212968,20.9835819 Z M93.0704979,11.1188726 C94.8203586,14.6095937 100.735786,19.7163334 100.037657,23.7812922 C99.6865756,25.824592 99.2174576,26.638389 98.6530026,27.5241544 C98.6530026,27.5241544 99.9160903,24.1904554 99.0323325,21.5482574 C98.1616897,18.9463214 95.9174895,16.6262199 92.9443909,12.2099746 C90.7208722,8.90546557 91.9703404,5.2838928 91.9703404,5.2838928 C91.9703404,5.2838928 92.0011105,8.98598971 93.0704979,11.1188726 L93.0704979,11.1188726 Z M100.967318,10.4178094 C100.967318,10.4178094 103.163093,8.18175495 101.227099,3.59389261 C101.227099,3.59389261 102.894233,5.3775021 102.921472,7.25522417 C102.948712,9.13344952 102.060918,10.4178094 100.967318,10.4178094 L100.967318,10.4178094 Z" id="Shape"></path>
                <path d="M69.353302,10.0816212 C68.2359939,10.0725622 67.0107383,10.482732 66.115883,11.1817821 C65.9892716,11.2809274 65.7078008,11.4203348 65.76581,11.6251681 C65.7708543,11.6437893 65.7774118,11.6603974 65.7854827,11.6749924 C65.9146162,11.9135451 66.3923096,11.7122348 66.5668417,11.7821901 C67.3401298,12.0917048 66.0099531,15.8778487 65.779934,16.4752371 C65.268444,17.7993558 64.6081477,19.0645912 64.2182249,20.4350113 C64.2086407,20.4667176 64.2000655,20.4994306 64.1904813,20.5311369 C64.0563035,20.6896688 63.9211168,20.8497105 63.7919832,21.0006933 C63.0696423,21.8466999 61.7137398,21.916152 61.5205439,20.5935431 C61.4050299,19.7978641 61.6405978,18.8381171 61.9160155,18.0912558 C62.3831158,16.8245105 63.1483331,15.6800613 63.5079902,14.3735573 C63.929692,12.8435988 63.936754,10.9960733 62.0547332,10.6115706 C60.7729816,10.3498672 59.1134135,10.6915914 57.9128748,11.1817821 C57.7514578,11.2482145 57.1527018,11.482741 56.6396985,11.736392 C56.6185125,11.6674433 56.5932911,11.5989977 56.5650432,11.5325653 C56.2850856,10.887869 55.4986824,10.4867582 54.8363684,10.3433246 C53.8547515,10.1304389 52.4322645,10.1757337 51.4799045,10.5058827 C50.7267934,10.7665795 49.885912,11.1244087 49.1721463,11.6055403 C49.1423851,11.3775564 49.0909334,11.1681936 49.0092161,10.9890275 C48.5179032,9.91050738 47.0379114,9.82142756 46.014427,9.80632929 C44.609595,9.78569498 43.282445,11.4429822 43.4191449,11.672476 C43.5558449,11.9024731 44.0310161,11.5954748 44.2272386,11.7575296 C45.0852706,12.4701682 44.1535921,14.3554394 43.8887674,15.1918838 C43.4751365,16.4993944 43.0085405,17.8109311 42.5520332,19.1275007 C41.5260266,19.5809522 40.4319223,20.2734597 40.1494426,20.4022983 C39.4760312,20.7097999 38.7824427,20.9433198 37.9203753,21.0429684 C36.8691473,21.1627481 35.6534758,21.405327 34.7586205,20.7223817 C34.3122017,20.3806575 33.7669151,19.9292191 33.6564453,19.3786353 C33.6307195,19.2487902 35.7770607,18.1808389 35.9399909,18.089746 C37.8880919,16.9921014 42.3305893,15.0318421 40.185257,12.0348346 C38.5660431,9.77260981 35.1419858,10.566779 33.1358756,11.8103736 C32.4720484,12.2230598 31.7587872,12.8239711 31.287147,13.4495429 C30.3009902,14.75806 29.4474981,16.5431794 29.2598508,18.1622177 C28.8537863,21.6645141 30.4452567,25.372147 34.5613892,25.3203096 C35.9440263,25.302695 37.5612225,24.9660034 38.8349032,24.4144131 C39.764564,24.0112892 40.5691267,23.4546662 41.3368661,22.8451991 C41.1406436,23.5377067 41.0745636,24.2020307 41.817586,24.6766198 C42.6120601,25.1849284 43.6557217,25.4959529 44.5914356,25.2634394 C45.5659905,25.021867 45.6668761,24.826596 45.8025673,23.9262356 C46.2787473,20.7550947 47.7375531,17.9478222 48.697984,14.9231345 C48.8402327,14.475219 49.0097205,13.836562 49.1126238,13.1797871 C49.5696356,12.8214547 50.0584263,12.4646321 50.1436747,12.4218537 C50.908892,12.0423837 52.1442361,12.0655344 51.9419605,13.2733964 C51.7462424,14.446029 51.2362657,15.6005438 50.8387765,16.7137899 C50.2258964,18.430967 49.4394932,20.1657587 49.0314109,21.9463485 C48.7655774,23.1048895 48.5239564,24.7908634 49.9247529,25.3379243 C50.9245292,25.727963 53.2317829,25.6081834 54.0010356,24.7385228 C54.3213474,24.3766675 53.9853984,24.1728407 53.8330611,23.7586448 C53.4910589,22.8275845 53.7725297,21.6368339 54.0091065,20.7097999 C54.5004194,18.7812469 55.3307078,17.0147488 56.0585975,15.1737659 C56.2679351,14.6468361 56.5201491,13.9835186 56.6523092,13.314665 C56.8727443,13.1329824 57.088135,12.9669014 57.2576228,12.86222 C58.0364597,12.3780687 59.2738216,12.3664934 59.249609,13.4913148 C59.2334673,14.2321368 58.8274028,14.9316902 58.5867906,15.6161453 C58.0536102,17.129999 57.3569951,18.602584 57.0553472,20.1879028 C56.6412118,22.3680937 56.223041,25.2483412 59.2914765,25.3047081 C61.0443639,25.337421 62.5248601,24.2246782 63.5680172,22.9071021 C63.6003006,22.8653302 63.68454,22.7541062 63.8000541,22.5980907 C63.7884522,23.0631176 63.853019,23.5226084 64.0482326,23.957942 C64.5163418,24.9997229 66.3882741,25.7969118 67.4763253,25.279041 C68.9780075,24.5643893 70.3848572,23.3268341 70.4559816,21.5487606 C70.4504329,21.6866582 69.3396824,22.0490168 69.1762477,22.0344218 C67.0213313,21.8366344 70.2511838,15.7897755 70.683983,14.8104007 C71.349828,13.30007 71.987425,10.0992358 69.353302,10.0816212 L69.353302,10.0816212 Z M39.9017685,13.5869372 C39.9042906,14.5431613 39.4079334,14.9633966 39.4079334,14.9633966 C39.4079334,14.9633966 40.0470437,12.0353379 36.9110148,11.4022169 C36.9110148,11.4022169 39.8936976,11.2487178 39.9017685,13.5869372 L39.9017685,13.5869372 Z M34.9326482,13.8566931 C35.21765,13.3997186 35.7780695,12.9694178 36.3041879,12.8214547 C37.0532635,12.6885899 37.803348,13.3227174 37.764507,14.0796442 C37.7125509,15.0872024 36.8212266,15.619165 36.0171684,16.1189179 C35.7589013,16.2799661 33.5459756,17.2301509 33.5207542,17.3207405 C33.8491368,16.1476046 34.2733608,14.913069 34.9326482,13.8566931 L34.9326482,13.8566931 Z M33.1762299,19.7435103 C33.1762299,19.7435103 34.0695719,22.5774564 38.171076,21.6861549 C38.171076,21.6866582 33.795163,24.0626233 33.1762299,19.7435103 L33.1762299,19.7435103 Z M48.2515652,13.8662553 C48.2515652,13.8662553 48.8906755,10.9386999 45.7546466,10.3050756 C45.7546466,10.3050756 48.7378338,10.1520798 48.7448958,12.4897959 C48.7484268,13.44602 48.2515652,13.8662553 48.2515652,13.8662553 L48.2515652,13.8662553 Z M53.7281401,24.4697735 C53.7281401,24.4697735 53.7220869,24.4697735 53.711494,24.4687669 C51.8597387,24.4566883 53.333173,21.5714081 53.333173,21.5714081 C52.9825955,24.269973 53.6000154,24.456185 53.711494,24.4687669 C53.7170427,24.4687669 53.7220869,24.4697735 53.7281401,24.4697735 L53.7281401,24.4697735 Z M55.445213,14.4173423 C55.445213,14.4173423 56.0848277,11.4892836 52.9487988,10.8556594 C52.9487988,10.8556594 55.931986,10.7031668 55.939048,13.0403797 C55.942579,13.9966037 55.445213,14.4173423 55.445213,14.4173423 L55.445213,14.4173423 Z M62.9954914,13.2089771 C62.998518,14.1641946 62.5021608,14.5854364 62.5021608,14.5854364 C62.5021608,14.5854364 63.1417755,11.6573777 60.0052422,11.0232502 C60.0057466,11.0232502 62.987925,10.8712609 62.9954914,13.2089771 L62.9954914,13.2089771 Z M60.8763893,20.3721018 C60.8763893,20.3721018 61.0140982,22.6922033 62.9954914,22.1436327 C62.9954914,22.1431294 60.142951,23.3550175 60.8763893,20.3721018 L60.8763893,20.3721018 Z M69.7432248,22.3867149 C69.7432248,22.3867149 67.5928482,24.0626233 67.9398947,21.5714081 C67.9403991,21.5714081 67.7608227,22.9347822 69.7432248,22.3867149 L69.7432248,22.3867149 Z M70.4993624,13.15412 C70.2955735,14.0881999 70.0897668,14.5441678 70.0897668,14.5441678 C70.0897668,14.5441678 71.125862,10.8541495 67.5933526,10.9829881 C67.5933526,10.9824849 71.2433937,9.75348533 70.4993624,13.15412 L70.4993624,13.15412 Z" id="Shape"></path>
                <path d="M70.4070521,2.43937788 C69.1696902,2.43937788 68.1678961,3.43989021 68.1678961,4.67341923 C68.1678961,5.90745154 69.1696902,6.90796386 70.4070521,6.90796386 C71.6434051,6.90796386 72.6457035,5.90745154 72.6457035,4.67341923 C72.6457035,3.43938693 71.6434051,2.43937788 70.4070521,2.43937788 L70.4070521,2.43937788 Z M70.6794432,6.17318117 C70.5805753,6.17318117 70.4827163,6.16261237 70.3868749,6.14650755 C71.1586498,6.00860997 71.5531125,5.48218347 71.5531125,4.67341923 C71.5531125,3.864655 70.8852498,3.19328506 70.1139794,3.05538748 C70.2088119,3.0382761 70.3061665,3.02821059 70.4065476,3.02821059 C71.3175446,3.02821059 72.1372401,3.76500638 72.1372401,4.67341923 C72.1377445,5.58233536 71.5904402,6.17318117 70.6794432,6.17318117 L70.6794432,6.17318117 Z" id="Shape"></path>
                <path d="M157.270059,6.91400317 C157.604999,5.6522907 158.234021,3.70209691 157.389104,2.78059889 C156.466001,1.77455053 154.535555,2.8178413 153.690638,3.48065555 C153.400087,3.70863949 153.200334,4.08005705 152.944589,4.34276702 C153.623549,4.47210891 153.475247,6.06246049 153.242201,7.37651364 C153.050519,7.40671019 152.860349,7.43590019 152.677242,7.46358036 C152.354912,7.51139156 150.344767,6.92809489 150.331652,6.93665058 C150.331652,6.93665058 149.507416,7.48471794 149.41561,8.12438151 C149.066546,10.5340661 150.848186,10.4137832 152.666145,10.141511 C152.241921,12.0333248 151.715298,13.9014846 151.158914,15.7590756 C150.869876,16.730398 150.484998,17.8285458 150.202518,18.9483345 C149.505903,19.206515 148.822908,19.5809522 148.594906,19.6997253 C148.241302,19.8814079 147.883158,20.0661101 147.521483,20.2377271 C146.130271,20.8995348 144.666421,21.4093532 143.089579,21.1687874 C142.155378,21.0263603 141.313992,20.9302347 141.120292,19.9518665 C141.094566,19.8225246 143.240907,18.7545733 143.403333,18.6629771 C145.35093,17.5653326 149.793931,15.0559993 147.648599,12.0589918 C146.028881,9.79727032 142.604824,10.5909363 140.598713,11.8345308 C139.934886,12.247217 139.222129,12.8486316 138.750489,13.4737002 C137.764837,14.7822173 136.91084,16.5673366 136.722689,18.1863749 C136.636936,18.9246805 136.641476,19.6715418 136.737821,20.3897164 C136.52344,20.5210714 136.292916,20.6473937 136.036666,20.7777421 C135.629089,20.9850917 134.956182,21.1345646 134.455789,21.2583705 C132.29028,21.7913396 129.837246,21.356006 129.035206,18.9589033 C129.082622,19.098814 131.127069,18.0202939 131.310681,17.920142 C132.631273,17.193915 133.927653,16.2759399 134.78165,15.0127176 C135.529716,13.9065174 136.181437,12.1445487 135.011164,11.0896826 C133.805077,10.0036134 131.336911,10.3735211 130.025398,11.0987416 C128.459149,11.964376 126.80513,13.3544238 126.10801,15.1787986 C126.011664,15.4314431 125.915319,15.703212 125.821999,15.9850465 C125.679751,16.4576225 124.659797,16.0409101 124.454495,15.9593794 C124.275928,15.8884175 124.104422,15.7802132 123.930394,15.5879619 C124.19875,14.6146264 124.3753,13.6095846 124.265839,12.6201444 C124.2386,12.3745458 124.174033,12.1641765 124.081723,11.9885332 C123.672127,11.2225474 122.710687,11.1405135 121.91016,11.7872229 C120.982013,12.5371039 120.528532,14.0268003 120.494735,15.1772888 C120.483133,15.5929946 120.528027,16.018766 120.710126,16.3987392 C120.776206,16.5346237 121.302324,17.0580305 121.288705,17.1571759 C121.066757,18.7565864 120.224866,20.4480964 119.022814,21.5316493 C118.086596,22.3756428 116.409877,22.77927 116.091079,21.0716552 C115.770263,19.3494453 116.513285,17.6614582 117.188714,16.1169048 C117.745603,14.8421071 118.611705,13.2200492 118.06541,11.8033277 C117.637655,10.6936046 116.349346,10.2029106 115.228002,10.2990363 C114.274633,10.380567 113.135635,10.980975 112.659959,11.8113801 C112.832474,11.5094146 113.529593,12.159647 113.606771,12.2874791 C113.821153,12.6448049 113.767683,13.1390217 113.718754,13.5300671 C113.57247,14.7112554 112.930837,15.7429708 112.503587,16.8350793 C111.923999,18.3167233 111.003922,19.9574025 110.943391,21.6106636 C109.953199,22.5296452 108.458074,22.6388561 108.159453,21.0399488 C107.908752,19.6951958 108.486322,18.1194392 108.940307,16.8768512 C109.161247,16.2754366 109.414974,15.6845908 109.686356,15.1038105 C110.101501,14.2140189 110.504539,12.7308651 110.134793,11.7706148 C109.707542,10.6618982 108.41772,10.170701 107.296376,10.2663234 C106.342503,10.3478541 105.204009,10.9492687 104.728334,11.7786672 C105.695322,11.6654302 105.893058,12.5874314 105.803774,13.3061093 C105.645888,14.5713447 104.968441,15.6871072 104.547748,16.8698054 C103.922258,18.6312707 102.675312,20.7203686 103.103571,22.6459019 C103.492485,24.3962952 105.396196,25.3791929 107.033065,25.4164353 C108.731979,25.4556908 110.112598,24.5840171 111.33634,23.5281444 C112.953537,26.7632014 118.874512,25.3404406 120.74594,23.0268817 C121.934877,21.5588262 122.583572,19.7153268 123.178797,17.929201 C123.566702,18.1360473 124.10644,18.3740968 124.802046,18.5673547 C124.925126,18.6010742 125.050225,18.6358002 125.176332,18.670023 C124.486274,23.7440498 130.146965,27.4380942 134.899181,24.3238235 C135.937294,23.6433946 136.602635,23.2302051 137.392569,22.6051366 C138.149211,24.4571916 139.525795,25.3776831 142.023722,25.34648 C143.40636,25.3288653 145.023051,24.9921738 146.296732,24.4405835 C147.648599,23.8542672 148.734633,22.9468609 149.829241,22.0152973 C149.849419,22.3197792 149.890277,22.618725 149.959888,22.9101217 C151.058532,27.5140889 159.870385,24.8532697 159.129381,20.6539362 C159.190416,21.0027064 156.207229,21.7591299 155.923741,21.7314498 C153.571088,21.49642 154.675281,18.2034863 154.968858,16.8058893 C155.461685,14.4560946 156.10483,12.1400192 156.629435,9.79676705 C158.049905,9.78720481 159.088522,9.96083496 159.168726,10.415293 C159.168726,10.4168029 159.854748,9.85162411 159.898633,9.75499515 C160.976091,7.40922657 159.434559,6.86216576 157.270059,6.91400317 L157.270059,6.91400317 Z M147.375199,13.685076 C147.37873,14.6413001 146.881364,15.0620386 146.881364,15.0620386 C146.881364,15.0620386 147.520979,12.1339799 144.38495,11.5003557 C144.38495,11.500859 147.368137,11.3468566 147.375199,13.685076 L147.375199,13.685076 Z M143.768539,12.8435988 C143.771566,12.8425923 143.774592,12.842089 143.777619,12.8410825 C144.630102,12.6186345 145.242478,13.5637865 145.197079,14.2960528 C145.13907,15.2311393 144.251277,15.9432746 143.481519,16.3403592 C143.271173,16.4485635 141.159133,17.2754457 141.165186,17.316211 C140.909945,15.6946563 142.190184,13.3685155 143.768539,12.8435988 L143.768539,12.8435988 Z M106.449442,11.3765498 C106.449442,11.3765498 110.099987,10.1460405 109.355956,13.5476817 C109.151663,14.4817616 108.94636,14.9377295 108.94636,14.9377295 C108.94636,14.9377295 110.169094,11.1601412 106.449442,11.3765498 L106.449442,11.3765498 Z M107.328155,20.4063245 C107.328155,20.4063245 107.420466,22.8748924 109.000839,22.7606488 C109.001343,22.7606488 106.449442,23.675101 107.328155,20.4063245 L107.328155,20.4063245 Z M114.594945,11.3765498 C114.594945,11.3765498 118.245491,10.1460405 117.501459,13.5476817 C117.297166,14.4817616 117.091864,14.9377295 117.091864,14.9377295 C117.091864,14.9377295 118.279287,10.9890275 114.594945,11.3765498 L114.594945,11.3765498 Z M115.301144,20.4063245 C115.301144,20.4063245 115.451464,22.8748924 117.032341,22.7606488 C117.032341,22.7606488 114.339705,23.7208991 115.301144,20.4063245 L115.301144,20.4063245 Z M123.351815,15.3187093 C123.383594,12.3589442 122.690006,11.8692569 122.690006,11.8692569 C124.562947,12.0735868 123.351815,15.3187093 123.351815,15.3187093 L123.351815,15.3187093 Z M134.865889,13.0625238 C134.868916,14.0177413 134.372054,14.4389832 134.372054,14.4389832 C134.372054,14.4389832 135.242697,11.7469608 132.106668,11.1138399 C132.107172,11.1138399 134.858827,10.7258142 134.865889,13.0625238 L134.865889,13.0625238 Z M129.076064,15.9498172 C129.268252,15.5069345 129.86045,14.2562941 130.568667,13.4309217 C130.89251,13.0534649 131.389371,12.5657906 131.936676,12.6724851 C133.257773,12.9291557 132.487511,14.6186526 131.982074,15.2225836 C131.111936,16.2648678 128.808718,16.5673366 128.808213,16.5673366 C128.87732,16.4410144 129.033692,16.0494658 129.076064,15.9498172 L129.076064,15.9498172 Z M128.240732,19.4244334 C128.240732,19.4244334 129.624882,22.919684 133.485774,22.3268251 C133.486278,22.3263218 128.807709,24.4868849 128.240732,19.4244334 L128.240732,19.4244334 Z M140.444358,20.4184032 C140.444358,20.4184032 141.352329,22.8079567 145.439709,21.8804194 C145.439709,21.8809227 141.132398,24.3489873 140.444358,20.4184032 L140.444358,20.4184032 Z M157.263501,22.3263218 C157.263501,22.3263218 153.028324,24.3268431 153.800099,20.2915776 C153.805647,20.2563483 153.810692,20.2352108 153.810692,20.2352108 C153.806152,20.2548385 153.804639,20.2724532 153.800099,20.2915776 C153.737045,20.6997343 153.50753,23.1783677 157.263501,22.3263218 L157.263501,22.3263218 Z M154.806937,3.28337143 C154.806937,3.28337143 156.759578,2.59790977 157.174218,3.34930056 C157.636778,4.18675152 157.051642,4.81182008 157.051642,4.81182008 C157.051642,4.81182008 157.617105,2.93661439 154.806937,3.28337143 L154.806937,3.28337143 Z M159.136947,9.51996535 C159.136947,9.51996535 160.250724,7.90797291 157.468804,7.37601037 C157.468804,7.37601037 159.540489,7.32266313 159.70342,8.16514685 C159.886023,9.10425952 159.136947,9.51996535 159.136947,9.51996535 L159.136947,9.51996535 Z" id="Shape"></path>
                <path d="M24.701335,9.2149802 C25.4569681,10.2512251 26.9404909,10.9437326 28.2081185,10.7212847 C29.7435973,10.4515289 30.6409747,8.78316955 30.7312673,7.32316641 C30.9174013,4.35434237 28.2439328,1.52945521 25.5729866,0.617519427 C22.8763144,-0.303475317 19.5808863,-0.113740335 17.1671983,1.48567021 C16.4579725,1.95472327 15.7699327,2.57727546 15.2296903,3.23505695 C14.1628251,4.53401183 13.4631834,6.145501 13.2790672,7.80429809 C12.9128525,11.0906892 15.3477265,13.9598646 17.0133477,16.5421728 C18.7369782,19.2130576 20.4838124,22.087769 19.4058498,25.3681208 C18.6633318,27.6227965 16.6481419,30.0500957 14.2097369,30.5035472 C10.4744475,31.1970613 6.41380208,29.9257866 5.20872358,26.2236897 C4.47478083,23.969014 4.41929375,21.239246 6.21253531,19.4294662 C7.08923118,18.5462171 8.32911522,17.9578877 9.51805202,18.6166757 C10.6045899,19.2180903 10.4073586,20.4556456 10.0421527,21.4395498 C9.57757453,22.6927066 8.88751702,23.9151635 9.07112881,25.3016884 C9.29711256,27.0093032 10.9798844,27.8261199 12.5758946,27.6122277 C15.4728246,27.2262151 16.6002212,24.0726889 16.0276954,21.5125248 C15.8471102,20.7062769 15.5409224,19.6443649 15.0718044,18.9589033 C12.8472769,15.7132775 8.06983922,14.5733578 4.58979042,16.3750852 C3.22531266,17.0811812 1.9470921,18.0318692 1.22172463,19.4128581 C-0.151832829,22.0263694 -0.0802040528,25.6751191 1.44014195,28.2151521 C3.19555141,31.1462305 6.35579286,32.2116654 9.59472508,32.5523831 C13.4833606,32.9620496 17.7165204,32.7652688 21.4386946,31.4834253 C24.2059867,30.5312274 25.9997327,28.7028264 27.3122543,26.1341066 C28.0880646,24.6137104 28.2081185,22.9216971 27.8035672,21.2790048 C27.4166709,19.7057646 26.701392,18.2643827 25.7914039,16.9317083 C24.3552974,14.8300285 22.4435152,13.0861778 21.2581094,10.8103645 C20.392511,9.14804452 19.8921184,7.03176971 20.0151988,5.15354436 C20.0883409,4.02519998 20.508025,2.28487221 21.7151212,1.85507466 C22.7774466,1.47711452 24.6816623,1.65779054 25.1043729,2.91044405 C25.3500294,3.63667105 24.7351316,4.37346685 24.4844309,5.01866644 C23.9749586,6.32969995 23.8306922,8.02070669 24.701335,9.2149802 L24.701335,9.2149802 Z M28.2530126,3.30903849 C30.1890072,7.89639756 27.9937366,10.1329553 27.9937366,10.1329553 L28.2530126,3.30903849 L28.2530126,3.30903849 Z M14.9477151,20.6987278 C14.9477151,20.6987278 16.0635098,23.027385 15.1898405,24.8583024 C14.6385007,26.014327 13.455617,27.1114682 12.6288595,27.1114682 C12.6288595,27.110965 15.3870719,25.5880523 14.9477151,20.6987278 L14.9477151,20.6987278 Z M20.0964117,10.8345218 C21.8467769,14.3252428 27.7622041,19.4319826 27.0640757,23.496438 C26.7124894,25.5392346 26.2438758,26.3535349 25.6789164,27.2393003 C25.6789164,27.2393003 26.9425086,23.905098 26.0582463,21.2634033 C25.188108,18.6614673 22.9439078,16.3408625 19.9708091,11.9246172 C17.7467861,8.62061146 18.9967587,4.99853541 18.9967587,4.99853541 C18.9967587,4.99853541 19.0270243,8.70113559 20.0964117,10.8345218 L20.0964117,10.8345218 Z" id="Shape"></path>
            </g>
        </g>
    </g>
</svg>