<?xml version="1.0" encoding="utf-8"?>
<!-- Generator: Adobe Illustrator 19.1.0, SVG Export Plug-In . SVG Version: 6.00 Build 0)  -->
<svg version="1.1" id="Layer_1" xmlns:sketch="http://www.bohemiancoding.com/sketch/ns"
	 xmlns="http://www.w3.org/2000/svg" xmlns:xlink="http://www.w3.org/1999/xlink" x="0px" y="0px" viewBox="-314 279 171 43"
	 style="enable-background:new -314 279 171 43;" xml:space="preserve">
<style type="text/css">
	.st0{fill:none;}
	.st1{fill:#FFFFFF;}
	.st2{fill:#EF3A30;}
</style>
<title>logo copy 3</title>
<desc>Created with Sketch.</desc>
<g id="Homepage" sketch:type="MSPage">
	<g id="home-desktop-wide" transform="translate(-250.000000, -22.000000)" sketch:type="MSArtboardGroup">
		<g id="Nav-Bar" transform="translate(208.000000, 0.000000)" sketch:type="MSLayerGroup">
			<g id="logo-copy-3" transform="translate(42.742902, 21.381000)" sketch:type="MSShapeGroup">
				<g id="Group" transform="translate(0.000000, 1.000000)">
					<g id="Shape">
						<path class="st0" d="M-149.3,304.1L-149.3,304.1l0-0.1c0-0.4-0.1-0.7-0.8-0.7c-0.9,0-2,0.4-2.3,0.6l-1.7,0.8l0.2-1.8
							c0.1-0.5,0.2-1.1,0.3-1.6c0.1-0.2,0.1-0.4,0.1-0.6c0.3-1.3,0.6-2.6,0.9-3.9c0.1-0.3,0.2-0.7,0.2-1l0.3-1.2l1.1,0.5
							c0.2,0.1,0.3,0.1,0.5,0.1c0.8,0,1.6-1.1,1.8-1.4c0.6-1.2,0.6-2.3,0.1-3.1c-0.3-0.5-0.8-0.8-1.4-1.1l-0.8-0.3l0.1-0.8
							c0.2-1.3,0-2.3-0.7-2.9c-0.5-0.5-1.1-0.8-1.9-0.8c-1.6,0-3.1,1.1-3.4,1.4c-0.3,0.2-0.5,0.5-0.7,0.7l0,0
							c-0.1,0.1-0.1,0.1-0.2,0.2l0,0l0,0c-0.3,0.3-0.4,0.7-0.3,1.1l0.3,1.5l-1.5-0.3c-0.1,0-0.2,0-0.3,0c-0.2,0-0.5,0.1-0.7,0.2
							c-0.2,0.1-1.3,0.9-1.4,2c0,0.3-0.1,0.7,0,1l0.1,1.7l-1.5-0.7c-0.7-0.3-1.4-0.4-2.2-0.4c-1.5,0-3.2,0.5-4.6,1.4
							c-0.6,0.4-1.1,0.8-1.6,1.3l-1.2,1.2l-0.5-1.7c-0.2-0.6-0.5-1-0.9-1.4c-0.7-0.6-1.7-1-3-1c-1.2,0-2.4,0.3-3.4,0.8
							c-0.7,0.4-1.7,1-2.6,1.9l-1.1,1.1l-0.6-1.4c0-0.1-0.1-0.2-0.1-0.2c-0.4-0.8-1.2-1.3-2.1-1.3c-0.6,0-1.3,0.2-1.9,0.7
							c-0.2,0.1-0.3,0.3-0.5,0.5l-1,1.1l-0.7-1.3c-0.6-1.2-2-2-3.5-2c-0.1,0-0.3,0-0.4,0c-0.8,0.1-2,0.5-2.9,1.4l-0.8,0.8l-0.7-0.9
							c-0.7-0.9-1.9-1.4-3.1-1.4c-0.1,0-0.2,0-0.4,0c-0.3,0-0.7,0.1-1.1,0.2l-1.6,0.5l0.3-1.7c0-0.2,0.1-0.4,0.1-0.5
							c0.2-2.8-2-6.5-5.9-7.9c-1.2-0.4-2.5-0.6-3.8-0.6c-2.1,0-4.1,0.6-5.7,1.6c-0.8,0.5-1.6,1.2-2.2,2c-1.2,1.5-2,3.3-2.2,5.2
							c-0.3,2.5,0.8,4.7,1.8,6.3l1.8,2.9l-3.1-1.5c-1.4-0.7-2.9-1-4.4-1c-1.5,0-2.9,0.3-4.2,1c-0.7,0.4-1,0.6-1.2,0.8
							c-0.5,0.5-1,0.7-2.2,0.8c-0.1,0-0.1,0-0.1,0c-1.1,0-1.7-0.7-1.8-1.4l-0.1-0.3l0.1-0.3c0.1-0.3,1.4-3.2,0.2-5.1
							c-0.1-0.2-0.3-0.4-0.6-0.6l-1.3-1.1l1.6-0.6c1.3-0.5,2.2-1.8,2.2-3.2c0-1.9-1.5-3.4-3.4-3.4c-1.9,0-3.4,1.5-3.4,3.4
							c0,1,0.5,2,1.3,2.7l1.6,1.3l-2,0.5c-0.9,0.2-1.8,0.6-2.5,1.2l-0.3-0.4l0.3,0.4c0,0-0.1,0.1-0.1,0.1l-0.7,0.5l-0.6-0.6
							c-0.4-0.4-1-0.7-1.6-0.8c-0.4-0.1-0.8-0.1-1.2-0.1c-1.1,0-2.3,0.2-3.4,0.7l-0.5,0.2l-0.4-0.3c-0.4-0.3-1-0.6-1.6-0.7
							c-0.5-0.1-1-0.2-1.6-0.2c-0.9,0-1.7,0.1-2.4,0.4c-0.2,0.1-0.5,0.2-0.7,0.3l-0.6,0.2l-0.5-0.4c-1-0.9-2.6-0.9-3.3-0.9h-0.1
							c-1.7,0-3.1,1.5-3.5,2.2l-0.7,1.2l-0.9-1.1c-0.9-1-2.2-1.6-3.7-1.6c-1.4,0-2.9,0.4-4.3,1.2l-2.7,1.5l1.3-2.8
							c0.3-0.6,0.5-1.3,0.5-2c0.2-2.8-2-6.5-5.9-7.9c-1.2-0.4-2.5-0.6-3.8-0.6c-2.1,0-4.1,0.6-5.7,1.6c-0.8,0.5-1.6,1.2-2.2,2
							c-1.2,1.5-2,3.3-2.2,5.2c-0.3,2.5,0.8,4.7,1.8,6.3l1.8,2.9l-3.1-1.5c-1.4-0.7-2.9-1-4.4-1c-1.5,0-2.9,0.3-4.2,1
							c-1.9,1-3.1,2.1-3.9,3.5c-1.6,3-1.5,7.1,0.2,9.9c1.7,2.8,4.7,4.4,9,4.9c1.3,0.1,2.5,0.2,3.7,0.2c3.2,0,6.1-0.4,8.6-1.3
							c2.9-1,5-2.9,6.5-5.9c0.2-0.4,0.3-0.7,0.5-1.1l0.5-1.4l1.1,1c1.1,0.9,2.5,1.4,4,1.4l0.1,0c1.6,0,3.3-0.4,4.7-1
							c0.2-0.1,0.3-0.1,0.4-0.2l0.6-0.3l0.5,0.4c0.1,0.1,0.2,0.2,0.3,0.2c0.9,0.5,1.8,0.9,2.7,0.9c0.3,0,0.6,0,0.9-0.1
							c1.1-0.3,1.5-0.7,1.7-1l0.8-1.2l0.8,1.2c0.3,0.4,0.7,0.8,1.3,1c0.6,0.2,1.3,0.3,1.9,0.3c0.6,0,2.5-0.1,3.5-1.2
							c0,0,0-0.1,0.1-0.1l0.7-1l0.8,0.9c0.6,0.7,1.6,1.1,2.8,1.1l0.1,0c1.1,0,2.2-0.4,3.2-1l0.6-0.4l0.6,0.5
							c0.8,0.7,1.9,1.1,2.9,1.1c0.5,0,0.9-0.1,1.3-0.3c1-0.5,1.8-1,2.4-1.7l1.5-1.7l0.3,2.3c0.2,1.5,0.6,2.8,1.3,4
							c1.7,2.8,4.7,4.4,9,4.9c1.2,0.1,2.5,0.2,3.7,0.2c3.2,0,6.1-0.4,8.6-1.3c2.9-1,5-2.9,6.5-5.9c0.2-0.4,0.4-0.8,0.5-1.2l0.4-1.4
							l1.2,1c1,0.8,2.3,1.3,3.6,1.3c0,0,0.1,0,0.1,0h0c1.2,0,2.3-0.3,3.4-1l0.6-0.3l0.5,0.4c0.9,0.6,2.1,1,3.4,1
							c2.5,0,5.3-1.2,6.7-2.8c0.4-0.5,0.7-1,1-1.6l1-1.8l0.8,1.9c0.3,0.7,0.7,1.3,1.2,1.9c1.4,1.6,3.4,2.5,5.5,2.5
							c1.5,0,3-0.5,4.3-1.3l0.7-0.5l0.7-0.4l0.6,0.6c1,1,2.5,1.6,4.4,1.6l0.1,0c1.6,0,3.3-0.4,4.7-1c0.5-0.2,1-0.5,1.5-0.8l0.8-0.5
							l0.6,0.7c0.9,1,2.2,1.6,3.8,1.6c2.2,0,4.5-1,5.8-2.5C-149.4,306.5-149.1,305.3-149.3,304.1L-149.3,304.1z"/>
					</g>
					<path id="Shape_1_" class="st1" d="M-149.6,288.7c0.2-1.3,0.1-2.7-0.9-3.8c-0.7-0.7-1.6-1.1-2.6-1.1c-1.8,0-3.5,1.2-4,1.6
						c-0.4,0.3-0.7,0.7-0.8,0.9c0,0.1-0.1,0.1-0.1,0.2c-0.5,0.5-0.7,1.3-0.6,2c-0.2,0-0.3-0.1-0.5-0.1c-0.4,0-0.9,0.1-1.2,0.4
						c-0.4,0.3-1.7,1.2-1.9,2.7c-0.1,0.4-0.1,0.8-0.1,1.2c-0.8-0.3-1.7-0.5-2.6-0.5c-1.7,0-3.6,0.6-5.1,1.5
						c-0.6,0.4-1.3,0.9-1.8,1.4c-0.2-0.7-0.6-1.4-1.2-1.9c-0.9-0.8-2.2-1.2-3.6-1.2c-1.3,0-2.8,0.4-3.9,1c-0.7,0.4-1.8,1.1-2.8,2.1
						c0-0.1-0.1-0.2-0.1-0.3c-0.6-1.1-1.7-1.8-3-1.8c-0.9,0-1.8,0.3-2.5,0.9c-0.2,0.2-0.4,0.4-0.6,0.6c-0.8-1.6-2.5-2.6-4.4-2.6
						c-0.2,0-0.3,0-0.5,0c-1.1,0.1-2.6,0.6-3.6,1.7c-0.9-1.1-2.3-1.7-3.9-1.7c-0.2,0-0.3,0-0.5,0c-0.4,0-0.9,0.1-1.3,0.3
						c0-0.2,0.1-0.4,0.1-0.6c0.3-4.1-3.2-7.7-6.6-8.9c-1.3-0.4-2.7-0.7-4.1-0.7c-2.3,0-4.5,0.6-6.2,1.8c-0.9,0.6-1.7,1.4-2.4,2.2
						c-1.3,1.6-2.2,3.7-2.4,5.7c-0.3,2.6,0.7,4.9,1.9,6.9c-1.5-0.7-3.1-1.1-4.8-1.1c-1.6,0-3.2,0.4-4.6,1.1c-2,1.1-1.1,1.4-3,1.5
						c0,0-0.1,0-0.1,0c-0.7,0-0.8-0.6-0.8-0.6c0.3-0.6,1.5-3.8,0.1-6c-0.2-0.3-0.5-0.6-0.8-0.9c1.7-0.6,2.8-2.2,2.8-4.1
						c0-2.4-2-4.4-4.4-4.4c-2.4,0-4.4,2-4.4,4.4c0,1.4,0.6,2.6,1.7,3.4c-1,0.2-2,0.7-2.9,1.3c0,0,0,0,0,0c0,0,0,0,0,0c0,0,0,0,0,0
						c-0.1,0-0.1,0.1-0.2,0.1c-0.5-0.5-1.2-0.9-2.1-1.1c-0.4-0.1-0.9-0.1-1.4-0.1c-1.2,0-2.6,0.3-3.8,0.7c-0.6-0.4-1.2-0.7-2-0.9
						c-0.5-0.1-1.2-0.2-1.8-0.2c-1,0-2,0.1-2.7,0.4c-0.3,0.1-0.5,0.2-0.8,0.3c-1.3-1.1-3.1-1.1-3.9-1.1h-0.1c-2.1,0-3.8,1.6-4.4,2.7
						c-1.1-1.2-2.7-1.9-4.5-1.9c-1.6,0-3.3,0.5-4.8,1.3c0.3-0.7,0.5-1.5,0.6-2.3c0.3-4.1-3.2-7.7-6.6-8.9c-1.3-0.4-2.7-0.7-4.1-0.7
						c-2.3,0-4.5,0.6-6.2,1.8c-0.9,0.6-1.7,1.4-2.4,2.2c-1.3,1.6-2.2,3.7-2.4,5.7c-0.3,2.6,0.7,4.9,1.9,6.9
						c-1.5-0.7-3.1-1.1-4.8-1.1c-1.6,0-3.2,0.4-4.6,1.1c-2,1.1-3.5,2.4-4.3,4c-1.7,3.3-1.6,7.8,0.3,10.9c1.8,3.1,5.1,4.9,9.8,5.4
						c1.3,0.1,2.6,0.2,3.8,0.2c3.3,0,6.3-0.5,9-1.4c3.1-1.1,5.4-3.2,7.1-6.4c0.2-0.4,0.4-0.8,0.5-1.3c1.3,1.1,2.9,1.6,4.7,1.6l0.1,0
						c1.7,0,3.6-0.4,5.1-1.1c0.2-0.1,0.3-0.2,0.5-0.2c0.1,0.1,0.3,0.2,0.4,0.3c1,0.7,2.2,1,3.3,1c0.4,0,0.8,0,1.2-0.1
						c1.1-0.3,1.8-0.8,2.2-1.4c0.5,0.8,1.2,1.2,1.8,1.4c0.8,0.3,1.6,0.4,2.2,0.4c0.9,0,3.1-0.2,4.3-1.5c0,0,0.1-0.1,0.1-0.1
						c0.6,0.7,1.7,1.4,3.5,1.4l0.1,0c1.3,0,2.6-0.4,3.8-1.2c0.9,0.8,2.3,1.4,3.5,1.4c0.6,0,1.2-0.1,1.7-0.4c1.1-0.5,2-1.2,2.7-2
						c0.2,1.6,0.6,3.1,1.4,4.4c1.8,3.1,5.1,4.9,9.8,5.4c1.3,0.1,2.6,0.2,3.8,0.2c3.3,0,6.3-0.5,9-1.4c3.1-1.1,5.4-3.2,7.1-6.4
						c0.2-0.4,0.4-0.9,0.6-1.4c1.2,1,2.8,1.5,4.2,1.6c0.1,0,0.1,0,0.2,0c1.5,0,2.8-0.5,3.9-1.2c1.1,0.7,2.4,1.2,4,1.2
						c2.9,0,5.9-1.3,7.4-3.2c0.4-0.5,0.8-1.1,1.1-1.7c0.3,0.8,0.8,1.5,1.3,2.1c1.6,1.8,3.9,2.8,6.3,2.8c1.7,0,3.4-0.5,4.9-1.5
						c0,0,0.6-0.4,0.7-0.5c1.2,1.2,2.9,1.9,5.1,1.9l0.1,0c1.7,0,3.6-0.4,5.1-1.1c0.6-0.3,1.2-0.6,1.7-0.9c1,1.3,2.7,2,4.6,2
						c2.5,0,5.1-1.1,6.5-2.9c1.1-1.3,1.5-2.8,1.2-4.3c-0.1-1.3-0.9-1.6-1.8-1.6c-1.3,0-2.8,0.7-2.8,0.7c0.1-0.5,0.2-1.2,0.3-1.5
						c0.1-0.2,0.1-0.4,0.1-0.6c0.3-1.3,0.6-2.6,0.9-3.9c0.1-0.3,0.2-0.7,0.2-1c0.3,0.1,0.6,0.2,0.9,0.2h0c1.6,0,2.7-1.9,2.7-1.9
						c0.9-2,0.5-3.3,0-4.1C-148.2,289.4-148.9,289-149.6,288.7L-149.6,288.7z"/>
				</g>
				<g id="Group_1_" transform="translate(5.044280, 5.026207)">
					<path id="Shape_2_" class="st2" d="M-215.5,279.9c-2.7-0.9-6-0.7-8.4,0.9c-0.7,0.5-1.4,1.1-1.9,1.7c-1.1,1.3-1.8,2.9-2,4.6
						c-0.4,3.3,2.1,6.2,3.7,8.7c1.7,2.7,3.5,5.5,2.4,8.8c-0.7,2.3-2.8,4.7-5.2,5.1c-3.7,0.7-7.8-0.6-9-4.3c-0.7-2.3-0.8-5,1-6.8
						c0.9-0.9,2.1-1.5,3.3-0.8c1.1,0.6,0.9,1.8,0.5,2.8c-0.5,1.3-1.2,2.5-1,3.9c0.2,1.7,1.9,2.5,3.5,2.3c2.9-0.4,4-3.5,3.5-6.1
						c-0.2-0.8-0.5-1.9-1-2.6c-2.2-3.2-7-4.4-10.5-2.6c-1.4,0.7-2.6,1.7-3.4,3c-1.4,2.6-1.3,6.3,0.2,8.8c1.8,2.9,4.9,4,8.2,4.3
						c3.9,0.4,8.1,0.2,11.8-1.1c2.8-1,4.6-2.8,5.9-5.3c0.8-1.5,0.9-3.2,0.5-4.9c-0.4-1.6-1.1-3-2-4.3c-1.4-2.1-3.3-3.8-4.5-6.1
						c-0.9-1.7-1.4-3.8-1.2-5.7c0.1-1.1,0.5-2.9,1.7-3.3c1.1-0.4,3-0.2,3.4,1.1c0.2,0.7-0.4,1.5-0.6,2.1c-0.5,1.3-0.7,3,0.2,4.2
						c0.8,1,2.2,1.7,3.5,1.5c1.5-0.3,2.4-1.9,2.5-3.4C-210.1,283.6-212.8,280.8-215.5,279.9L-215.5,279.9z M-226.1,300
						c0,0,1.1,2.3,0.2,4.2c-0.6,1.2-1.7,2.3-2.6,2.3C-228.4,306.4-225.6,304.9-226.1,300L-226.1,300z M-220.9,290.1
						c1.7,3.5,7.7,8.6,7,12.7c-0.4,2-0.8,2.9-1.4,3.7c0,0,1.3-3.3,0.4-6c-0.9-2.6-3.1-4.9-6.1-9.3c-2.2-3.3-1-6.9-1-6.9
						S-222,288-220.9,290.1L-220.9,290.1z M-213,289.4c0,0,2.2-2.2,0.3-6.8c0,0,1.7,1.8,1.7,3.7C-211.1,288.1-211.9,289.4-213,289.4
						L-213,289.4z"/>
					<path id="Shape_3_" class="st2" d="M-244.6,289.1c-1.1,0-2.3,0.4-3.2,1.1c-0.1,0.1-0.4,0.2-0.4,0.4c0,0,0,0,0,0
						c0.1,0.2,0.6,0,0.8,0.1c0.8,0.3-0.6,4.1-0.8,4.7c-0.5,1.3-1.2,2.6-1.6,4c0,0,0,0.1,0,0.1c-0.1,0.2-0.3,0.3-0.4,0.5
						c-0.7,0.8-2.1,0.9-2.3-0.4c-0.1-0.8,0.1-1.8,0.4-2.5c0.5-1.3,1.2-2.4,1.6-3.7c0.4-1.5,0.4-3.4-1.5-3.8
						c-1.3-0.3-2.9,0.1-4.1,0.6c-0.2,0.1-0.8,0.3-1.3,0.6c0-0.1,0-0.1-0.1-0.2c-0.3-0.6-1.1-1-1.7-1.2c-1-0.2-2.4-0.2-3.4,0.2
						c-0.8,0.3-1.6,0.6-2.3,1.1c0-0.2-0.1-0.4-0.2-0.6c-0.5-1.1-2-1.2-3-1.2c-1.4,0-2.7,1.6-2.6,1.9c0.1,0.2,0.6-0.1,0.8,0.1
						c0.9,0.7-0.1,2.6-0.3,3.4c-0.4,1.3-0.9,2.6-1.3,3.9c-1,0.5-2.1,1.1-2.4,1.3c-0.7,0.3-1.4,0.5-2.2,0.6c-1.1,0.1-2.3,0.4-3.2-0.3
						c-0.4-0.3-1-0.8-1.1-1.3c0-0.1,2.1-1.2,2.3-1.3c1.9-1.1,6.4-3.1,4.2-6.1c-1.6-2.3-5-1.5-7-0.2c-0.7,0.4-1.4,1-1.8,1.6
						c-1,1.3-1.8,3.1-2,4.7c-0.4,3.5,1.2,7.2,5.3,7.2c1.4,0,3-0.4,4.3-0.9c0.9-0.4,1.7-1,2.5-1.6c-0.2,0.7-0.3,1.4,0.5,1.8
						c0.8,0.5,1.8,0.8,2.8,0.6c1-0.2,1.1-0.4,1.2-1.3c0.5-3.2,1.9-6,2.9-9c0.1-0.4,0.3-1.1,0.4-1.7c0.5-0.4,0.9-0.7,1-0.8
						c0.8-0.4,2-0.4,1.8,0.9c-0.2,1.2-0.7,2.3-1.1,3.4c-0.6,1.7-1.4,3.5-1.8,5.2c-0.3,1.2-0.5,2.8,0.9,3.4c1,0.4,3.3,0.3,4.1-0.6
						c0.3-0.4,0-0.6-0.2-1c-0.3-0.9-0.1-2.1,0.2-3c0.5-1.9,1.3-3.7,2-5.5c0.2-0.5,0.5-1.2,0.6-1.9c0.2-0.2,0.4-0.3,0.6-0.5
						c0.8-0.5,2-0.5,2,0.6c0,0.7-0.4,1.4-0.7,2.1c-0.5,1.5-1.2,3-1.5,4.6c-0.4,2.2-0.8,5.1,2.2,5.1c1.8,0,3.2-1.1,4.3-2.4
						c0,0,0.1-0.2,0.2-0.3c0,0.5,0.1,0.9,0.2,1.4c0.5,1,2.3,1.8,3.4,1.3c1.5-0.7,2.9-2,3-3.7c0,0.1-1.1,0.5-1.3,0.5
						c-2.2-0.2,1.1-6.2,1.5-7.2C-242.7,292.3-242,289.1-244.6,289.1L-244.6,289.1z M-274.1,292.6c0,1-0.5,1.4-0.5,1.4
						s0.6-2.9-2.5-3.6C-277.1,290.4-274.1,290.2-274.1,292.6L-274.1,292.6z M-279.1,292.9c0.3-0.5,0.8-0.9,1.4-1
						c0.7-0.1,1.5,0.5,1.5,1.3c-0.1,1-0.9,1.5-1.7,2c-0.3,0.2-2.5,1.1-2.5,1.2C-280.2,295.1-279.7,293.9-279.1,292.9L-279.1,292.9z
						 M-280.8,298.7c0,0,0.9,2.8,5,1.9C-275.8,300.7-280.2,303.1-280.8,298.7L-280.8,298.7z M-265.7,292.9c0,0,0.6-2.9-2.5-3.6
						c0,0,3-0.2,3,2.2C-265.3,292.4-265.7,292.9-265.7,292.9L-265.7,292.9z M-260.3,303.5C-260.3,303.5-260.3,303.5-260.3,303.5
						c-1.9,0-0.4-2.9-0.4-2.9C-261,303.3-260.4,303.5-260.3,303.5C-260.3,303.5-260.3,303.5-260.3,303.5L-260.3,303.5z
						 M-258.6,293.4c0,0,0.6-2.9-2.5-3.6c0,0,3-0.2,3,2.2C-258.1,293-258.6,293.4-258.6,293.4L-258.6,293.4z M-251,292.2
						c0,1-0.5,1.4-0.5,1.4s0.6-2.9-2.5-3.6C-254,290-251,289.9-251,292.2L-251,292.2z M-253.1,299.4c0,0,0.1,2.3,2.1,1.8
						C-251,301.1-253.9,302.4-253.1,299.4L-253.1,299.4z M-244.3,301.4c0,0-2.2,1.7-1.8-0.8C-246.1,300.6-246.2,301.9-244.3,301.4
						L-244.3,301.4z M-243.5,292.2c-0.2,0.9-0.4,1.4-0.4,1.4s1-3.7-2.5-3.6C-246.4,290-242.8,288.8-243.5,292.2L-243.5,292.2z"/>
					<path id="Shape_4_" class="st2" d="M-243.6,281.4c-1.2,0-2.2,1-2.2,2.2c0,1.2,1,2.2,2.2,2.2c1.2,0,2.2-1,2.2-2.2
						C-241.4,282.4-242.4,281.4-243.6,281.4L-243.6,281.4z M-243.3,285.2c-0.1,0-0.2,0-0.3,0c0.8-0.1,1.2-0.7,1.2-1.5
						c0-0.8-0.7-1.5-1.4-1.6c0.1,0,0.2,0,0.3,0c0.9,0,1.7,0.7,1.7,1.6C-241.9,284.6-242.4,285.2-243.3,285.2L-243.3,285.2z"/>
					<path id="Shape_5_" class="st2" d="M-156.7,285.9c0.3-1.3,1-3.2,0.1-4.1c-0.9-1-2.9,0-3.7,0.7c-0.3,0.2-0.5,0.6-0.7,0.9
						c0.7,0.1,0.5,1.7,0.3,3c-0.2,0-0.4,0.1-0.6,0.1c-0.3,0-2.3-0.5-2.3-0.5c0,0-0.8,0.5-0.9,1.2c-0.3,2.4,1.4,2.3,3.3,2
						c-0.4,1.9-1,3.8-1.5,5.6c-0.3,1-0.7,2.1-1,3.2c-0.7,0.3-1.4,0.6-1.6,0.8c-0.4,0.2-0.7,0.4-1.1,0.5c-1.4,0.7-2.9,1.2-4.4,0.9
						c-0.9-0.1-1.8-0.2-2-1.2c0-0.1,2.1-1.2,2.3-1.3c1.9-1.1,6.4-3.6,4.2-6.6c-1.6-2.3-5-1.5-7-0.2c-0.7,0.4-1.4,1-1.8,1.6
						c-1,1.3-1.8,3.1-2,4.7c-0.1,0.7-0.1,1.5,0,2.2c-0.2,0.1-0.4,0.3-0.7,0.4c-0.4,0.2-1.1,0.4-1.6,0.5c-2.2,0.5-4.6,0.1-5.4-2.3
						c0,0.1,2.1-0.9,2.3-1c1.3-0.7,2.6-1.6,3.5-2.9c0.7-1.1,1.4-2.9,0.2-3.9c-1.2-1.1-3.7-0.7-5,0c-1.6,0.9-3.2,2.3-3.9,4.1
						c-0.1,0.3-0.2,0.5-0.3,0.8c-0.1,0.5-1.2,0.1-1.4,0c-0.2-0.1-0.4-0.2-0.5-0.4c0.3-1,0.4-2,0.3-3c0-0.2-0.1-0.5-0.2-0.6
						c-0.4-0.8-1.4-0.8-2.2-0.2c-0.9,0.7-1.4,2.2-1.4,3.4c0,0.4,0,0.8,0.2,1.2c0.1,0.1,0.6,0.7,0.6,0.8c-0.2,1.6-1.1,3.3-2.3,4.4
						c-0.9,0.8-2.6,1.2-2.9-0.5c-0.3-1.7,0.4-3.4,1.1-5c0.6-1.3,1.4-2.9,0.9-4.3c-0.4-1.1-1.7-1.6-2.8-1.5c-1,0.1-2.1,0.7-2.6,1.5
						c0.2-0.3,0.9,0.3,0.9,0.5c0.2,0.4,0.2,0.9,0.1,1.2c-0.1,1.2-0.8,2.2-1.2,3.3c-0.6,1.5-1.5,3.1-1.6,4.8c-1,0.9-2.5,1-2.8-0.6
						c-0.3-1.3,0.3-2.9,0.8-4.2c0.2-0.6,0.5-1.2,0.7-1.8c0.4-0.9,0.8-2.4,0.4-3.3c-0.4-1.1-1.7-1.6-2.8-1.5c-1,0.1-2.1,0.7-2.6,1.5
						c1-0.1,1.2,0.8,1.1,1.5c-0.2,1.3-0.8,2.4-1.3,3.6c-0.6,1.8-1.9,3.9-1.4,5.8c0.4,1.8,2.3,2.7,3.9,2.8c1.7,0,3.1-0.8,4.3-1.9
						c1.6,3.2,7.5,1.8,9.4-0.5c1.2-1.5,1.8-3.3,2.4-5.1c0.4,0.2,0.9,0.4,1.6,0.6c0.1,0,0.2,0.1,0.4,0.1c-0.7,5.1,5,8.8,9.7,5.7
						c1-0.7,1.7-1.1,2.5-1.7c0.8,1.9,2.1,2.8,4.6,2.7c1.4,0,3-0.4,4.3-0.9c1.4-0.6,2.4-1.5,3.5-2.4c0,0.3,0.1,0.6,0.1,0.9
						c1.1,4.6,9.9,1.9,9.2-2.3c0.1,0.3-2.9,1.1-3.2,1.1c-2.4-0.2-1.2-3.5-1-4.9c0.5-2.3,1.1-4.7,1.7-7c1.4,0,2.5,0.2,2.5,0.6
						c0,0,0.7-0.6,0.7-0.7C-153,286.4-154.6,285.9-156.7,285.9L-156.7,285.9z M-166.6,292.7c0,1-0.5,1.4-0.5,1.4s0.6-2.9-2.5-3.6
						C-169.6,290.5-166.6,290.3-166.6,292.7L-166.6,292.7z M-170.2,291.8C-170.2,291.8-170.2,291.8-170.2,291.8
						c0.9-0.2,1.5,0.7,1.4,1.5c-0.1,0.9-0.9,1.6-1.7,2c-0.2,0.1-2.3,0.9-2.3,1C-173.1,294.7-171.8,292.4-170.2,291.8L-170.2,291.8z
						 M-207.6,290.4c0,0,3.7-1.2,2.9,2.2c-0.2,0.9-0.4,1.4-0.4,1.4S-203.8,290.2-207.6,290.4L-207.6,290.4z M-206.7,299.4
						c0,0,0.1,2.5,1.7,2.4C-205,301.8-207.6,302.7-206.7,299.4L-206.7,299.4z M-199.4,290.4c0,0,3.7-1.2,2.9,2.2
						c-0.2,0.9-0.4,1.4-0.4,1.4S-195.7,290-199.4,290.4L-199.4,290.4z M-198.7,299.4c0,0,0.2,2.5,1.7,2.4
						C-197,301.8-199.7,302.7-198.7,299.4L-198.7,299.4z M-190.6,294.3c0-3-0.7-3.4-0.7-3.4C-189.4,291.1-190.6,294.3-190.6,294.3
						L-190.6,294.3z M-179.1,292.1c0,1-0.5,1.4-0.5,1.4s0.9-2.7-2.3-3.3C-181.9,290.1-179.1,289.7-179.1,292.1L-179.1,292.1z
						 M-184.9,294.9c0.2-0.4,0.8-1.7,1.5-2.5c0.3-0.4,0.8-0.9,1.4-0.8c1.3,0.3,0.6,1.9,0,2.6c-0.9,1-3.2,1.3-3.2,1.3
						C-185.1,295.4-185,295-184.9,294.9L-184.9,294.9z M-185.8,298.4c0,0,1.4,3.5,5.2,2.9C-180.5,301.3-185.2,303.5-185.8,298.4
						L-185.8,298.4z M-173.6,299.4c0,0,0.9,2.4,5,1.5C-168.6,300.9-172.9,303.3-173.6,299.4L-173.6,299.4z M-156.7,301.3
						c0,0-4.2,2-3.5-2c0,0,0-0.1,0-0.1c0,0,0,0,0,0.1C-160.3,299.7-160.5,302.2-156.7,301.3L-156.7,301.3z M-159.2,282.3
						c0,0,2-0.7,2.4,0.1c0.5,0.8-0.1,1.5-0.1,1.5S-156.4,281.9-159.2,282.3L-159.2,282.3z M-154.9,288.5c0,0,1.1-1.6-1.7-2.1
						c0,0,2.1-0.1,2.2,0.8C-154.1,288.1-154.9,288.5-154.9,288.5L-154.9,288.5z"/>
					<path id="Shape_6_" class="st2" d="M-289.3,288.2c0.8,1,2.2,1.7,3.5,1.5c1.5-0.3,2.4-1.9,2.5-3.4c0.2-3-2.5-5.8-5.2-6.7
						c-2.7-0.9-6-0.7-8.4,0.9c-0.7,0.5-1.4,1.1-1.9,1.7c-1.1,1.3-1.8,2.9-2,4.6c-0.4,3.3,2.1,6.2,3.7,8.7c1.7,2.7,3.5,5.5,2.4,8.8
						c-0.7,2.3-2.8,4.7-5.2,5.1c-3.7,0.7-7.8-0.6-9-4.3c-0.7-2.3-0.8-5,1-6.8c0.9-0.9,2.1-1.5,3.3-0.8c1.1,0.6,0.9,1.8,0.5,2.8
						c-0.5,1.3-1.2,2.5-1,3.9c0.2,1.7,1.9,2.5,3.5,2.3c2.9-0.4,4-3.5,3.5-6.1c-0.2-0.8-0.5-1.9-1-2.6c-2.2-3.2-7-4.4-10.5-2.6
						c-1.4,0.7-2.6,1.7-3.4,3c-1.4,2.6-1.3,6.3,0.2,8.8c1.8,2.9,4.9,4,8.2,4.3c3.9,0.4,8.1,0.2,11.8-1.1c2.8-1,4.6-2.8,5.9-5.3
						c0.8-1.5,0.9-3.2,0.5-4.9c-0.4-1.6-1.1-3-2-4.3c-1.4-2.1-3.3-3.8-4.5-6.1c-0.9-1.7-1.4-3.8-1.2-5.7c0.1-1.1,0.5-2.9,1.7-3.3
						c1.1-0.4,3-0.2,3.4,1.1c0.2,0.7-0.4,1.5-0.6,2.1C-290,285.3-290.2,287-289.3,288.2L-289.3,288.2z M-285.7,282.3
						c1.9,4.6-0.3,6.8-0.3,6.8L-285.7,282.3L-285.7,282.3z M-299.1,299.7c0,0,1.1,2.3,0.2,4.2c-0.6,1.2-1.7,2.3-2.6,2.3
						C-301.4,306.1-298.6,304.6-299.1,299.7L-299.1,299.7z M-293.9,289.8c1.8,3.5,7.7,8.6,7,12.7c-0.4,2-0.8,2.9-1.4,3.7
						c0,0,1.3-3.3,0.4-6c-0.9-2.6-3.1-4.9-6.1-9.3c-2.2-3.3-1-6.9-1-6.9S-295,287.7-293.9,289.8L-293.9,289.8z"/>
				</g>
			</g>
		</g>
	</g>
</g>
</svg>
